<svg id="Layer_1" data-name="Layer 1" xmlns="http://www.w3.org/2000/svg" viewBox="0 0 1524.69 1637.8">
  <title>angular</title>
  <g>
    <path d="M500-257.88c11,2.6,21.36,7.09,32,10.87q258.24,92,516.43,184.07Q1153.21-25.56,1258,11.79c3.84,1.36,4.81,2.71,4.27,7-3.1,24.56-5.59,49.2-8.43,73.79-3.17,27.4-6.55,54.78-9.72,82.18-2.84,24.59-5.44,49.21-8.28,73.81-3.16,27.4-6.55,54.77-9.71,82.17-2.84,24.6-5.45,49.22-8.29,73.82-3.16,27.4-6.53,54.77-9.7,82.17-2.5,21.62-4.78,43.27-7.27,64.9s-5.17,43.22-7.67,64.85-4.82,43.26-7.31,64.89-5.14,43.23-7.64,64.85c-2.16,18.66-4.18,37.32-6.33,56-2.17,18.82-4.44,37.62-6.61,56.44-2.16,18.65-4.24,37.31-6.37,56q-3.15,27.74-6.34,55.47c-1.84,15.84-3.92,31.66-5.51,47.53-.35,3.47-1.57,5.3-4.49,6.91q-163.5,90.45-326.94,181-155.38,86.07-310.81,172c-1.78,1-3.46,3.59-6.13,1.57,2-2.3,1.21-5.1,1.21-7.68q0-309.26,0-618.5c2-.08,4-.24,6-.24q94.74,0,189.47-.13c4.75,0,6.82,1.47,8.55,5.8q45.57,114.41,91.39,228.72c1.42,3.55,3,4.94,7.11,4.9,24.33-.25,48.66-.11,73-.13q49.23,0,98.47-.14l.78-.14c-.13-.37-.25-.73-.37-1.09-.62-1.54-1.19-3.1-1.87-4.62Q749.67,484.5,526.8-16.94C518-36.82,508.94-56.62,500-76.45Q500-167.17,500-257.88Z" transform="translate(262.25 257.88)" style="fill: #c2002f"/>
    <path d="M500,753q0,309.25,0,618.5c0,2.58.81,5.38-1.21,7.68q-35.43-19.5-70.86-39Q143.23,1182.56-141.47,1025c-3.86-2.13-5.2-4.64-5.66-8.88-3.67-33.27-7.61-66.5-11.46-99.75-3.1-26.8-6.06-53.61-9.35-80.39-2.34-19.07-4.66-38.17-6.76-57.26-2.68-24.32-5.54-48.63-8.22-73-1.91-17.31-4-34.6-6-51.9q-5.51-47.58-11-95.18-8.64-75.37-17.26-150.76-8.73-75.68-17.58-151.34-7.77-67.24-15.4-134.5c-3.95-34.41-7.88-68.82-12-103.2-.51-4.18.76-5.67,4.6-7Q118.89-122.22,495.23-256.49c1.55-.55,3.17-.93,4.75-1.39q0,90.72,0,181.43c-.75,1.46-1.58,2.89-2.25,4.39Q261.59,457.38,25.46,986.83c-2.27,5.08-2.27,5.09,3.49,5.09,55.65,0,111.31,0,167,.12,4.1,0,5.67-1.38,7.1-5q45.82-114.84,91.8-229.64c1.51-3.8,3.36-4.78,7.24-4.78q96.48.2,193,.1C496.68,752.76,498.34,752.92,500,753Z" transform="translate(262.25 257.88)" style="fill: #dc0031"/>
    <path d="M500,753c-1.66-.08-3.32-.24-5-.24q-96.49,0-193-.1c-3.88,0-5.73,1-7.24,4.78Q249,872.31,203,987.08c-1.43,3.58-3,5-7.1,5-55.66-.17-111.32-.11-167-.12-5.76,0-5.76,0-3.49-5.09Q261.6,457.38,497.75-72.06c.67-1.5,1.5-2.93,2.25-4.39,8.94,19.83,18,39.63,26.8,59.51Q749.67,484.5,972.49,985.93c.68,1.52,1.25,3.08,1.87,4.62-.14.41-.28.82-.41,1.23q-49.25.08-98.47.14c-24.33,0-48.66-.12-73,.13-4.07,0-5.69-1.35-7.11-4.9Q749.74,872.78,704,758.43c-1.73-4.33-3.8-5.81-8.55-5.8q-94.74.27-189.47.13C504,752.76,502,752.92,500,753Zm.64-481a1.29,1.29,0,0,0-.24-.43.51.51,0,0,0-.43-.11c-1.43.84-1.5,2.46-2.05,3.77Q430.42,437.55,363,599.87c-.66,1.6-1.88,3.09-1.5,5.25q36.87,0,73.55,0,32.49,0,65-.2c1,.07,2,.2,3,.2q66.25,0,132.5,0c1.06,0,2.28.46,3.4-.77-.55-1.29-1.12-2.65-1.69-4q-41.9-100.86-83.81-201.71Q527.06,335.32,500.64,272Z" transform="translate(262.25 257.88)" style="fill: #fefefe"/>
    <path d="M974,991.78c.13-.41.27-.82.41-1.23.12.36.24.72.37,1.09Z" transform="translate(262.25 257.88)" style="fill: #f5cbd5"/>
    <path d="M500,604.92q-32.47.11-65,.2-36.73,0-73.55,0c-.38-2.16.84-3.65,1.5-5.25q67.44-162.31,134.94-324.6c.55-1.31.62-2.93,2.05-3.77a.51.51,0,0,1,.43.11,1.29,1.29,0,0,1,.24.43c-1,2.06-.62,4.26-.62,6.41Q500,441.68,500,604.92Z" transform="translate(262.25 257.88)" style="fill: #dc0031"/>
    <path d="M500,604.92q0-163.24,0-326.47c0-2.15-.38-4.35.62-6.41q26.37,63.3,52.74,126.58,41.94,100.85,83.81,201.71c.57,1.35,1.14,2.71,1.69,4-1.12,1.23-2.34.77-3.4.77q-66.26,0-132.5,0C502,605.12,501,605,500,604.92Z" transform="translate(262.25 257.88)" style="fill: #c2002f"/>
  </g>
</svg>
