<svg id="Layer_1" data-name="Layer 1" xmlns="http://www.w3.org/2000/svg" viewBox="0 0 451.11 300.99">
  <rect x="150.94" width="300.17" height="152.03" style="fill: #fff"/>
  <rect width="150.94" height="152.03" style="fill: #4a57a6"/>
  <rect y="152.03" width="451.11" height="148.96" style="fill: #e81d25"/>
  <path d="M124.81,251.56l7.91,24.33a1.85,1.85,0,0,0,1.77,1.29h25.58a1.86,1.86,0,0,1,1.09,3.37l-20.69,15a1.85,1.85,0,0,0-.68,2.08L147.7,322a1.87,1.87,0,0,1-2.87,2.08l-20.7-15a1.88,1.88,0,0,0-2.19,0l-20.69,15A1.87,1.87,0,0,1,98.38,322l7.91-24.33a1.86,1.86,0,0,0-.68-2.08l-20.7-15a1.87,1.87,0,0,1,1.1-3.37h25.58a1.86,1.86,0,0,0,1.77-1.29l7.91-24.33A1.86,1.86,0,0,1,124.81,251.56Z" transform="translate(-47.23 -212.52)" style="fill: #fff"/>
</svg>
