<?xml version="1.0" encoding="utf-8"?>
<!-- Generator: Adobe Illustrator 23.0.3, SVG Export Plug-In . SVG Version: 6.00 Build 0)  -->
<svg version="1.1" id="Layer_1" xmlns="http://www.w3.org/2000/svg" xmlns:xlink="http://www.w3.org/1999/xlink" x="0px" y="0px"
	 viewBox="0 0 951.1 1406.5" style="enable-background:new 0 0 951.1 1406.5;" xml:space="preserve">
<style type="text/css">
	.st0{opacity:0.8;}
	.st1{fill:#72C9D0;}
	.st2{fill:url(#SVGID_1_);}
	.st3{fill:url(#SVGID_2_);}
	.st4{fill:url(#SVGID_3_);}
	.st5{fill:#FAECDF;}
	.st6{fill:url(#SVGID_4_);}
	.st7{fill:url(#SVGID_5_);}
	.st8{fill:url(#SVGID_6_);}
</style>
<g>
	<g id="base" class="st0">
		<g>
			<g>
				<polygon class="st1" points="365.6,742.6 364.3,1189.6 232,1113.3 233.3,666.3 				"/>
			</g>
		</g>
		<g>
			
				<linearGradient id="SVGID_1_" gradientUnits="userSpaceOnUse" x1="406.7337" y1="178.2917" x2="468.8643" y2="-327.7216" gradientTransform="matrix(1 0 0 -1 0 849.0704)">
				<stop  offset="0" style="stop-color:#33"/>
				<stop  offset="0.4531" style="stop-color:#21409A"/>
				<stop  offset="1" style="stop-color:#001B4B"/>
			</linearGradient>
			<polygon class="st2" points="511.3,657.9 510,1105 364.3,1189.6 365.6,742.6 			"/>
		</g>
		<g>
			<g>
				<polygon class="st1" points="686.8,759.3 685.5,1206.3 510,1105 511.3,657.9 				"/>
			</g>
		</g>
		
			<linearGradient id="SVGID_2_" gradientUnits="userSpaceOnUse" x1="776.5612" y1="68.4475" x2="845.9768" y2="-496.8973" gradientTransform="matrix(1 0 0 -1 0 849.0704)">
			<stop  offset="0" style="stop-color:#7F3F98"/>
			<stop  offset="0.4531" style="stop-color:#21409A"/>
			<stop  offset="1" style="stop-color:#001B4B"/>
		</linearGradient>
		<polygon class="st3" points="804.7,844 673.3,920.3 672.1,1367.3 803.5,1291 949.2,1206.3 950.5,759.3 		"/>
		
			<linearGradient id="SVGID_3_" gradientUnits="userSpaceOnUse" x1="394.8107" y1="30.2762" x2="464.2272" y2="-535.0761" gradientTransform="matrix(1 0 0 -1 0 849.0704)">
			<stop  offset="0" style="stop-color:#7F3F98"/>
			<stop  offset="0.4531" style="stop-color:#21409A"/>
			<stop  offset="1" style="stop-color:#001B4B"/>
		</linearGradient>
		<polygon class="st4" points="291.6,958.5 290.3,1405.5 567.5,1244.5 568.7,797.4 		"/>
		<g>
			<polygon class="st5" points="950.5,759.3 804.7,844 673.3,920.3 541.1,844 686.8,759.3 511.3,657.9 365.6,742.6 233.3,666.3 
				364.7,589.9 510.4,505.2 657.1,589.9 803.8,674.6 			"/>
		</g>
		<g>
			<g>
				<polygon class="st1" points="673.3,920.3 672.1,1367.3 539.8,1291 541.1,844 				"/>
			</g>
		</g>
		<g>
			<g>
				<polygon class="st5" points="568.7,797.4 291.6,958.5 159.3,882.1 12.6,797.5 144.1,721.1 305.1,814.1 450.9,729.4 				"/>
			</g>
		</g>
		<polygon class="st1" points="159.3,882.1 12.6,797.5 11.4,1244.5 158.1,1329.1 290.3,1405.5 291.6,958.5 		"/>
	</g>
	<g id="superior">
		<g>
			<g>
				<polygon class="st1" points="365.6,243.8 364.3,690.9 232,614.5 233.3,167.5 				"/>
			</g>
		</g>
		<g>
			
				<linearGradient id="SVGID_4_" gradientUnits="userSpaceOnUse" x1="406.7337" y1="677.0717" x2="468.8643" y2="171.0584" gradientTransform="matrix(1 0 0 -1 0 849.0704)">
				<stop  offset="0" style="stop-color:#7F3F98"/>
				<stop  offset="0.4531" style="stop-color:#21409A"/>
				<stop  offset="1" style="stop-color:#001B4B"/>
			</linearGradient>
			<polygon class="st6" points="511.3,159.2 510,606.2 364.3,690.9 365.6,243.8 			"/>
		</g>
		<g>
			<g>
				<polygon class="st1" points="686.8,260.5 685.5,707.5 510,606.2 511.3,159.2 				"/>
			</g>
		</g>
		
			<linearGradient id="SVGID_5_" gradientUnits="userSpaceOnUse" x1="776.5612" y1="567.2275" x2="845.9768" y2="1.8826" gradientTransform="matrix(1 0 0 -1 0 849.0704)">
			<stop  offset="0" style="stop-color:#7F3F98"/>
			<stop  offset="0.4531" style="stop-color:#21409A"/>
			<stop  offset="1" style="stop-color:#001B4B"/>
		</linearGradient>
		<polygon class="st7" points="804.7,345.2 673.3,421.5 672.1,868.5 803.5,792.2 949.2,707.5 950.5,260.5 		"/>
		
			<linearGradient id="SVGID_6_" gradientUnits="userSpaceOnUse" x1="394.8107" y1="529.0562" x2="464.2272" y2="-36.2961" gradientTransform="matrix(1 0 0 -1 0 849.0704)">
			<stop  offset="0" style="stop-color:#7F3F98"/>
			<stop  offset="0.4531" style="stop-color:#21409A"/>
			<stop  offset="1" style="stop-color:#001B4B"/>
		</linearGradient>
		<polygon class="st8" points="291.6,459.7 290.3,906.7 567.5,745.7 568.7,298.7 		"/>
		<g>
			<polygon class="st5" points="950.5,260.5 804.7,345.2 673.3,421.5 541.1,345.2 686.8,260.5 511.3,159.2 365.6,243.8 233.3,167.5 
				364.7,91.1 510.4,6.4 657.1,91.1 803.8,175.8 			"/>
		</g>
		<g>
			<g>
				<polygon class="st1" points="673.3,421.5 672.1,868.5 539.8,792.2 541.1,345.2 				"/>
			</g>
		</g>
		<g>
			<g>
				<polygon class="st5" points="568.7,298.7 291.6,459.7 159.3,383.4 12.6,298.7 144.1,222.3 305.1,315.3 450.9,230.6 				"/>
			</g>
		</g>
		<polygon class="st1" points="159.3,383.4 12.6,298.7 11.4,745.7 158.1,830.4 290.3,906.7 291.6,459.7 		"/>
	</g>
</g>
</svg>
