<?xml version="1.0" encoding="utf-8"?>
<!-- Generator: Adobe Illustrator 23.0.3, SVG Export Plug-In . SVG Version: 6.00 Build 0)  -->
<svg version="1.1" id="Layer_1" xmlns="http://www.w3.org/2000/svg" xmlns:xlink="http://www.w3.org/1999/xlink" x="0px" y="0px"
	 viewBox="0 0 308.5 313.5" style="enable-background:new 0 0 308.5 313.5;" xml:space="preserve">
<style type="text/css">
	.st0{fill:#FFFFFF;}
</style>
<g>
	<path class="st0" d="M309.3,27.8c0,84,0,167.9,0,251.9c-0.3,0.7-0.7,1.4-0.7,2.2c-1,9.3-5.8,16.1-13.7,20.8
		c-4.9,2.9-10.3,3.6-15.8,3.6c-81.7,0-163.3,0-245,0c-6.9,0-13.4-1.3-19-5.6c-8.1-6.2-11.1-14.7-11.1-24.5c0-79.8,0-159.6,0-239.3
		c0-3.7,0.2-7.3,0.5-11c0.8-11.9,9.9-21.4,21.5-24c1.5-0.3,3-0.6,4.6-0.9c84,0,167.9,0,251.9,0c0.8,0.3,1.6,0.7,2.5,0.8
		c11.3,1,21.9,10.8,23.5,21.8C308.6,24.9,309,26.3,309.3,27.8z M171.6,131.2c0-3.1,0-6.2,0-9.2c0-5.9-3.1-9-8.9-9
		c-10.9,0-21.9,0-32.8,0c-6.3,0-9.4,3.1-9.4,9.3c0,47.2,0,94.5,0,141.7c0,6.1,3.3,9.4,9.4,9.4c10.7,0,21.5,0,32.2,0
		c6.4,0,9.5-3.1,9.5-9.5c0-24.1,0-48.1,0-72.2c0-8,1.7-15.5,5.1-22.7c4.9-10.1,14.2-15.4,25.5-14.3c10.8,1,18.1,7.2,20.8,18.3
		c1.4,5.5,2.2,11.3,2.3,17c0.2,24.5,0.1,48.9,0.1,73.4c0,7.3,2.8,10,10.1,10c10.8,0,21.7,0,32.5,0c6.3,0,9.6-3.2,9.6-9.5
		c-0.1-28.9-0.1-57.9-0.6-86.8c-0.2-11.6-2-23.1-6.4-34c-5.4-13.6-14.4-23.7-28.4-28.7c-11.9-4.2-24.1-4.5-36.5-2.8
		c-13.8,1.9-25.2,8-33.5,19.5C172.2,131,172,131,171.6,131.2z M47.6,193.1c0,23.3,0,46.5,0,69.8c0,7.4,3.1,10.4,10.5,10.4
		c9.8,0,19.7,0,29.5,0c7.9,0,11-3.1,11-11c0-46.1,0-92.3,0-138.4c0-0.7,0-1.4,0-2.1c-0.3-5.6-3.7-8.9-9.4-8.9c-10.6,0-21.3,0-31.9,0
		c-6.7,0-9.8,3.1-9.8,9.8C47.6,146.1,47.6,169.6,47.6,193.1z M105.9,67.2c0-18.2-14.8-33.1-32.9-33.1C55,34.1,40.1,48.9,40.1,67
		c0.1,18.9,14.8,32.9,33,33C91.1,100.2,105.9,85.2,105.9,67.2z"/>
</g>
</svg>
