<svg id="Layer_1" data-name="Layer 1" xmlns="http://www.w3.org/2000/svg" viewBox="0 0 412.17 412.19">
  <title>linked</title>
  <path d="M706.06,520.51c0,50,.11,100-.06,150-.08,26.12-16.76,47.34-41.68,53.85a62.12,62.12,0,0,1-15.84,1.74q-148.5,0-297,0C317.58,726,294,702.36,294,668.47q-.07-148.49,0-297C294,337.6,317.58,314,351.52,314q148.5-.1,297,0c33.94,0,57.49,23.64,57.53,57.56Q706.15,446,706.06,520.51Zm-192.8-18.94c0-6-.11-11.93.06-17.9.07-2.74-.68-3.76-3.6-3.73q-20.75.21-41.49,0c-3.15,0-3.89,1.05-3.88,4q.11,75,0,150c0,3.18.81,4.29,4.19,4.24,13.15-.2,26.32-.32,39.47,0,4.66.13,5.38-1.45,5.36-5.61-.18-26.32-.1-52.64-.09-79,0-10.62,3.13-20,11.11-27.38,12.86-11.84,30.51-10.64,40.31,2.69,4.61,6.28,6.29,13.46,6.28,21.16,0,27.82.08,55.64-.1,83.47,0,3.81,1,4.7,4.73,4.64,13.16-.23,26.33-.26,39.48,0,4,.08,4.93-1.17,4.91-5-.13-35.82,0-71.64-.08-107.46,0-15.67-6.68-27.94-19.81-36.53s-27.66-10.78-43-10.29C539,479.47,523.41,484.73,513.26,501.57Zm-81.82,57.78c0-25-.06-50,.07-75,0-3.44-.89-4.54-4.43-4.48-13.32.2-26.64.18-40,0-3.31,0-4.6.62-4.59,4.3q.18,74.7,0,149.4c0,3.43.86,4.55,4.41,4.5,13.16-.21,26.32-.28,39.47,0,4.36.1,5.15-1.37,5.12-5.36C431.35,608.32,431.44,583.83,431.44,559.35Zm-50.8-132.89A26.37,26.37,0,1,0,407,400.09,26.32,26.32,0,0,0,380.64,426.46Z" transform="translate(-293.92 -313.9)" style="fill: #fff"/>
</svg>
