<?xml version="1.0" encoding="utf-8"?>
<!-- Generator: Adobe Illustrator 23.0.3, SVG Export Plug-In . SVG Version: 6.00 Build 0)  -->
<svg version="1.1" id="Layer_1" xmlns="http://www.w3.org/2000/svg" xmlns:xlink="http://www.w3.org/1999/xlink" x="0px" y="0px"
	 viewBox="0 0 481 141" style="enable-background:new 0 0 481 141;" xml:space="preserve">
<style type="text/css">
	.st0{fill:#D49800;}
</style>
<g>
	<path class="st0" d="M285.07,81.46c10.62-0.59,20.77-2.11,30.71-6.15c21.39-8.69,44.68-8,66.96-12.44
		c4.1-0.81,10.58-2.05,12.08,3.33c1.66,5.91-4.95,6.09-8.75,8.28c-20.01,11.55-42.46,16.26-64.12,23.14
		c-5.26,1.66-10.9,2.25-18.88,9.01c23.65,0.73,43.97,0.26,64.04,2.19c35.5,3.43,71.73-2.4,106.67,8.22
		c2.96,0.89,6.84,1.38,7.23,4.61c0.57,4.69-4.24,5.83-7.35,6.07c-20.68,1.58-39.76,9.56-61.75,8.55
		c-58.3-2.68-116.96-5.83-175.16-0.65c-31.12,2.78-61.59-1.08-92.3-0.69c-40.31,0.49-80.73,0.45-120.92,5.03
		c-3.02,0.35-6.09,0.32-9.11,0.51c-6.31,0.39-13.36,0.67-14.09-7.57c-0.69-7.71,4.79-11.77,12.08-13.21
		c35.16-7,70.48-9.93,106.4-6.64c18.33,1.68,36.94,0.28,54.95,0.28c1.54-6.86-2.31-7.45-4.79-8.06
		c-30.87-7.57-61.4-15.97-89.66-31.2c-4.12-2.21-9.76-3.45-8.48-8.77c1.38-5.81,7.59-6.56,12.61-5.3
		c11.23,2.82,22.45,5.89,33.35,9.78c23.36,8.32,47.95,11.27,71.8,17.42c2.92,0.75,6.23,2.78,8.22-0.28c2.05-3.17-1.34-5.3-3.23-7.61
		c-9.24-11.33-18.55-22.59-27.4-34.2c-3.23-4.24-8.4-10.39-2.86-14.66c4.67-3.59,8.59,3,11.83,6.66
		c9.87,11.12,21.52,19.99,34.14,27.73c2.37,1.46,3.49,5.85,7.15,4.04c3.09-1.54,2.8-5.16,2.64-8.2
		c-0.91-16.42,2.29-32.34,6.31-48.09c1.28-5.03,1.97-13.11,8.63-12.22c5.68,0.75,6.31,8.28,6.88,13.95
		c1.85,18.07,3.53,36.17,5.74,54.2c1.4,11.43,6.25,11.08,13.58,3.61c14.49-14.8,29.21-29.41,44.37-43.5
		c2.76-2.56,6.78-8.71,11.29-4.79c4.22,3.67,1.99,9.8-1.01,14.01c-7.06,9.91-14.55,19.51-22,29.11
		C289.58,71.27,284.18,74.29,285.07,81.46z"/>
</g>
</svg>
