<svg xmlns="http://www.w3.org/2000/svg" xmlns:xlink="http://www.w3.org/1999/xlink" id="Layer_1" x="0" y="0" version="1.1" viewBox="0 0 620 254" style="enable-background:new 0 0 620 254" xml:space="preserve"><style type="text/css">.st0{fill:#fff}</style><g><path d="M77.52,57.36c1.83-29.04,25.38-57.04,54.16-57.04c5.23,0,10.99,1.05,16.75,3.14 c36.37,13.87,47.1,60.18,20.67,88.17c-0.52,0.52-1.05,0.79-1.31,1.31c-1.57,1.05-2.88,1.31-4.45,1.31c-0.52,0-1.31,0-1.83-0.26 c-3.4-0.52-5.49-2.88-6.02-5.5c-1.05-2.62-0.79-5.49,1.31-8.11c0.26,0,0.26-0.26,0.26-0.26c19.1-19.88,10.47-54.95-17.27-62.01 c-2.62-0.79-5.23-1.05-7.85-1.05c-20.93,0-38.46,21.46-37.94,42.39c0.52,23.55,19.36,42.65,32.97,59.92 c13.61,17.53,28.52,37.42,27.73,60.7c-1.05,43.17-43.69,74.31-84.25,74.31c-20.41,0-40.55-8.11-54.16-26.95 c-16.75-23.29-20.67-57.56-10.2-84.25c8.37-21.19,24.33-33.75,47.1-33.75c9.68,0,19.1,2.09,29.3,4.19 c9.94,1.83,6.54,15.96-2.62,15.96H78.3c-8.37-1.57-16.48-4.19-24.59-4.19c-12.56,0-23.03,6.28-29.04,17.27 c-8.9,15.7-9.68,35.58-4.97,52.85c7.06,25.9,24.59,42.39,51.54,42.39c28.52,0,61.22-20.93,66.46-50.24 c2.62-15.96-4.19-30.87-13.08-43.69C107.09,118.32,75.43,91.64,77.52,57.36z" class="st0"/><path d="M218.02,159.93c3.4,7.59-0.52,17.79-5.23,24.07c-6.28,8.37-15.18,12.82-25.12,14.39 c-3.92,0.52-8.11,1.57-10.47,4.71c-0.52,3.4,0,6.54,2.09,8.63c2.35,1.83,5.23,2.62,8.37,2.62c12.56,0,24.86-9.68,34.01-17.27 c1.57-1.31,3.14-1.83,4.97-1.83c5.76,0,10.99,7.33,5.5,12.04c-12.82,10.73-26.69,21.45-44.22,21.45c-7.59,0-15.44-2.09-20.15-8.37 c-10.99-13.61-2.09-34.54,7.06-46.57c7.59-10.2,17.79-20.67,31.4-20.67C211.22,153.12,215.67,154.95,218.02,159.93z M189.24,180.33 c0,1.05,0,2.09,0.26,2.88c7.85-2.09,13.34-7.59,15.18-15.7c-5.76,0.78-10.73,5.49-14.91,10.46 C189.5,178.76,189.24,179.81,189.24,180.33z" class="st0"/><path d="M291.81,154.69c3.66,0,7.06,1.05,9.68,4.71c3.92,4.97,2.62,12.56,0.79,18.05c-1.57,6.02-3.92,11.51-6.28,17.01 c-2.62,6.02-6.8,13.6-6.54,20.15c3.92-1.31,7.59-4.19,10.99-6.54c4.45-3.4,8.63-7.06,12.82-10.46c1.57-1.31,3.14-1.83,4.71-1.83 c6.02,0,11.51,7.33,5.49,12.04c-9.68,7.85-19.62,18.58-32.18,21.45c-1.05,0-2.09,0.26-2.88,0.26c-5.76,0-11.51-3.4-12.82-9.68 c-1.57-7.33,0.52-14.91,3.14-21.98c1.83-4.45,3.92-8.63,5.49-13.08c0.26-0.26,0.26-0.52,0.26-0.78c0.52-2.62,1.31-5.76,0.52-8.37 c-0.79-1.83-1.83-2.62-3.14-2.62c-12.56,7.06-38.72,29.57-48.67,40.29c-2.35,4.19-4.71,8.37-6.8,12.82 c-1.31,2.62-3.4,3.66-5.49,3.66c-4.71,0-9.94-5.49-7.06-11.25c1.83-3.4,3.4-6.8,5.49-9.94c0.26-1.05,0.79-2.09,1.57-3.14 c6.54-11.25,31.66-54.42,41.34-54.42c5.5,0,10.47,7.33,5.23,12.3c-0.79,1.05-1.83,1.83-2.62,2.88c0,0.26,0.26,0.52,0.52,0.52 C272.18,161.76,283.17,154.69,291.81,154.69z" class="st0"/><path d="M353.29,224.55c-1.83-0.52-3.4-0.79-4.97-0.79c-0.52,0-1.05,0.26-1.57,0.26c-3.92,2.09-8.11,3.4-12.56,3.4 c-2.62,0-5.23-0.52-7.85-1.57c-16.22-5.76-15.44-27.21-9.16-40.03c7.59-15.44,28.78-33.75,47.1-33.75c3.92,0,7.85,1.05,11.51,3.14 c4.71-1.31,8.37-4.71,11.77-8.63c15.7-23.81,32.44-46.83,49.19-69.86c1.57-2.36,3.92-3.14,6.28-3.14c5.5,0,10.73,5.23,6.8,10.73 c-21.98,30.09-43.43,60.7-63.32,92.36c-6.28,9.94-13.34,20.67-17.53,31.92c0.52,1.57,1.31,2.36,2.88,2.62 c6.54-3.92,13.08-8.11,19.62-12.3c1.31-1.05,2.62-1.31,3.92-1.31c6.28,0,10.46,9.94,3.66,14.39c-6.02,3.66-25.12,17.53-37.15,17.53 C358,229.52,354.86,227.95,353.29,224.55z M366.37,180.6c1.83-2.88,3.4-5.76,5.23-8.63c-2.36-3.14-5.5-4.71-9.16-4.71 c-10.46,0-23.81,11.77-28.78,20.15c-2.62,3.92-11.25,24.86-0.52,24.86h0.79c10.2-1.05,18.05-11.51,24.86-18.58 C361.4,188.97,364.28,184.52,366.37,180.6z" class="st0"/><path d="M446.17,159.93c3.4,7.59-0.52,17.79-5.23,24.07c-6.28,8.37-15.18,12.82-25.12,14.39 c-3.92,0.52-8.11,1.57-10.47,4.71c-0.52,3.4,0,6.54,2.09,8.63c2.35,1.83,5.23,2.62,8.37,2.62c12.56,0,24.86-9.68,34.01-17.27 c1.57-1.31,3.14-1.83,4.97-1.83c5.76,0,10.99,7.33,5.5,12.04c-12.82,10.73-26.69,21.45-44.22,21.45c-7.59,0-15.44-2.09-20.15-8.37 c-10.99-13.61-2.09-34.54,7.06-46.57c7.59-10.2,17.79-20.67,31.4-20.67C439.37,153.12,443.82,154.95,446.17,159.93z M417.39,180.33 c0,1.05,0,2.09,0.26,2.88c7.85-2.09,13.34-7.59,15.18-15.7c-5.76,0.78-10.73,5.49-14.91,10.46 C417.66,178.76,417.39,179.81,417.39,180.33z" class="st0"/><path d="M487.77,162.02c-1.31,0-2.62,0.52-3.66,1.05c-2.62,14.39-12.3,28-19.36,41.34c-1.31,2.62-3.4,3.66-5.49,3.66 c-4.71,0-9.68-5.23-6.8-10.73c8.37-15.96,25.64-35.06,14.39-53.38c-2.62-4.45-0.26-8.37,3.14-9.94c1.31-0.79,2.35-1.31,3.66-1.31 c1.57,0,3.4,0.79,4.71,2.62c9.42,11.51,21.72,18.58,35.32,18.58c4.45,0,8.9-0.79,13.6-2.36c0.52,0,0.79-0.26,1.05-0.26 c1.05-0.26,1.83-0.52,2.35-0.52c7.06,0,9.42,11.51,1.57,14.13c-13.34,4.45-24.07,29.83-28,42.91c-0.26,3.14,0.26,5.76,2.36,7.33 c8.11-3.14,15.96-11.77,21.45-16.48c1.57-1.31,3.14-1.83,4.71-1.83c5.76,0,10.99,7.33,5.49,11.77 c-9.42,7.85-22.5,21.98-36.11,21.98c-0.52,0-1.31,0-2.09-0.26c-11.51-1.31-12.56-13.08-10.47-22.24 c2.62-12.04,8.11-23.81,14.39-34.54c0-2.62-0.52-4.97-2.35-6.8c-4.19-1.05-8.37-2.62-12.3-4.45 C488.82,162.02,488.3,162.02,487.77,162.02z" class="st0"/><path d="M573.59,219.84c-6.54,4.45-16.22,8.9-24.86,8.9c-5.76,0-11.25-2.09-14.91-8.11 c-7.59-12.3-0.79-30.09,6.02-41.34c3.92-6.28,8.63-12.04,14.13-16.48c6.28-6.54,15.44-10.99,24.59-10.99 c12.82,0,24.86,8.63,24.59,22.76c-0.26,8.9-3.4,17.01-8.37,24.33v1.05c0,1.05,0.26,1.83,0.79,2.35c4.97-1.31,9.42-3.66,13.87-6.8 c1.31-1.05,2.62-1.31,3.66-1.31c5.76,0,9.68,9.16,3.66,13.61c-10.73,7.59-20.67,9.94-33.49,9.94 C579.87,218.01,576.73,218.53,573.59,219.84z M544.81,210.95c1.05,2.62,2.88,3.66,5.23,3.66c2.36,0,4.97-0.79,7.59-2.09 c0.26-1.57,0.26-3.4-0.52-4.97c-3.92-3.4-7.33-7.59-9.68-12.04C545.33,200.74,543.5,206.5,544.81,210.95z M559.2,186.35 c1.57,5.23,5.23,9.68,10.2,12.56c0.79,0.26,1.57,0.26,2.62,0.26c1.57,0,3.4-0.26,5.23-0.79c5.23-5.76,9.68-12.3,11.25-19.62 c1.57-8.37-2.62-12.04-8.37-12.3c-1.05,0.79-2.35,1.57-4.19,1.57c-4.71,0.52-8.9,2.36-12.82,5.23 C559.99,176.67,558.16,181.38,559.2,186.35z" class="st0"/></g></svg>