<svg id="Layer_1" data-name="Layer 1" xmlns="http://www.w3.org/2000/svg" viewBox="0 0 451.56 295.3">
  <title>uk</title>
  <g>
    <path d="M223.86,102.57H278q0,57.57-.06,115.15c0,2.48.54,3,2.79,3q97.92-.11,195.85-.06v59.06q-98,0-196.08-.05c-2,0-2.55.53-2.55,2.77q.11,57.71,0,115.4H223.86q0-57.57.06-115.15c0-2.48-.54-3-2.79-3q-97.92.12-195.85.06V220.68q98,0,196.08.06c2,0,2.55-.53,2.55-2.77Q223.81,160.26,223.86,102.57Z" transform="translate(-25.16 -102.57)" style="fill: #c82230"/>
    <path d="M223.86,102.57q0,57.69,0,115.4c0,2.24-.52,2.77-2.55,2.77q-98-.11-196.08-.06V201h97.06l.06-.43L25.28,137V125.7c.53.3,1.07.57,1.58.9q56,36.6,111.93,73.24a6.93,6.93,0,0,0,4,1.19c10-.06,20,0,30,0h2.75c-1.26-.87-1.92-1.35-2.6-1.79q-72.66-47.55-145.31-95.1c-.67-.44-1.54-.65-1.91-1.54h52.8c.2.92,1,1.06,1.63,1.45q56,36.64,111.92,73.26c4.47,2.93,9,5.83,13.72,8.93V102.57Z" transform="translate(-25.16 -102.57)" style="fill: #fefdfe"/>
    <path d="M278,397.86q0-57.69,0-115.4c0-2.24.52-2.77,2.55-2.77q98,.1,196.08.05v19.69H379.54l-.06.43,97.12,63.55v11.32c-.72-.42-1.46-.82-2.16-1.27Q418.76,337,363.09,300.6a6.81,6.81,0,0,0-4-1.2c-10,.06-20,0-30,0h-2.77l2.42,1.65q72.86,47.67,145.69,95.36c.61.39,1.43.55,1.72,1.42h-52.8c-.1-.91-.92-1-1.44-1.32Q364.23,358.76,306.51,321l-10.44-6.81v83.64Z" transform="translate(-25.16 -102.57)" style="fill: #fefdfe"/>
    <path d="M476.6,220.68q-97.94,0-195.85.06c-2.25,0-2.79-.54-2.79-3q.12-57.58.06-115.15h18.05v83.61l2.16-1.38Q360,144.42,421.71,104c.59-.39,1.43-.53,1.63-1.45h17.6c-.39,1.1-1.44,1.31-2.22,1.83Q393.5,134,348.24,163.59q-25.28,16.53-50.58,33a3,3,0,0,0-1.55,3.56c.38,1.65,1.73.79,2.6.79,8.34.08,16.69,0,25,.08a7.63,7.63,0,0,0,4.43-1.33q66.24-43.41,132.52-86.78c5.18-3.39,10.52-6.51,15.45-10.35.94.44.43,1.33.43,2,0,10.83,0,21.66,0,32.49l-97.18,63.59.17.39h97Z" transform="translate(-25.16 -102.57)" style="fill: #fefdfe"/>
    <path d="M25.28,279.74q97.93,0,195.85-.06c2.25,0,2.79.55,2.79,3q-.12,57.57-.06,115.15H205.81V314.23l-2,1.25Q141.9,356,80,396.54c-.51.34-1.33.41-1.43,1.32H60.94c.31-1.07,1.31-1.22,2-1.69q45.32-29.68,90.67-59.33,25.28-16.53,50.58-33a3,3,0,0,0,1.55-3.55c-.38-1.65-1.73-.79-2.59-.8-8.42-.07-16.84,0-25.26-.07a6.83,6.83,0,0,0-4,1.21q-73.2,47.94-146.42,95.85c-.61.4-1.4.59-1.75,1.4-.94-.44-.43-1.33-.43-2,0-10.82,0-21.65,0-32.48l97.18-63.59-.17-.39h-97Z" transform="translate(-25.16 -102.57)" style="fill: #fefdfe"/>
    <path d="M205.81,102.57v83.64c-4.76-3.1-9.25-6-13.72-8.93q-56-36.61-111.92-73.26c-.59-.39-1.43-.53-1.63-1.45Z" transform="translate(-25.16 -102.57)" style="fill: #232d65"/>
    <path d="M423.34,102.57c-.2.92-1,1.06-1.63,1.45Q360,144.43,298.23,184.8l-2.16,1.38V102.57Z" transform="translate(-25.16 -102.57)" style="fill: #232d65"/>
    <path d="M78.54,397.86c.1-.91.92-1,1.43-1.32Q141.91,356,203.85,315.48l2-1.25v83.63Z" transform="translate(-25.16 -102.57)" style="fill: #232d65"/>
    <path d="M296.07,397.86V314.22L306.51,321q57.71,37.74,115.39,75.51c.52.34,1.34.41,1.44,1.32Z" transform="translate(-25.16 -102.57)" style="fill: #232d65"/>
    <path d="M476.14,102.57c-4.93,3.84-10.27,7-15.45,10.35q-66.26,43.41-132.52,86.78a7.63,7.63,0,0,1-4.43,1.33c-8.34-.07-16.69,0-25-.08-.87,0-2.22.86-2.6-.79a3,3,0,0,1,1.55-3.56q25.33-16.42,50.58-33Q393.5,134,438.72,104.4c.78-.52,1.83-.73,2.22-1.83Z" transform="translate(-25.16 -102.57)" style="fill: #c82230"/>
    <path d="M25.74,397.86c.35-.81,1.14-1,1.75-1.4q73.22-47.94,146.42-95.85a6.83,6.83,0,0,1,4-1.21c8.42.06,16.84,0,25.26.07.86,0,2.21-.85,2.59.8a3,3,0,0,1-1.55,3.55q-25.33,16.44-50.58,33Q108.3,366.5,63,396.17c-.72.47-1.72.62-2,1.69Z" transform="translate(-25.16 -102.57)" style="fill: #c82230"/>
    <path d="M25.28,137l97.12,63.55-.06.43H25.28Z" transform="translate(-25.16 -102.57)" style="fill: #232d65"/>
    <path d="M476.6,201h-97l-.17-.39L476.6,137Z" transform="translate(-25.16 -102.57)" style="fill: #232d65"/>
    <path d="M25.28,299.43h97l.17.39L25.28,363.41Z" transform="translate(-25.16 -102.57)" style="fill: #232d65"/>
    <path d="M476.6,363.41l-97.12-63.55.06-.43H476.6Z" transform="translate(-25.16 -102.57)" style="fill: #232d65"/>
    <path d="M25.74,102.57c.37.89,1.24,1.1,1.91,1.54q72.64,47.56,145.31,95.1c.68.44,1.34.92,2.6,1.79h-2.75c-10,0-20,0-30,0a6.93,6.93,0,0,1-4-1.19Q82.84,163.2,26.86,126.6c-.51-.33-1.05-.6-1.58-.9,0-7.23,0-14.45,0-21.68C25.32,103.56,24.76,102.75,25.74,102.57Z" transform="translate(-25.16 -102.57)" style="fill: #c82230"/>
    <path d="M476.14,397.86c-.29-.87-1.11-1-1.72-1.42q-72.82-47.7-145.69-95.36l-2.42-1.65h2.77c10,0,20,0,30,0a6.81,6.81,0,0,1,4,1.2q55.67,36.47,111.35,72.86c.7.45,1.44.85,2.16,1.27,0,7.22,0,14.44,0,21.66C476.57,396.85,477.11,397.67,476.14,397.86Z" transform="translate(-25.16 -102.57)" style="fill: #c82230"/>
  </g>
</svg>
