<svg xmlns="http://www.w3.org/2000/svg" xmlns:xlink="http://www.w3.org/1999/xlink" id="Layer_1" x="0" y="0" version="1.1" viewBox="0 0 524 524" style="enable-background:new 0 0 524 524" xml:space="preserve"><style type="text/css">.st0{fill:#6366f1}.st1{fill:#f4f4f5}.st2{fill:#18181b}.st3{fill:#e0e7ff}.st4{fill:#a5b4fc}</style><rect width="524.7" height="524.7" x="-1" y=".3" class="st0"/><g><path d="M372.3,188v106.6c0,29.7-24.1,53.8-53.8,53.8c-2.1,0-4.1-0.1-6.1-0.3c0.9-4,1.4-8.1,1.4-12.3 c0-14.9-6-28.3-15.8-38.1c-8.7-8.7-20.4-14.4-33.4-15.6V188c0-29.7,24.1-53.8,53.8-53.8c14.9,0,28.3,6,38.1,15.8 C366.3,159.7,372.3,173.2,372.3,188z" class="st1"/><path d="M221.9,297.7c-9.7,9.7-15.8,23.2-15.8,38.1c0,4.3,0.5,8.5,1.5,12.6c-1.1,0.1-2.3,0.1-3.4,0.1 c-29.7,0-53.8-24.1-53.8-53.8c0-14.9,6-28.3,15.8-38.1c9.7-9.7,23.2-15.8,38.1-15.8c14.9,0,28.3,6,38.1,15.8 c6.9,6.9,12,15.7,14.3,25.5C243,282.9,230.8,288.7,221.9,297.7z" class="st2"/><path d="M312.4,348.1c-2.3,9.9-7.4,18.8-14.4,25.8c-9.7,9.7-23.2,15.8-38.1,15.8c-25.4,0-46.7-17.6-52.4-41.3 c13.5-0.8,25.7-6.7,34.7-15.7c9.7-9.7,15.8-23.2,15.8-38.1c0-4.3-0.5-8.5-1.5-12.6c1.1-0.1,2.3-0.1,3.4-0.1c1.6,0,3.2,0.1,4.7,0.2 v12.5c0,14.9,6,28.3,15.8,38.1C288.8,341.1,299.9,346.7,312.4,348.1z" class="st3"/><path d="M258,294.6c0,14.9-6,28.3-15.8,38.1c-9,9-21.2,14.8-34.7,15.7c-1-4-1.5-8.2-1.5-12.6c0-14.9,6-28.3,15.8-38.1 c9-9,21.2-14.8,34.7-15.7C257.5,286.1,258,290.3,258,294.6z" class="st4"/><path d="M313.8,335.8c0,4.2-0.5,8.4-1.4,12.3c-12.4-1.4-23.6-7-31.9-15.4c-9.7-9.7-15.8-23.2-15.8-38.1v-12.5 c13,1.1,24.7,6.9,33.4,15.6C307.7,307.5,313.8,320.9,313.8,335.8z" class="st4"/></g></svg>