<svg xmlns="http://www.w3.org/2000/svg" xmlns:xlink="http://www.w3.org/1999/xlink" id="Layer_1" x="0" y="0" version="1.1" viewBox="0 0 645.5 181.2" style="enable-background:new 0 0 645.5 181.2" xml:space="preserve"><style type="text/css">.st0{display:none}.st1,.st2,.st3{display:inline}.st2{fill:#08b6d3}.st3{fill:#07b6d3}.st4{fill:#2c84fb}.st5{fill:#fdba01}.st6{fill:#fd2c27}.st7{fill:#01ac48}.st8{fill:#fff}</style><g class="st0"><path d="M566.4,76c4.8-17.1,9.8-34.2,14.4-51.3c1.2-4.4,3-6.4,7.8-5.9c4.1,0.5,8.3,0.1,13,0.1 c-2.9,9.4-5.6,18.3-8.4,27.1c-5.6,17.8-11.3,35.5-16.8,53.3c-1,3.4-2.5,4.7-6.2,4.6c-13.2-0.1-13.2,0-17.1-12.7 c-4-13.2-8.1-26.4-12.3-39.6c-0.4-1.4-1-2.8-1.8-5.2c-1.4,4-2.5,7.1-3.4,10.2c-4.5,14.3-9,28.5-13.2,42.9c-1,3.3-2.3,4.4-5.8,4.4 c-13.4-0.1-13.5,0.1-17.5-12.9c-7-22.4-14.1-44.7-21.1-67.1c-0.4-1.4-0.8-2.8-1.4-5c6,0,11.6-0.2,17.1,0.2c1.1,0.1,2.4,2.4,2.9,3.9 c4.7,16.1,9.2,32.3,13.8,48.5c0.5,1.6,0.9,3.2,1.8,6c1.1-2.9,1.8-4.7,2.4-6.6c4.9-15.9,9.8-31.8,14.4-47.7c1-3.3,2.5-4.3,5.9-4.3 c13,0.1,12.9,0,16.6,12.6c4.1,13.7,8.2,27.4,12.4,41.1c0.4,1.2,0.9,2.4,1.4,3.6C565.7,76,566.1,76,566.4,76z" class="st1"/><path d="M821.5,31c0-4.2,0-6.8,0-9.4c0-10.7,0.2-21.3-0.1-32c-0.1-4,1.3-5.3,5.2-5c4.1,0.3,8.2,0.1,12.7,0.1 c0,39.8,0,79.1,0,118.8c-5.6,0-11.3,0-17.5,0c-0.2-3.5-0.4-7.1-0.6-11.1c-19.4,20.8-46.8,14.7-59.7,1.3c-15.4-16.1-17.1-43.7-3-61 c7.9-9.6,18-15.1,30.5-15.8C801.6,16,812.1,20.2,821.5,31z M794.4,33.8c-15.6-0.1-27.5,11.5-27.6,26.8 C766.7,77,778.1,88.9,794,88.9c15.5,0.1,27.5-11.8,27.4-27.1C821.3,45.7,809.9,33.8,794.4,33.8z" class="st1"/><path d="M382.2,103.6c-5.9,0-11.4,0-17.6,0c-0.2-3.4-0.3-6.9-0.6-11.9c-9.9,11.9-22,15.4-35.6,13.9 c-10.5-1.2-19.2-6.3-26-14.4c-15.3-18.2-14.2-45.7,2.4-62.4c16.2-16.2,38.9-16,59.1,1.2c0.2-3.8,0.4-7.2,0.6-10.8 c5.9,0,11.6,0,17.6,0C382.2,47.4,382.2,75.3,382.2,103.6z M364.2,62c0.1-16.2-11.2-28.1-26.7-28.2c-15.9-0.1-27.7,11.5-27.8,27.2 c0,16.1,11.3,27.9,27,28C352.4,89,364.1,77.5,364.2,62z" class="st1"/><path d="M673.8,103.7c-6.4,0-11.9,0-17.7,0c0-28.1,0-56,0-84.3c5.7,0,11.4,0,17.6,0c0,2.9,0,5.7,0,9.3 c1.3-0.9,2-1.3,2.5-1.8c10.1-10.4,24.2-13.3,37.6-7.8c10.9,4.4,17.8,12.9,18.4,24.2c1.1,19.9,0.3,39.9,0.3,60.2 c-5.2,0-10.9,0-17.4,0c0-2,0-3.9,0-5.9c0-15.2,0.1-30.3-0.2-45.5c-0.3-16.1-12.8-20.9-25.8-17.7c-10.1,2.5-15.2,10.6-15.3,23 c-0.1,13.5,0,27,0,40.5C673.8,99.7,673.8,101.5,673.8,103.7z" class="st1"/><path d="M924.7,75.3c4.9,2.9,9.9,5.8,14.9,8.7c-8.4,17.1-29.2,25.6-49.7,20.6c-20.3-4.9-33.3-23-33-45.9 c0.3-19.8,14.7-36.7,35.1-41.1c19.6-4.2,39.9,4.6,47.3,20.8c-4.8,2.8-9.7,5.6-15,8.7c-5-8.9-12.8-13-22.6-13 c-7.8,0-14.6,2.8-20,8.6c-9.9,10.6-8.8,29.3,2.3,39.2C892.9,90.2,912.8,92.5,924.7,75.3z" class="st1"/><path d="M1026.5,86.8c6.5-3.6,11.4-6.4,16.3-9.1c7.2,11,16,14.3,27,10.5c3.7-1.3,6.7-3.1,7-7.5c0.3-4.3-2.3-7-5.9-8.4 c-5.3-2.1-10.7-3.5-16.1-5.4c-3.8-1.3-7.6-2.5-11.2-4.3c-14.3-7.2-17.2-25.7-6-37c14.1-14.3,43.6-10.9,54.2,6.1 c0.4,0.7,0.7,1.4,1.2,2.6c-4.9,2.8-9.7,5.4-14.7,8.2c-5.1-8.2-12.3-10.9-21.2-8.8c-3.9,0.9-7.1,2.9-7.7,7.4c-0.6,4.7,2.2,7.3,6,8.7 c7.6,2.8,15.5,5,23.1,7.8c13.5,5.1,16.7,13.7,16.6,24c-0.1,10.4-7.9,19.5-19.5,22.6c-13,3.4-25.9,2.9-37.3-5.2 C1034.2,95.9,1030.9,91.3,1026.5,86.8z" class="st1"/><path d="M963.7,77.7c7.8,11.1,16.9,14.4,27.7,10.3c3.4-1.3,6.3-3.2,6.4-7.4c0.2-4.1-2-6.8-5.5-8.1 c-5.6-2.2-11.4-3.6-17-5.7c-4.7-1.7-9.5-3.3-13.6-6c-11.9-7.8-13.1-24.9-2.9-35.2c14.8-14.9,44.9-10.6,55.4,8.6 c-4.8,2.7-9.6,5.4-14.7,8.3c-5-8-12-10.8-20.7-9c-4.2,0.9-7.5,2.9-8.2,7.6c-0.7,4.6,2.2,7.2,6,8.7c5.3,2,10.8,3.4,16.1,5.3 c3.3,1.1,6.6,2.3,9.8,3.8c16.8,8.1,18.9,29,4.2,40.6c-13.3,10.4-46.4,10.2-57.3-11.7c-0.1-0.3-0.2-0.6-0.4-1.6 C953.7,83.4,958.6,80.6,963.7,77.7z" class="st1"/><path d="M261.7-9.5c0,8.6,0.1,16.3-0.1,23.9c-0.1,3.5,1,4.7,4.5,4.6c5.3-0.3,10.6-0.1,16.3-0.1c0,5.8,0,11.2,0,17.3 c-6.9,0-13.6,0-20.6,0c0,14.9-0.2,29,0.1,43.1c0.1,5.6,3.4,8,9.8,8.5c3.4,0.2,6.9,0,10.7,0c0,5.4,0,10.3,0,15.8 c-10,1.9-20.1,2.1-29.3-3.2c-7.1-4.2-9.3-11.6-9.4-19.4c-0.2-13.3-0.3-26.7,0-40c0.1-4.1-1.3-5.3-5.1-5c-3.4,0.3-6.9,0.1-10.6,0.1 c0-5.9,0-11.2,0-17c4.9,0,9.9,0,15.6,0c0-6.6,0.2-12.7-0.1-18.8c-0.2-3.5,0.9-5.1,4.3-5.9C252.3-6.5,256.5-8,261.7-9.5z" class="st1"/><path d="M462,103.6c-6,0-11.6,0-17.9,0c0-1.9,0-3.5,0-5.1c0-38,0.1-75.9-0.1-113.8c0-4.5,1.3-5.9,5.6-5.5 c3.9,0.3,7.9,0.1,12.3,0.1C462,20.9,462,62,462,103.6z" class="st1"/><path d="M422.3,19.3c0,28.3,0,56,0,84.2c-5.9,0-11.6,0-17.6,0c0-28,0-55.9,0-84.2C410.5,19.3,416.2,19.3,422.3,19.3z" class="st1"/><path d="M616.2,19.2c5.8,0,11.3,0,17.4,0c0.1,1.7,0.4,3.3,0.4,4.9c0,24.8-0.1,49.6,0.1,74.3c0,4.5-1.3,5.9-5.7,5.5 c-3.9-0.4-7.9-0.1-12.2-0.1C616.2,75.6,616.2,47.7,616.2,19.2z" class="st1"/><path d="M613.6-6.3c0-6.3,5.2-11.4,11.4-11.4c6.3,0,11.8,5.6,11.6,11.9c-0.2,6-5.8,11.3-11.8,11.2 C618.5,5.3,613.5,0.1,613.6-6.3z" class="st1"/><path d="M424.8-6c0,6.2-5.3,11.4-11.5,11.4c-6.4,0-11.7-5.6-11.5-11.9c0.2-6,5.8-11.3,11.8-11.2 C419.7-17.6,424.8-12.2,424.8-6z" class="st1"/></g><g class="st0"><path d="M-30.1,24.7c8.4-31.9,28.9-47.9,59-49.7c24-1.4,44.4,6.2,61,23.8c4.8,5.1,9.7,10.1,15.1,14.5 c13.4,10.8,31.1,11.4,45.3,1.6c5-3.4,9.1-7.7,13.3-13c-0.1,3.3-1.2,5.6-1.9,7.9c-6.4,18.5-17.3,33.2-36.6,39.1 C95.8,58,68.8,53.7,46,31.7C40.7,26.5,35.6,21,30,16.2C14.2,2.6-5.4,2.9-21.2,16.6c-2.3,2-4.3,4.3-6.5,6.5 C-28.3,23.8-28.7,25-30.1,24.7z" class="st2"/><path d="M99,79.7c-1.2,5.6-2.8,10-4.7,14.4C83.9,118,65.5,130,39.7,131.2c-14.5,0.7-28.5-1-41.5-8.1 c-8.3-4.6-15.2-10.9-21.9-17.6c-5.3-5.3-10.2-10.8-16.5-14.9c-14.3-9.4-32.5-7.6-46.3,4.5c-2.1,1.9-4,4-6,6c-0.7,0.7-1.1,1.9-3,1.8 c1.2-3.4,2.2-6.7,3.4-9.8c9.5-24.1,27.2-37.2,53-39.4c20-1.7,38.4,2.2,54.4,15c6.6,5.3,12.2,11.6,18.3,17.4 c5.9,5.7,12.2,11,20.5,13c16.6,3.9,29.7-2.3,40.7-14.3c0.7-0.7,1.3-1.5,1.9-2.2C97.4,81.7,97.9,81,99,79.7z" class="st3"/></g><g><path d="M126.7,55.6c5.9,5.1,9.9,11.4,12.2,18.7c0.4,1.1,0.9,1.9,1.8,2.6c8.6,6.9,12.6,15.9,11.8,26.8 c-1,13.7-12.1,25.4-25.6,27.2c-1.8,0.3-3.6,0.4-5.5,0.4c-7,0-14.1,0-21.1,0c-0.5,0-0.9,0-1.4-0.1c0-6.2,0-12.4,0-18.7 c7.7,0,15.4,0,23.1,0c2.4,0,4.5-0.6,6.5-1.9c4.1-2.6,6.2-7.7,5-12.6c-1.2-4.8-5.3-8.4-10.2-8.8c-0.8-0.1-1.1-0.3-1.1-1.2 c0.1-3.4-0.4-6.7-1.7-9.9c-1.5-3.8-4-6.9-7-9.6C117.9,64.4,122.3,60,126.7,55.6z" class="st4"/><path d="M57.3,125.3c-6.3-4.7-10.3-10.9-11.6-18.7c-2.1-12.4,2.1-22.5,12-30.2c0.3-0.2,0.5-0.4,0.8-0.7 c0.2-0.1,0.5-0.2,0.7-0.3c5-3.2,10.5-4.8,16.4-4.8c2.1,0,4.2,0.3,6.3,0.5c0.4,0.1,0.8,0.3,1.2,0.4c6.5,1.6,11.8,5.1,16.1,10.3 c0.5,0.6,0.5,1-0.1,1.6c-4.1,4.1-8.2,8.1-12.2,12.2c-0.5,0.5-0.7,0.6-1.1-0.1c-2.7-4.9-8.2-7.2-13.6-5.6c-6.7,2-10.1,9.9-7,16.1 c1.3,2.5,3.3,4.3,5.7,5.6c-2,1.9-3.9,3.9-5.8,5.8C62.4,120.1,59.8,122.7,57.3,125.3z" class="st5"/><path d="M81.8,71.2c-2.1-0.2-4.1-0.5-6.3-0.5c-6,0-11.4,1.6-16.4,4.8c-0.2,0.1-0.5,0.2-0.7,0.3 c1.3-4.9,3.5-9.4,6.5-13.4c7.2-9.7,16.7-15.5,28.6-17c12.3-1.6,23.3,1.8,32.8,9.8c0.2,0.1,0.3,0.3,0.4,0.4 c-4.4,4.4-8.8,8.8-13.2,13.2c-0.1-0.1-0.2-0.1-0.3-0.1c-4.9-3.8-10.4-5.4-16.5-4.9C90.8,64.4,85.9,66.8,81.8,71.2z" class="st6"/><path d="M57.3,125.3c2.5-2.6,5.1-5.2,7.6-7.7c1.9-1.9,3.9-3.9,5.8-5.8c2.4,1,5,0.9,7.5,0.9c6.9,0,13.7,0,20.6,0 c0,6.2,0,12.4,0,18.7c-3.2,0-6.3,0.1-9.5,0.1c-4.8,0-9.6,0.1-14.3,0C68.5,131.3,62.5,129.3,57.3,125.3z" class="st7"/></g><g><path d="M224.5,85c4.1,0,8.1,0,12.1,0c1,0,1.4,0.2,1.6,1.3c2.2,17.5-9.1,28.9-23.2,30.4c-13.4,1.4-23.6-3.9-30.2-15.3 c-6.8-11.7-3.7-26.9,6.8-35.8c11.3-9.6,27.7-9.7,38.5-0.1c0.9,0.8,1.1,1.2,0.1,2.1c-1.3,1.1-2.5,2.4-3.7,3.7 c-0.7,0.8-1.1,0.8-2,0.1c-7.6-6.3-18-6.6-25.9-0.8c-7.3,5.3-10.3,15.1-7.4,23.9c2.7,8.5,10.7,14.3,19.7,14.4c7,0,12.8-2.4,16.8-8.4 c1.2-1.8,1.8-4,2.2-6.1c0.2-1.1-0.1-1.3-1.1-1.3c-5.4,0-10.8,0-16.3,0.1c-1.4,0-1.7-0.4-1.6-1.7c0.1-1.7,0.1-3.4,0-5.1 c-0.1-1.1,0.4-1.4,1.4-1.4C216.4,85.1,220.5,85,224.5,85z" class="st8"/><path d="M351.8,83.2c0.3-2.9,0.3-2.9,3.2-2.9c1.6,0,3.6-0.7,4.6,0.3c0.9,0.9,0.3,2.9,0.3,4.4c0,9.9,0,19.8,0,29.7 c0,2.9-0.4,5.8-1.4,8.5c-2.4,6.2-7.2,9.5-13.6,10.4c-8.2,1.1-15.2-2.5-19-9.4c-0.6-1.2-0.6-1.8,0.8-2.3c1.5-0.5,3-1.2,4.5-1.9 c0.9-0.4,1.4-0.3,1.9,0.7c2.5,4.6,6.8,6.4,11.6,5.3c4.4-1.1,7-4.4,7.3-9.7c0.1-1.1,0-2.3,0-3.4c-0.2,0-0.4,0-0.4,0 c-4.9,5.6-14.8,4.9-20.6,0.1c-10.7-8.8-9.3-25.2,2.8-31.9c5.1-2.8,12.9-3,17.6,1.7C351.4,83,351.6,83.1,351.8,83.2z M352.5,98.2 c0-0.8,0-1.5-0.2-2.3c-0.8-4.3-2.9-7.5-7.3-8.8c-3.8-1.2-7.8,0.2-10.5,3.6c-3.4,4.2-3.4,10.7,0,14.9c3.8,4.8,10.6,5.3,14.8,1 C351.6,104.2,352.5,101.4,352.5,98.2z" class="st8"/><path d="M600.9,111.1c-1.9,2.3-3.9,4-6.5,4.9c-7.3,2.5-14.6,0-19-6.7c-5.8-8.7-3.5-21.2,4.9-27.1 c6.2-4.4,14.9-3.3,19.9,2.4c0.1,0.2,0.2,0.4,0.3,0.5c0.7-0.2,0.5-0.6,0.5-0.9c0-6.1-0.1-12.1-0.2-18.2c0-1.2,0.4-1.5,1.5-1.4 c1.6,0.1,3.7-0.7,4.8,0.3c1.1,0.9,0.3,3.1,0.3,4.7c0,14.8,0,29.6,0,44.5c0,1.4-0.3,1.9-1.7,1.7c-1.5-0.2-3.3,0.6-4.3-0.3 C600.5,114.7,601.4,112.8,600.9,111.1z M578.8,98.7c-0.1,0.7,0.2,1.9,0.4,3.1c0.9,4.5,4.6,8.3,8.9,9c4.5,0.8,9-1.3,11.2-5.4 c2.3-4.4,2.4-9,0.3-13.4c-2.8-6.1-10.2-8.1-15.5-4.4C580.4,90,578.9,93.8,578.8,98.7z" class="st8"/><path d="M301.5,79.3c10.7,0,18.9,8.1,18.9,18.7c0,10.9-8.1,19.1-18.9,19.1c-10.9,0-19-8.1-19-19 C282.5,87.3,290.6,79.3,301.5,79.3z M290.9,98c0,5.5,3.3,10.1,8.1,11.2c5.5,1.2,10.8-1.9,12.5-7.4c1.8-5.9-0.9-12.2-6.1-14.3 C298.2,84.6,290.9,89.9,290.9,98z" class="st8"/><path d="M260.2,79.3c10.8,0,19,8.1,19,18.8c0,10.8-8.2,18.9-19,18.9c-10.7,0-18.9-8.3-18.9-18.9 C241.2,87.4,249.4,79.3,260.2,79.3z M270.7,98.3c0.1-5.2-2.8-9.6-7.4-11c-5.5-1.7-11.2,1.2-13.1,6.8c-2.1,6.1,0.8,12.8,6.4,14.9 C263.6,111.4,270.6,106.2,270.7,98.3z" class="st8"/><path d="M395.6,79.3c7,0,12.9,4.1,15.8,11.1c1.3,3.1,1.3,3.1-1.8,4.4c-6.9,2.8-13.8,5.7-20.8,8.5 c-1.4,0.6-1.2,1.1-0.5,2.1c3.9,5.4,11.7,5.7,16.3,0.4c1-1.2,1.6-1.3,2.8-0.4c1.2,1,2.6,1.8,3.9,2.6c0.7,0.4,0.9,0.8,0.3,1.5 c-4.3,6.1-12.6,8.9-20.5,6.9c-7.2-1.9-12.7-8.6-13.3-16c-0.6-7.5,1.5-13.7,7.8-18.1C388.7,80.1,392,79.2,395.6,79.3z M396.4,86.6 c-5.4,0-10.3,4.8-10.3,9.8c0,0.8,0.1,1.1,1,0.7c4.9-2.1,9.8-4.1,14.7-6.1c1-0.4,1-0.9,0.4-1.6C400.6,87.4,398.4,86.7,396.4,86.6z" class="st8"/><path d="M429.5,90c-0.3-18.9,18.6-31.7,36.9-24.4c3,1.2,5.6,3.2,7.8,5.6c0.6,0.6,0.6,1-0.1,1.6c-1.1,0.9-2.1,1.9-3.1,3 c-0.6,0.6-0.9,0.7-1.5,0c-5.5-5.9-12.4-7-19.7-4.8c-7.2,2.2-11.7,7.3-13.1,14.8c-1.2,6.4-0.4,12.6,3.9,17.8 c7.4,9,21.1,9.7,29.4,1.5c0.4-0.4,0.7-0.7,1-1.1c0.5-0.6,0.9-0.6,1.4,0c0.9,1,1.9,2,2.9,2.9c1,0.8,0.8,1.4,0,2.3 c-4,4-8.7,6.6-14.3,7.6c-11.2,2-22.2-2.3-28.3-12.7C430.4,99.6,429.4,95,429.5,90z" class="st8"/><path d="M530.3,98.3c0,9.2-5.4,16.5-13.7,18.2c-13.3,2.8-23.2-7.1-22.3-19.8c0.6-9,6.7-14.8,12.9-16.4 C519.5,77,530.3,85.4,530.3,98.3z M501.1,98.2c0,0.6,0,1.3,0,2c0.3,4.7,3.6,8.9,8,10.3c4.3,1.4,9-0.1,11.9-3.7 c3.6-4.4,3.7-12,0.3-16.5c-3.7-4.9-10.5-5.9-15.3-2.4C502.5,90.4,501,93.9,501.1,98.2z" class="st8"/><path d="M560.3,110.9c-1.9,2.5-3.8,4-6.2,5.1c-8.4,3.6-17.2-1.5-18.2-10.5c-0.7-7-0.2-14-0.3-21 c-0.1-3.7,0-3.7,3.7-3.7c2.9,0,2.9,0,2.9,2.9c0,6.4,0,12.8,0.1,19.2c0.1,4.2,2.2,6.8,5.7,7.7c4.1,1.1,7.8-0.3,10-3.7 c1.5-2.3,2-4.9,2-7.6c0-5.6,0-11.3,0-16.9c0-1.3,0.3-1.6,1.6-1.6c1.3,0.1,2.6,0.1,3.9,0c0.8,0,1.2,0.2,1.2,1.1 c0,10.9,0,21.9,0,32.8c0,0.8-0.2,1.2-1.1,1.1c-1.4-0.1-2.7-0.1-4.1,0c-1.1,0.1-1.3-0.4-1.3-1.4 C560.3,113.4,560.3,112.4,560.3,110.9z" class="st8"/><path d="M365.5,88c0-8.6,0-17.3,0-25.9c0-1.4,0.4-1.8,1.7-1.7c1.6,0.1,3.3,0.1,4.9,0c1.4-0.1,1.8,0.3,1.8,1.7 c-0.1,9.5,0,18.9,0,28.4c0,7.8,0,15.6,0,23.5c0,1.6-0.5,2-1.9,1.9c-1.6-0.1-3.3-0.1-4.9,0c-1.2,0.1-1.6-0.3-1.6-1.6 C365.5,105.5,365.5,96.8,365.5,88z" class="st8"/><path d="M482.1,90.3c0-8,0-16.1,0-24.1c0-1.3,0.4-1.6,1.6-1.5c1.6,0.2,3.7-0.7,4.8,0.3c1.1,1,0.4,3.2,0.4,4.9 c0,14.7,0,29.3,0,44c0,1.5-0.3,2.2-1.9,2c-1.5-0.2-3.6,0.7-4.5-0.4c-0.9-0.9-0.2-2.9-0.3-4.4C482.1,104.1,482.1,97.2,482.1,90.3z" class="st8"/></g></svg>