<?xml version="1.0" encoding="utf-8"?>
<!-- Generator: Adobe Illustrator 23.0.3, SVG Export Plug-In . SVG Version: 6.00 Build 0)  -->
<svg version="1.1" id="Layer_1" xmlns="http://www.w3.org/2000/svg" xmlns:xlink="http://www.w3.org/1999/xlink" x="0px" y="0px"
	 viewBox="0 0 888 288" style="enable-background:new 0 0 888 288;" xml:space="preserve">
<style type="text/css">
	.st0{display:none;}
	.st1{display:inline;fill:#C2002F;}
	.st2{display:inline;fill:#DC0031;}
	.st3{display:inline;fill:#FEFDFE;}
	.st4{display:inline;fill:#DC0132;}
	.st5{display:inline;fill:#C20130;}
	.st6{fill:#261D1E;}
	.st7{fill:#FDFDFD;}
	.st8{fill:#ED3631;}
	.st9{display:inline;}
	.st10{display:inline;fill:#08B6D3;}
	.st11{display:inline;fill:#07B6D3;}
	.st12{display:inline;fill:#2C84FB;}
	.st13{display:inline;fill:#FDBA01;}
	.st14{display:inline;fill:#FD2C27;}
	.st15{display:inline;fill:#01AC48;}
	.st16{display:inline;fill:#60656B;}
</style>
<g class="st0">
	<path class="st1" d="M119.6,54.8c0.4-0.3,0.7,0,1.1,0.1c20.1,7.2,40.2,14.3,60.3,21.5c5.9,2.1,11.7,4.2,17.6,6.2
		c0.8,0.3,0.9,0.6,0.8,1.4c-0.4,3.3-0.8,6.6-1.2,9.9c-0.4,3.4-0.8,6.8-1.2,10.2c-0.4,3.3-0.8,6.7-1.1,10c-0.4,3.3-0.8,6.7-1.2,10.1
		c-0.3,2.8-0.6,5.6-1,8.4c-0.4,3.4-0.8,6.8-1.2,10.1c-0.4,3.3-0.8,6.6-1.1,10c-0.4,3.3-0.8,6.6-1.1,10c-0.4,3.4-0.8,6.7-1.2,10.1
		c-0.4,3.4-0.8,6.8-1.2,10.1c-0.2,1.6-0.4,3.2-0.5,4.8c-0.1,0.7-0.4,0.9-0.9,1.2c-9.1,5.1-18.3,10.1-27.4,15.2
		c-12.8,7.1-25.6,14.2-38.4,21.3c-0.3,0.2-0.6,0.6-1,0.3c0.3-0.4,0.2-0.9,0.2-1.3c0-21.3,0-42.7,0-64c0.3,0,0.6,0,0.9,0
		c6.4,0,12.8,0,19.2,0c0.7,0,1,0.2,1.3,0.9c3.1,7.8,6.2,15.5,9.3,23.3c0.3,0.6,0.6,0.9,1.3,0.9c5.6,0,11.1,0,16.6,0c1,0,1,0,0.6-0.9
		c-14.8-33.2-29.5-66.4-44.3-99.6c-1.6-3.7-3.3-7.3-4.9-10.9c0-5.9,0-11.8,0-17.7C119.8,55.6,119.9,55.2,119.6,54.8z"/>
	<path class="st2" d="M119.8,160.2c0,21.3,0,42.7,0,64c0,0.4,0.1,0.9-0.2,1.3c-4.4-2.4-8.8-4.9-13.2-7.3
		c-17.7-9.8-35.4-19.6-53.1-29.4c-0.7-0.4-1-0.7-1.1-1.5c-0.7-6.5-1.5-13.1-2.2-19.6c-0.7-6.4-1.5-12.8-2.2-19.3
		c-0.7-5.9-1.3-11.8-2-17.7c-0.7-6.4-1.5-12.9-2.2-19.3c-0.7-5.9-1.4-11.8-2-17.7c-0.4-3.3-0.7-6.5-1.1-9.8
		c-0.1-0.7,0.1-0.9,0.7-1.1C66,73.9,90.9,65,115.8,56.1c1.3-0.5,2.5-0.9,3.8-1.3c0.3,0.3,0.2,0.8,0.2,1.2c0,5.9,0,11.8,0,17.7
		c-0.1,0.2-0.3,0.5-0.4,0.7c-15.5,34.7-31,69.5-46.5,104.2c-0.9,2.1-1.9,4.3-2.9,6.5c0.4,0,0.8,0,1.1,0c5.5,0,11,0,16.5,0
		c0.8,0,1.1-0.3,1.4-1c3.1-7.8,6.2-15.5,9.3-23.3c0.3-0.6,0.6-0.8,1.2-0.8c6.4,0,12.8,0,19.2,0C119.1,160.1,119.4,160.2,119.8,160.2
		z"/>
	<path class="st3" d="M119.8,160.2c-0.3,0-0.7,0-1.1,0c-6.4,0-12.8,0-19.2,0c-0.7,0-1,0.1-1.2,0.8c-3.1,7.8-6.2,15.5-9.3,23.3
		c-0.3,0.7-0.6,1-1.4,1c-5.5,0-11,0-16.5,0c-0.3,0-0.6,0-1.1,0c1-2.3,1.9-4.4,2.9-6.5c15.5-34.7,31-69.5,46.5-104.2
		c0.1-0.2,0.2-0.5,0.4-0.7c1.6,3.6,3.3,7.3,4.9,10.9c14.8,33.2,29.5,66.4,44.3,99.6c0.4,0.9,0.4,0.9-0.6,0.9c-5.6,0-11.1,0-16.6,0
		c-0.7,0-1-0.2-1.3-0.9c-3.1-7.8-6.2-15.5-9.3-23.3c-0.3-0.6-0.5-0.9-1.3-0.9c-6.4,0-12.8,0-19.2,0
		C120.4,160.1,120.1,160.2,119.8,160.2z M119.8,144.7c4.5,0,9.1,0,13.6,0c0.7,0,0.9-0.1,0.6-0.9c-4.6-11.1-9.2-22.2-13.9-33.3
		c-0.1-0.2-0.1-0.5-0.3-0.6c-0.3,0.2-0.3,0.5-0.4,0.7c-3.1,7.5-6.3,15-9.4,22.5c-1.5,3.6-3,7.1-4.4,10.7c-0.1,0.3-0.5,0.8,0.3,0.8
		C110.6,144.8,115.2,144.8,119.8,144.7z"/>
	<path class="st4" d="M119.8,144.7c-4.6,0-9.3,0-13.9,0c-0.8,0-0.5-0.4-0.3-0.8c1.5-3.6,2.9-7.1,4.4-10.7c3.1-7.5,6.3-15,9.4-22.5
		c0.1-0.3,0.1-0.6,0.4-0.7C119.8,121.6,119.8,133.2,119.8,144.7z"/>
	<path class="st5" d="M119.8,144.7c0-11.6,0-23.1,0-34.7c0.3,0.1,0.3,0.4,0.3,0.6c4.6,11.1,9.2,22.2,13.9,33.3
		c0.3,0.8,0.1,0.9-0.6,0.9C128.9,144.8,124.3,144.8,119.8,144.7z"/>
</g>
<g>
	<path class="st6" d="M129.6,275.7c-7.9,0-15.1-0.4-22.1-1.9c-2.7-0.6-4.3-1.7-5.1-4.6c-1.8-6.6-4-13-6.1-19.5
		c-0.5-1.5-0.5-3.2-3-3.1c-7.6,0.3-14.3-2.8-20.9-6.1c-1.6-0.8-3.2-2-4.9-2.4c-8.3-1.6-10.4-7.2-9.5-14.7c0.5-4.5-1.3-7.6-4.6-10.8
		c-37.8-37.2-36.6-99.3,2.5-135.2c2-1.8,2.9-3.6,3.2-6.3c0.6-5.9,2.2-11.5,7.6-15c0.7-0.4,1.3-1.1,1.5-1.8
		c2.4-7.8,8.7-11.9,15.1-15.8c14.7-8.9,30.2-14,47.8-12.8c21.8,1.5,43.2,20.5,45,41.8c0.8,9.7,5.9,15.8,11.1,22.4
		c18.8,24,23.2,50.9,16.3,79.9c-1.7,7.2-4.4,14.2-8,20.8c-1.1,2.1-0.8,2.9,0.8,4.4c6.7,6.7,9.5,23,5.8,31.8
		c-1.8,4.3-4.6,6.9-9.3,7.2c-5.7,0.3-11.4,1.8-16.5-2.8c-2.6-2.3-10,1.3-12.7,3.4c-6.3,4.8-3.2,10.1-2.2,15.5
		c1.3,7.1,1.5,11.2-6.7,12.6c-2.5,0.4-2.3,2.1-2,3.7c0.9,4.8-2,6.7-5.9,7.7C140.8,275.6,134.8,275.1,129.6,275.7z M165.2,52.9
		c-3.3-5.7-7.7-10.3-12.5-13.2c-15.4-9.5-31.7-13.1-48.1-1.8c-3.9,2.7-8,5.3-11.2,8.7c-2.5,2.7-6.7,5.2-5.4,10c1,3.8,1,7.6,0.1,11.4
		c-1.9,8-3.1,16-0.1,24.1c1,2.9,0.1,4.8-3.1,5.4c-3,0.7-4.8,0.7-5.7-3.2c-1.4-5.9-4.4-7.8-9.2-7c-4.6,0.8-8.6,5.2-9.1,9.8
		c-0.5,4.2,0.6,7.9,2.8,11.7c3.3,5.8,8.8,7.8,14.5,4.5c1-0.6,2.2-2.1,3.4-0.5c0.9,1.3-0.1,2.3-1.1,3.4c-2.8,3.1-3.5,6.4-1.1,10.2
		c0.9,1.4,1.1,3.1,1.6,4.7c5.4,18.5,19.6,21.7,34.5,15.5c-5-4.4-11.2-7.8-14.2-14.1c-0.9-1.9-4.1-4.2-1.6-6.2
		c0.8-0.7,3.2,2.8,4.5,4.8c12.1,18.7,34.1,22.3,50.6,8.6c6.4-5.3,10.6-12,13.6-19.6c0.7-1.8,0.7-3.3,0-5c-1.9,0.8-2.9,2.2-4.1,3.3
		c-2.8,2.4-5.6,5.1-9.6,5.7c-1.5,0.2-2.9,0.1-2.7-1.8c0.2-1.3-2.1-3.1,0.3-3.7c5.3-1.5,10.1-5.2,15.1-5.9c3.7-0.6,3.8-2.4,4.4-4.2
		c3.7-11.8,2.1-24,1.8-36.1c-0.2-8.1-6.6-14.3-12.8-14.4c-1.6,0-4.3,1.7-4.6-0.8c-0.3-2.3,2.6-3.1,4.5-3.8
		C161.5,52.9,163,53.1,165.2,52.9z M129.3,270.4c2.9,0.2,6.1,0.1,8.8-0.3c2.1-0.4,4.6,0.6,7.3-1.6c3.6-3,1.4-5.4,1.3-8
		c-0.4-16.1-1.6-32.2-2.8-48.3c-0.3-4.4-1.8-5.7-5.4-6c-14.2-1.3-28.2,0.1-42.2,2.5c-1.5,0.3-3.3,0.8-2.4,2.8
		c1.3,2.7,0.6,5.4,1.1,8.1c2.1,11.1,4.9,22,6.9,33.1c2.4,13.6,3.9,15.4,17.5,17.1C122.6,270.1,125.9,270.2,129.3,270.4z M55.5,205.7
		c0.8-2.9,0.2-6-0.4-9c-2-10.4-7-19.7-9.9-29.8c-1.3-4.6-0.1-7.4,4.2-9.8c8.9-4.9,17.4-10.4,26.2-15.5c3.3-1.9,3.8-4.3,1.8-7.4
		c-1.7-2.7-3.4-5.4-3.8-8.6c-0.3-2.7-1.8-3.9-4.2-4.9c-11-4.7-17.2-21.9-11.7-32.6c0.6-1.2,1.7-2.6,0.6-3.5
		c-1.4-1.1-2.1,0.9-3.2,1.5c-0.5,0.3-0.9,0.9-1.4,1.4c-29.6,31.5-30.1,84.8-1,116.9C53.3,204.9,53.7,206,55.5,205.7z M171.2,197.3
		c5-1.6,8.9-3.3,13.1-4.2c3.2-0.6,4.9-2.1,6.3-4.9c16.2-33,13.9-64.6-7-94.8c-1.4-1.9-2.5-4.3-4.9-5.3c-0.9,0.4-0.9,1.1-0.9,1.7
		c-0.7,14.6-3.1,28.8-10.5,41.7c-1.4,2.5-0.6,4.4,1.3,6.1c3.7,3.3,7.3,6.8,11.2,9.9c4.1,3.3,4.8,7.3,3.4,12.1
		c-1.6,5.2-3.2,10.5-4.9,15.7C176,182.6,173.7,189.6,171.2,197.3z M199.6,219.1c-1.2-5.8-1.9-11.8-4.3-17.3
		c-1.7-3.8-5.4-5.9-8.9-4.2c-4.6,2.2-9.5,3.6-13.9,6c-1.4,0.8-2.8,1.4-2.4,3.8c0.9,4.9,1.4,9.8,1.9,14.7c0.4,3.9,1.6,5.9,6,5.1
		c3.1-0.6,6.3-0.3,9.4-0.5c1-0.1,2.1-0.1,2.7,0.8c1.7,2.8,2.8,3.3,4.8,1.4C197.6,226.3,199.9,223.3,199.6,219.1z M133.6,160.3
		c-6.2-3.3-11.6-6.5-17.7-8.1c-4.1-1.1-6.4,0.3-7,4.6c-0.9,6.3,0.5,12.2,2.7,18.1c1.2,3.3,3,4,6.1,3.1c5.2-1.6,9.6-4.6,13.6-8.1
		c3.6-3.2,3.5-4.5-0.9-6.6c-0.3-0.2-1.1-0.2-0.6-1C130.8,161.7,132,161.2,133.6,160.3z M149.6,186.7c0-3.5,0-6.2,0-8.8
		c0-7.2-6.4-11.5-13.2-8.7c-1.9,0.8-2.3,2.2-1.1,4c4.7,6.6,7.4,14.1,10.5,21.4c0.9,2.2,1.9,2.5,3.6,1c5.6-4.7,8.4-11.3,12-17.4
		c0.8-1.3,1.5-3-0.2-4.5c-1.9-1.5-3.9-2.5-6.4-2.1c-2.8,0.6-1.7,2.8-1.9,4.4C152.5,179.6,153.4,183.4,149.6,186.7z M142,198.5
		c0.3-0.3,0.6-0.7,0.9-1c-2.7-5.6-5.1-11.4-8.1-16.9c-3.4-6.2-4.7-6.4-9.1-2.2c-1.6,1.6-3,3.2-4.8,4.6c-1.5,1.1-3.4,3.7,0.2,5.4
		C128.2,191.7,135.1,195.1,142,198.5z M155.4,168.5c5.9,0.1,6.7-0.5,6.4-6.5c-0.1-2.8-0.6-5.6-1.2-8.4c-0.5-2.3-2.1-4-4.7-3.4
		c-4.1,1-7.3,3.8-10.8,6.1c-0.8,0.5-0.9,1.9-0.4,2.2c3.1,1.4,1.5,3.2,0.8,5.2c-0.6,1.7,0.2,3.2,2.4,3.5
		C150.5,167.6,152.9,168.1,155.4,168.5z M163,230.1c2.6-0.9,5.7-1.1,5.9-4.4c0.3-6-0.4-12-2.5-17.7c-0.9-2.4-2.7-2.9-4.8-2.3
		c-2.4,0.7-2.2,3-1.7,4.6C161.6,216.6,162.1,223.2,163,230.1z M148.7,252.9c0.6,2.3-1.3,5.8,3.3,5.2c3.3-0.4,6.4-0.9,5.3-5.6
		c-0.8-3.5-1.3-7.2-2.1-10.7c-0.3-1.5,0.4-4.1-2.9-3.3c-2.2,0.5-3.5,1.1-3.2,3.8C149.4,245.9,149.6,249.5,148.7,252.9z M65.8,83.4
		c0-0.6,0.1-1.3,0-1.9c-1.1-8.1,2.1-14.2,8.5-19c2.7-2.1,6.3-1.1,8.9-3.2c0.7-0.5,1.4-0.8,1.2-1.8c-0.2-0.9-0.8-1.2-1.8-1.3
		c-3.5-0.3-15.3,5.4-16.3,8.4C64.3,70.7,63.2,77,65.8,83.4z M100.5,36.9c-8.6-1-25.2,10-27.6,18.5C82.8,49.3,90.3,41.1,100.5,36.9z
		 M93.6,151.2c1.7,4.1,5.6,4.6,9,5.9c1.9,0.7,2.6,0,3.1-1.8c0.6-2.1-0.5-2.6-2.2-2.8C100.2,152.1,96.9,152.4,93.6,151.2z
		 M130.6,152.7c6.4,4.2,9.8,3.8,14.6-2C140.1,152.3,135.5,153.1,130.6,152.7z M136,162.8c1.1,0.8,0,4.1,2.6,3.9
		c2-0.2,3.6-2.3,3.5-4.7c-0.1-2-1.3-3.5-3.4-3.5C136.6,158.6,135.5,159.9,136,162.8z"/>
	<path class="st7" d="M165.2,52.9c-2.2,0.2-3.6-0.1-4.8,0.4c-1.9,0.8-4.9,1.5-4.5,3.8c0.4,2.5,3,0.8,4.6,0.8
		c6.3,0.1,12.6,6.3,12.8,14.4c0.3,12,1.9,24.2-1.8,36c-0.6,1.8-0.7,3.6-4.4,4.2c-5.1,0.8-9.8,4.4-15.1,5.9c-2.4,0.7-0.1,2.4-0.3,3.7
		c-0.3,1.9,1.1,2,2.7,1.8c4-0.6,6.8-3.3,9.6-5.7c1.2-1.1,2.2-2.4,4.1-3.3c0.7,1.7,0.7,3.3,0,5c-3,7.6-7.1,14.3-13.6,19.6
		c-16.5,13.7-38.4,10.1-50.6-8.6c-1.3-2-3.7-5.5-4.5-4.8c-2.5,2,0.7,4.4,1.6,6.2c3,6.3,9.2,9.7,14.2,14.1
		c-14.9,6.2-29.1,3-34.5-15.5c-0.5-1.6-0.7-3.4-1.6-4.7c-2.4-3.8-1.7-7.1,1.1-10.2c1-1.1,2-2.1,1.1-3.4c-1.2-1.6-2.4-0.1-3.4,0.5
		c-5.7,3.3-11.2,1.3-14.5-4.5c-2.1-3.8-3.2-7.4-2.8-11.7c0.5-4.7,4.5-9,9.1-9.8c4.7-0.8,7.8,1.1,9.2,7c0.9,3.8,2.8,3.8,5.7,3.2
		c3.2-0.7,4.2-2.6,3.1-5.4C84.9,84,86,76,88,68c0.9-3.8,1-7.5-0.1-11.4c-1.3-4.8,2.9-7.3,5.4-10c3.2-3.4,7.3-6,11.2-8.7
		c16.4-11.3,32.7-7.7,48.1,1.8C157.5,42.6,161.9,47.2,165.2,52.9z M152.5,129.3l-0.1-0.2l-0.2,0.1c-2,0.1-4,0.4-6,0.3
		c-8-0.4-16.6,1-21.5-7.8c-0.5-0.9-1.5-1-2.2-0.4c-1.1,1-0.5,2,0.2,3.1c5.4,8.5,17.1,12.5,26.5,9
		C150.9,132.7,153.1,132.1,152.5,129.3z M146.2,74.8c0,2.8-0.9,5.3,0.7,8.2c3.3,6.1,6.9,11.8,11.9,16.6c2.4,2.3,3.1,5.3-0.1,7.1
		c-4.2,2.4-8.5,4.6-13.4,5.1c-2.4,0.3-4.8,0.1-5.6-2.9c-0.3-1-0.1-2.7-1.8-2.4c-1.8,0.3-1.6,2-1.4,3.3c0.4,3.2,1.8,5.2,5.6,5.4
		c7.8,0.5,14.2-2.8,20.4-6.9c3.6-2.4,4.1-6.9,1.5-9.7C157.4,91.4,150.7,84.1,146.2,74.8z M126.2,71.5c-1.2,2.7-0.1,4.6,0.6,6.4
		c2.9,7.5,2.9,7.5-5.4,7.2c-1,0-2.1-0.3-2.6,0.8c-0.6,1.2-0.1,2.2,0.9,3.1c2.9,2.7,10.9,2.3,13.5-0.7c1.2-1.4,2-3.3,0.7-4.5
		C130.2,80.5,128.9,75.8,126.2,71.5z M124.9,115.6c2.3,2.3,2.8,4.5,5.2,5.4c5.1,2.1,10.3,3.7,15.8,3.4c1.4-0.1,4,1.1,3.7-1.6
		c-0.2-1.5,0.3-4.7-3.7-4C139.2,120,132.8,117.7,124.9,115.6z M116.7,56c-6.5,0.1-12.7,5.4-13.3,11.2c-0.1,1.1-0.5,2.5,1,2.9
		c1.3,0.3,1.4-1.2,1.8-1.9c3-5.1,6.9-8.6,13.3-7.8c1,0.1,2,0.3,2.3-1.1c0.2-1.1-0.4-1.9-1.1-2.6C119.5,55.3,118,55.8,116.7,56z
		 M163.3,88.2c6.5,0.1,9.3-3.9,6.9-9c-0.4-0.9-0.8-1.8-1.3-2.7c-0.6-1-0.7-3.1-2.4-2.4c-1.6,0.7-1.2,2.8-0.3,3.8
		c3.5,4.1,1.7,5.1-2.6,5.1c-1.4,0-3.7,0.2-3.7,1.9C159.7,87.3,161.8,88.1,163.3,88.2z M65.3,95.7c2.8-0.5,2.8-0.5,3.5,4.1
		c5.4-7.8,6.1,1.1,9,2.8c0.5-6-1.5-9.7-5.8-11C68.4,90.6,66.6,92.5,65.3,95.7z"/>
	<path class="st7" d="M129.3,270.4c-3.3-0.2-6.7-0.3-9.9-0.7c-13.6-1.7-15.1-3.5-17.5-17.1c-2-11.1-4.8-22-6.9-33.1
		c-0.5-2.6,0.2-5.4-1.1-8.1c-0.9-1.9,0.9-2.5,2.4-2.8c14-2.4,28-3.8,42.2-2.5c3.6,0.3,5.1,1.6,5.4,6c1.1,16.1,2.3,32.2,2.8,48.3
		c0.1,2.7,2.3,5-1.3,8c-2.6,2.2-5.1,1.2-7.3,1.6C135.4,270.5,132.2,270.6,129.3,270.4z"/>
	<path class="st8" d="M55.5,205.7c-1.7,0.4-2.2-0.7-2.8-1.4c-29-32-28.6-85.3,1-116.9c0.5-0.5,0.8-1.1,1.4-1.4
		c1-0.6,1.8-2.7,3.2-1.5c1.1,0.9,0.1,2.3-0.6,3.5c-5.5,10.7,0.6,27.9,11.7,32.6c2.4,1,3.9,2.3,4.2,4.9c0.4,3.2,2.1,5.9,3.8,8.6
		c2,3.2,1.5,5.5-1.8,7.4c-8.7,5.1-17.3,10.6-26.2,15.5c-4.3,2.4-5.5,5.3-4.2,9.8c2.9,10.1,7.9,19.4,9.9,29.8
		C55.7,199.7,56.2,202.7,55.5,205.7z"/>
	<path class="st8" d="M171.2,197.3c2.5-7.8,4.8-14.8,7.1-21.8c1.7-5.2,3.3-10.5,4.9-15.7c1.5-4.7,0.7-8.7-3.4-12.1
		c-3.9-3.1-7.5-6.6-11.2-9.9c-1.9-1.7-2.8-3.6-1.3-6.1c7.4-12.9,9.8-27.1,10.5-41.7c0-0.6,0-1.3,0.9-1.7c2.4,1,3.5,3.3,4.9,5.3
		c21,30.2,23.2,61.8,7,94.8c-1.4,2.8-3.2,4.2-6.3,4.9C180.1,194,176.2,195.7,171.2,197.3z"/>
	<path class="st7" d="M199.6,219.1c0.3,4.2-1.9,7.2-4.7,9.9c-1.9,1.8-3.1,1.4-4.8-1.4c-0.6-0.9-1.7-0.9-2.7-0.8
		c-3.1,0.1-6.3-0.1-9.4,0.5c-4.4,0.8-5.7-1.3-6-5.1c-0.4-4.9-1-9.8-1.9-14.7c-0.4-2.3,1-3,2.4-3.8c4.4-2.4,9.4-3.8,13.9-6
		c3.5-1.7,7.2,0.5,8.9,4.2C197.7,207.3,198.4,213.3,199.6,219.1z M185.3,204.4c-3.9,0.4-7.4,1.4-10.8,5.9
		C179.4,208.8,182.6,207.1,185.3,204.4z M188.8,212.4c-3.6-1.5-7.2-2.4-10.4,0.8C181.8,213,185.3,212.7,188.8,212.4z M189.2,219
		c0-0.4-0.1-0.9-0.1-1.3c-3.5,1.8-7.2-2.3-11.9,1.3C182,219,185.6,219,189.2,219z"/>
	<path class="st8" d="M133.6,160.3c-1.6,0.8-2.8,1.4-3.9,1.9c-0.4,0.9,0.3,0.9,0.6,1c4.4,2.1,4.6,3.4,0.9,6.6
		c-4.1,3.5-8.4,6.5-13.6,8.1c-3.1,0.9-4.8,0.2-6.1-3.1c-2.2-5.9-3.6-11.8-2.7-18.1c0.6-4.2,2.9-5.6,7-4.6
		C122.1,153.8,127.4,157.1,133.6,160.3z"/>
	<path class="st7" d="M149.6,186.7c3.8-3.3,2.9-7.1,3.3-10.6c0.2-1.6-0.9-3.9,1.9-4.4c2.5-0.5,4.5,0.5,6.4,2.1
		c1.8,1.5,1,3.1,0.2,4.5c-3.6,6.1-6.4,12.7-12,17.4c-1.7,1.4-2.7,1.1-3.6-1c-3.1-7.3-5.8-14.9-10.5-21.4c-1.3-1.8-0.8-3.2,1.1-4
		c6.8-2.8,13.2,1.4,13.2,8.7C149.6,180.5,149.6,183.2,149.6,186.7z"/>
	<path class="st7" d="M142,198.5c-6.9-3.4-13.9-6.8-20.8-10.1c-3.6-1.7-1.7-4.3-0.2-5.4c1.9-1.4,3.3-3,4.8-4.6
		c4.3-4.2,5.7-4,9.1,2.2c3,5.5,5.4,11.3,8.1,16.9C142.6,197.8,142.4,198.2,142,198.5z"/>
	<path class="st8" d="M155.4,168.5c-2.4-0.4-4.9-0.9-7.4-1.2c-2.2-0.3-3-1.8-2.4-3.5c0.7-2,2.3-3.8-0.8-5.2
		c-0.6-0.3-0.4-1.7,0.4-2.2c3.5-2.3,6.6-5.1,10.8-6.1c2.6-0.6,4.2,1,4.7,3.4c0.6,2.7,1.1,5.6,1.2,8.4
		C162,168,161.3,168.6,155.4,168.5z"/>
	<path class="st7" d="M163,230.1c-0.9-6.9-1.4-13.4-3.1-19.8c-0.4-1.6-0.6-3.9,1.7-4.6c2.1-0.6,3.9,0,4.8,2.3
		c2.1,5.7,2.8,11.6,2.5,17.7C168.7,229,165.7,229.2,163,230.1z"/>
	<path class="st7" d="M148.7,252.9c0.9-3.3,0.8-6.9,0.4-10.5c-0.3-2.7,1.1-3.3,3.2-3.8c3.3-0.8,2.6,1.8,2.9,3.3
		c0.8,3.6,1.2,7.2,2.1,10.7c1.1,4.7-2,5.2-5.3,5.6C147.4,258.7,149.3,255.1,148.7,252.9z"/>
	<path class="st7" d="M65.8,83.4c-2.6-6.4-1.6-12.6,0.5-18.7c1-3,12.8-8.7,16.3-8.4c1,0.1,1.6,0.4,1.8,1.3c0.2,1-0.5,1.2-1.2,1.8
		c-2.7,2-6.2,1.1-8.9,3.2c-6.4,4.8-9.6,10.9-8.5,19C65.9,82.1,65.8,82.8,65.8,83.4z"/>
	<path class="st7" d="M100.5,36.9c-10.2,4.2-17.8,12.4-27.6,18.5C75.3,46.9,91.9,35.9,100.5,36.9z"/>
	<path class="st7" d="M93.6,151.2c3.3,1.1,6.6,0.9,9.9,1.2c1.7,0.2,2.8,0.7,2.2,2.8c-0.5,1.8-1.2,2.5-3.1,1.8
		C99.2,155.9,95.3,155.3,93.6,151.2z"/>
	<path class="st7" d="M130.6,152.7c4.9,0.4,9.6-0.4,14.6-2C140.3,156.5,136.9,156.9,130.6,152.7z"/>
	<path class="st8" d="M136,162.8c-0.5-2.8,0.6-4.2,2.7-4.2c2.1,0,3.3,1.5,3.4,3.5c0.1,2.4-1.5,4.5-3.5,4.7
		C135.9,166.9,137,163.6,136,162.8z"/>
	<path class="st6" d="M146.2,74.8c4.5,9.3,11.2,16.5,17.9,23.8c2.6,2.8,2.1,7.3-1.5,9.7c-6.1,4.1-12.5,7.4-20.4,6.9
		c-3.9-0.2-5.2-2.2-5.6-5.4c-0.2-1.3-0.4-2.9,1.4-3.3c1.7-0.3,1.5,1.4,1.8,2.4c0.8,3,3.1,3.1,5.6,2.9c4.9-0.5,9.3-2.8,13.4-5.1
		c3.3-1.8,2.5-4.9,0.1-7.1c-5-4.8-8.7-10.5-11.9-16.6C145.3,80.1,146.2,77.6,146.2,74.8z"/>
	<path class="st6" d="M152.5,129.3c0.6,2.8-1.6,3.3-3.3,4c-9.4,3.5-21-0.5-26.5-9c-0.7-1.1-1.2-2.1-0.2-3.1c0.7-0.6,1.7-0.5,2.2,0.4
		c4.9,8.8,13.5,7.5,21.5,7.9c2,0.1,4-0.2,6-0.3C152.1,129.3,152.5,129.3,152.5,129.3z"/>
	<path class="st6" d="M126.2,71.5c2.7,4.3,4.1,9,7.6,12.3c1.3,1.2,0.5,3.1-0.7,4.5c-2.6,2.9-10.6,3.3-13.4,0.7
		c-1-0.9-1.4-1.9-0.9-3.1c0.5-1.2,1.6-0.9,2.6-0.8c8.4,0.3,8.3,0.3,5.4-7.2C126.1,76.1,125,74.2,126.2,71.5z"/>
	<path class="st6" d="M124.9,115.6c7.8,2.1,14.3,4.4,21,3.3c4-0.7,3.5,2.5,3.7,4c0.3,2.6-2.3,1.5-3.7,1.6
		c-5.6,0.3-10.7-1.3-15.8-3.4C127.8,120.1,127.2,117.9,124.9,115.6z"/>
	<path class="st6" d="M116.7,56c1.2-0.2,2.7-0.7,4,0.6c0.7,0.7,1.3,1.5,1.1,2.6c-0.3,1.4-1.3,1.2-2.3,1.1
		c-6.4-0.8-10.3,2.7-13.3,7.8c-0.4,0.8-0.5,2.3-1.8,1.9c-1.5-0.4-1.1-1.8-1-2.9C104,61.4,110.3,56.1,116.7,56z"/>
	<path class="st6" d="M163.3,88.2c-1.5-0.1-3.6-0.9-3.5-3.2c0-1.8,2.3-1.9,3.7-1.9c4.4,0,6.2-0.9,2.6-5.1c-0.9-1.1-1.3-3.1,0.3-3.8
		c1.7-0.8,1.8,1.4,2.4,2.4c0.5,0.8,0.9,1.8,1.3,2.7C172.5,84.3,169.8,88.3,163.3,88.2z"/>
	<path class="st6" d="M65.3,95.7c1.3-3.2,3.2-5.1,6.8-4c4.2,1.2,6.3,5,5.8,11c-2.9-1.7-3.6-10.6-9-2.8
		C68.1,95.2,68.1,95.2,65.3,95.7z"/>
	<path class="st8" d="M152.5,129.3c0,0-0.4-0.1-0.4-0.1s0.2-0.1,0.2-0.1L152.5,129.3z"/>
	<path class="st6" d="M185.3,204.4c-2.7,2.7-5.9,4.4-10.8,5.9C177.9,205.8,181.4,204.8,185.3,204.4z"/>
	<path class="st6" d="M188.8,212.4c-3.5,0.3-6.9,0.5-10.4,0.8C181.5,210.1,185.1,211,188.8,212.4z"/>
	<path class="st6" d="M189.2,219c-3.6,0-7.2,0-12,0c4.6-3.6,8.4,0.5,11.9-1.3C189.2,218.1,189.2,218.5,189.2,219z"/>
</g>
<image style="display:none;overflow:visible;enable-background:new    ;" width="2560" height="1069" xlink:href="51C5DEC4.jpeg"  transform="matrix(1 0 0 1 -1054 -175)">
</image>
<image style="display:none;overflow:visible;enable-background:new    ;" width="800" height="206" xlink:href="51C5DEC4.jpeg"  transform="matrix(1 0 0 1 -174 257)">
</image>
<image style="display:none;overflow:visible;enable-background:new    ;" width="2561" height="690" xlink:href="51C5DEC4.jpeg"  transform="matrix(0.9986 0 0 0.9986 -422.8997 1310.4307)">
</image>
<image style="display:none;overflow:visible;enable-background:new    ;" width="2560" height="931" xlink:href="51C5DECC.png"  transform="matrix(1 0 0 1 55.1593 -1011.1769)">
</image>
<image style="display:none;overflow:visible;enable-background:new    ;" width="741" height="361" xlink:href="51C5DECC.jpeg"  transform="matrix(0.9972 0 0 0.9972 641.3713 726.2521)">
</image>
<image style="display:none;overflow:visible;enable-background:new    ;" width="2561" height="691" xlink:href="51C5DECC.jpeg"  transform="matrix(0.9986 0 0 0.9986 -1186.5938 571.7167)">
</image>
<image style="display:none;overflow:visible;enable-background:new    ;" width="720" height="340" xlink:href="51C5DECC.jpeg"  transform="matrix(1 0 0 1 -3073 601)">
</image>
<g class="st0">
	<path class="st9" d="M527.7,135.6c4.8-17.1,9.8-34.2,14.4-51.3c1.2-4.4,3-6.4,7.8-5.9c4.1,0.5,8.3,0.1,13,0.1
		c-2.9,9.4-5.6,18.3-8.4,27.1c-5.6,17.8-11.3,35.5-16.8,53.3c-1,3.4-2.5,4.7-6.2,4.6c-13.2-0.1-13.2,0-17.1-12.7
		c-4-13.2-8.1-26.4-12.3-39.6c-0.4-1.4-1-2.8-1.8-5.2c-1.4,4-2.5,7.1-3.4,10.2c-4.5,14.3-9,28.5-13.2,42.9c-1,3.3-2.4,4.4-5.9,4.4
		c-13.4-0.1-13.5,0.1-17.5-12.9c-7-22.4-14.1-44.7-21.1-67.1c-0.4-1.4-0.8-2.8-1.4-5c6,0,11.6-0.2,17.1,0.2c1.1,0.1,2.4,2.4,2.9,3.9
		c4.7,16.1,9.2,32.3,13.8,48.5c0.5,1.6,0.9,3.2,1.8,6c1.1-2.9,1.8-4.7,2.4-6.6c4.9-15.9,9.8-31.8,14.4-47.7c1-3.3,2.5-4.3,5.9-4.3
		c13,0.1,12.9,0,16.6,12.6c4.1,13.7,8.2,27.4,12.4,41.1c0.4,1.2,0.9,2.4,1.4,3.6C527,135.6,527.4,135.6,527.7,135.6z"/>
	<path class="st9" d="M782.8,90.6c0-4.2,0-6.8,0-9.4c0-10.7,0.2-21.3-0.1-32c-0.1-4,1.3-5.3,5.2-5c4.1,0.3,8.2,0.1,12.7,0.1
		c0,39.8,0,79.1,0,118.8c-5.6,0-11.3,0-17.5,0c-0.2-3.5-0.4-7.1-0.6-11.1c-19.4,20.8-46.8,14.7-59.7,1.3c-15.4-16.1-17.1-43.7-3-61
		c7.9-9.6,18-15.1,30.5-15.8C762.8,75.6,773.4,79.9,782.8,90.6z M755.7,93.4c-15.6-0.1-27.5,11.5-27.6,26.8
		c-0.1,16.4,11.3,28.3,27.2,28.3c15.5,0.1,27.5-11.8,27.4-27.1C782.6,105.3,771.2,93.4,755.7,93.4z"/>
	<path class="st9" d="M343.5,163.2c-5.9,0-11.4,0-17.6,0c-0.2-3.4-0.3-6.9-0.6-11.9c-9.9,11.9-22,15.4-35.6,13.9
		c-10.5-1.2-19.2-6.3-26-14.4c-15.3-18.2-14.2-45.7,2.4-62.4c16.2-16.2,38.9-16,59.1,1.2c0.2-3.8,0.4-7.2,0.6-10.8
		c5.9,0,11.6,0,17.6,0C343.5,107,343.5,134.9,343.5,163.2z M325.5,121.6c0.1-16.2-11.2-28.1-26.7-28.2
		c-15.9-0.1-27.7,11.5-27.8,27.2c0,16.1,11.3,27.9,27,28C313.7,148.6,325.4,137.1,325.5,121.6z"/>
	<path class="st9" d="M635.1,163.3c-6.4,0-11.9,0-17.7,0c0-28.1,0-56,0-84.3c5.7,0,11.4,0,17.6,0c0,2.9,0,5.7,0,9.3
		c1.3-0.9,2-1.3,2.5-1.8c10.1-10.4,24.2-13.3,37.6-7.8c10.9,4.4,17.8,12.9,18.4,24.2c1.1,19.9,0.3,39.9,0.3,60.2
		c-5.2,0-10.9,0-17.4,0c0-2,0-3.9,0-5.9c0-15.2,0.1-30.3-0.2-45.5c-0.3-16.1-12.8-20.9-25.8-17.7c-10.1,2.5-15.2,10.6-15.3,23
		c-0.1,13.5,0,27,0,40.5C635.1,159.3,635.1,161.1,635.1,163.3z"/>
	<path class="st9" d="M886,134.9c4.9,2.9,9.9,5.8,14.9,8.7c-8.4,17.1-29.2,25.6-49.7,20.6c-20.3-4.9-33.3-23-33-45.9
		c0.3-19.8,14.7-36.7,35.1-41.1c19.6-4.2,39.9,4.6,47.3,20.8c-4.8,2.8-9.7,5.6-15,8.7c-5-8.9-12.8-13-22.6-13
		c-7.8,0-14.6,2.8-20,8.6c-9.9,10.6-8.8,29.3,2.3,39.2C854.2,149.8,874.1,152.1,886,134.9z"/>
	<path class="st9" d="M987.8,146.4c6.5-3.6,11.4-6.4,16.3-9.1c7.2,11,16,14.3,27,10.5c3.7-1.3,6.7-3.1,7-7.5c0.3-4.3-2.3-7-5.9-8.4
		c-5.3-2.1-10.7-3.5-16.1-5.4c-3.8-1.3-7.6-2.5-11.2-4.3c-14.3-7.2-17.2-25.7-6-37c14.1-14.3,43.6-10.9,54.2,6.1
		c0.4,0.7,0.7,1.4,1.2,2.6c-4.9,2.8-9.7,5.4-14.7,8.2c-5.1-8.2-12.3-10.9-21.2-8.8c-3.9,0.9-7.1,2.9-7.7,7.4c-0.5,4.7,2.2,7.3,6,8.7
		c7.6,2.8,15.5,5,23.1,7.8c13.5,5.1,16.7,13.7,16.6,24c-0.1,10.4-7.9,19.5-19.5,22.6c-13,3.4-25.9,2.9-37.3-5.2
		C995.5,155.5,992.2,151,987.8,146.4z"/>
	<path class="st9" d="M925,137.3c7.8,11.1,16.9,14.4,27.7,10.3c3.4-1.3,6.3-3.2,6.4-7.4c0.2-4.1-2-6.8-5.5-8.1
		c-5.6-2.2-11.4-3.6-17-5.7c-4.7-1.7-9.5-3.3-13.6-6c-11.9-7.8-13.1-24.9-2.9-35.2c14.8-14.9,44.9-10.6,55.4,8.7
		c-4.8,2.7-9.6,5.4-14.7,8.3c-5-8-12-10.8-20.7-9c-4.2,0.9-7.5,2.9-8.2,7.6c-0.7,4.6,2.2,7.2,6,8.7c5.3,2,10.8,3.4,16.1,5.3
		c3.3,1.1,6.6,2.3,9.8,3.8c16.8,8.1,18.9,29,4.2,40.6c-13.3,10.4-46.4,10.2-57.3-11.7c-0.1-0.3-0.2-0.6-0.4-1.6
		C915,143,919.8,140.3,925,137.3z"/>
	<path class="st9" d="M223,50.1c0,8.6,0.1,16.3-0.1,23.9c-0.1,3.5,1,4.7,4.5,4.6c5.3-0.3,10.6-0.1,16.3-0.1c0,5.8,0,11.2,0,17.3
		c-6.9,0-13.6,0-20.6,0c0,14.9-0.2,29,0.1,43.1c0.1,5.6,3.4,8,9.8,8.5c3.4,0.2,6.9,0,10.7,0c0,5.4,0,10.3,0,15.8
		c-10,1.9-20.1,2.1-29.3-3.2c-7.1-4.2-9.3-11.6-9.4-19.4c-0.2-13.3-0.3-26.7,0-40c0.1-4.1-1.3-5.3-5.1-5c-3.4,0.3-6.9,0.1-10.6,0.1
		c0-5.9,0-11.2,0-17c4.9,0,9.9,0,15.6,0c0-6.6,0.2-12.7-0.1-18.8c-0.2-3.5,0.9-5.1,4.3-5.9C213.6,53.1,217.8,51.6,223,50.1z"/>
	<path class="st9" d="M423.3,163.2c-6,0-11.6,0-17.9,0c0-1.9,0-3.5,0-5.1c0-37.9,0.1-75.9-0.1-113.8c0-4.5,1.3-5.9,5.6-5.5
		c3.9,0.3,7.9,0.1,12.3,0.1C423.3,80.5,423.3,121.6,423.3,163.2z"/>
	<path class="st9" d="M383.6,78.9c0,28.3,0,56,0,84.2c-5.9,0-11.6,0-17.6,0c0-28,0-55.9,0-84.2C371.8,78.9,377.5,78.9,383.6,78.9z"
		/>
	<path class="st9" d="M577.5,78.8c5.8,0,11.3,0,17.4,0c0.1,1.7,0.4,3.3,0.4,4.9c0,24.8-0.1,49.6,0.1,74.3c0,4.5-1.3,5.9-5.7,5.5
		c-3.9-0.4-7.9-0.1-12.2-0.1C577.5,135.2,577.5,107.3,577.5,78.8z"/>
	<path class="st9" d="M574.9,53.3c0-6.3,5.2-11.4,11.4-11.4c6.3,0,11.8,5.6,11.6,11.9c-0.2,6-5.8,11.3-11.8,11.2
		C579.8,64.9,574.8,59.7,574.9,53.3z"/>
	<path class="st9" d="M386.1,53.6c0,6.2-5.3,11.4-11.5,11.4c-6.4,0-11.7-5.6-11.5-11.9c0.2-6,5.8-11.3,11.8-11.2
		C381,42,386.1,47.4,386.1,53.6z"/>
</g>
<g class="st0">
	<path class="st10" d="M-68.8,84.3c8.5-31.9,28.9-47.9,59.1-49.6c24-1.4,44.4,6.2,61,23.8c4.8,5.1,9.7,10.1,15.1,14.5
		c13.4,10.8,31.1,11.4,45.3,1.6c5-3.4,9.1-7.7,13.3-13c-0.1,3.3-1.2,5.6-1.9,7.9c-6.4,18.5-17.3,33.2-36.6,39.1
		c-29.3,9-56.3,4.8-79.1-17.3C2,86.1-3.1,80.6-8.7,75.8c-15.8-13.5-35.4-13.3-51.1,0.4c-2.3,2-4.3,4.3-6.5,6.5
		C-67,83.4-67.4,84.6-68.8,84.3z"/>
	<path class="st11" d="M60.3,139.3c-1.2,5.6-2.8,10-4.7,14.4C45.3,177.5,26.8,189.5,1,190.7c-14.5,0.7-28.5-1-41.5-8.1
		c-8.3-4.6-15.2-10.9-21.9-17.6c-5.3-5.3-10.2-10.8-16.5-14.9c-14.3-9.4-32.5-7.6-46.3,4.5c-2.1,1.9-4,4-6,6c-0.7,0.7-1.1,1.9-3,1.8
		c1.2-3.4,2.2-6.7,3.4-9.8c9.5-24.1,27.2-37.2,53-39.4c20-1.7,38.4,2.2,54.4,15c6.6,5.3,12.2,11.6,18.3,17.4
		c5.9,5.7,12.2,11,20.5,13c16.6,3.9,29.7-2.3,40.7-14.3c0.7-0.7,1.3-1.5,1.9-2.2C58.7,141.3,59.2,140.6,60.3,139.3z"/>
</g>
<g class="st0">
	<path class="st12" d="M88,115.2c5.9,5.1,9.9,11.4,12.2,18.7c0.3,1.1,0.8,1.9,1.8,2.6c8.6,6.9,12.6,15.9,11.8,26.8
		c-1,13.7-12.1,25.4-25.6,27.2c-1.8,0.3-3.6,0.4-5.5,0.4c-7,0-14.1,0-21.1,0c-0.5,0-0.9,0-1.4-0.1c0-6.2,0-12.4,0-18.7
		c7.7,0,15.4,0,23.1,0c2.4,0,4.5-0.6,6.5-1.9c4.2-2.6,6.2-7.7,5-12.6c-1.2-4.8-5.3-8.4-10.3-8.8c-0.8-0.1-1.1-0.3-1.1-1.2
		c0.1-3.4-0.4-6.7-1.7-9.9c-1.5-3.8-4-6.9-7-9.6C79.2,124,83.6,119.6,88,115.2z"/>
	<path class="st13" d="M18.6,184.9C12.3,180.2,8.3,174,7,166.2c-2.1-12.4,2.1-22.5,12-30.2c0.3-0.2,0.5-0.4,0.8-0.7
		c0.2-0.1,0.5-0.2,0.7-0.3c5-3.2,10.5-4.8,16.4-4.8c2.1,0,4.2,0.3,6.3,0.5c0.4,0.1,0.8,0.3,1.2,0.4c6.5,1.6,11.8,5.1,16.1,10.3
		c0.5,0.6,0.5,1-0.1,1.6c-4.1,4.1-8.2,8.1-12.2,12.2c-0.5,0.5-0.7,0.6-1.1-0.1c-2.7-4.9-8.2-7.2-13.6-5.6c-6.7,2-10.1,9.9-7,16.1
		c1.3,2.5,3.3,4.3,5.7,5.6c-2,1.9-3.9,3.9-5.8,5.8C23.7,179.7,21.1,182.3,18.6,184.9z"/>
	<path class="st14" d="M43.1,130.8c-2.1-0.2-4.1-0.5-6.3-0.5c-6,0-11.4,1.6-16.4,4.8c-0.2,0.1-0.5,0.2-0.7,0.3
		c1.3-4.9,3.5-9.4,6.5-13.4c7.2-9.7,16.7-15.5,28.6-17c12.3-1.6,23.3,1.8,32.8,9.8c0.2,0.1,0.3,0.3,0.4,0.4
		c-4.4,4.4-8.8,8.8-13.2,13.2c-0.1-0.1-0.2-0.1-0.3-0.1c-4.9-3.8-10.4-5.4-16.5-4.9C52.1,124,47.2,126.4,43.1,130.8z"/>
	<path class="st15" d="M18.6,184.9c2.5-2.6,5.1-5.2,7.6-7.7c1.9-1.9,3.9-3.9,5.8-5.8c2.4,1,5,0.9,7.5,0.9c6.9,0,13.7,0,20.6,0
		c0,6.2,0,12.4,0,18.7c-3.2,0-6.3,0.1-9.5,0.1c-4.8,0-9.6,0.1-14.3,0C29.8,190.9,23.8,188.9,18.6,184.9z"/>
</g>
<g class="st0">
	<path class="st16" d="M185.8,144.6c4.1,0,8.1,0,12.1,0c1,0,1.4,0.2,1.6,1.3c2.2,17.5-9.1,28.9-23.2,30.4
		c-13.4,1.4-23.6-3.9-30.2-15.3c-6.8-11.7-3.7-26.9,6.8-35.8c11.3-9.6,27.7-9.7,38.5-0.1c0.9,0.8,1.1,1.2,0.1,2.1
		c-1.3,1.1-2.5,2.4-3.7,3.7c-0.7,0.8-1.1,0.8-2,0.1c-7.6-6.3-18-6.6-25.9-0.8c-7.3,5.3-10.3,15.1-7.4,23.9
		c2.7,8.5,10.7,14.3,19.7,14.4c7,0,12.8-2.4,16.8-8.4c1.2-1.8,1.8-4,2.2-6.1c0.2-1.1-0.1-1.3-1.1-1.3c-5.4,0-10.8,0-16.3,0.1
		c-1.4,0-1.7-0.4-1.6-1.7c0.1-1.7,0.1-3.4,0-5.1c-0.1-1.1,0.4-1.4,1.4-1.4C177.7,144.7,181.8,144.6,185.8,144.6z"/>
	<path class="st16" d="M313.1,142.9c0.3-2.9,0.3-2.9,3.2-2.9c1.6,0,3.6-0.7,4.6,0.3c0.9,0.9,0.3,2.9,0.3,4.4c0,9.9,0,19.8,0,29.7
		c0,2.9-0.4,5.8-1.4,8.5c-2.4,6.2-7.2,9.5-13.6,10.4c-8.2,1.1-15.2-2.5-19-9.4c-0.6-1.2-0.6-1.8,0.8-2.3c1.5-0.5,3-1.2,4.5-1.9
		c0.9-0.4,1.4-0.3,1.9,0.7c2.5,4.6,6.8,6.4,11.6,5.3c4.4-1.1,7-4.4,7.3-9.7c0.1-1.1,0-2.3,0-3.4c-0.2,0-0.4,0-0.4,0
		c-4.9,5.6-14.8,4.9-20.6,0.1c-10.7-8.8-9.3-25.2,2.8-31.9c5.1-2.8,12.9-3,17.6,1.7C312.7,142.6,312.9,142.7,313.1,142.9z
		 M313.8,157.8c0-0.8,0-1.5-0.2-2.3c-0.8-4.3-2.9-7.5-7.3-8.8c-3.8-1.2-7.8,0.2-10.5,3.6c-3.4,4.2-3.4,10.7,0,14.9
		c3.8,4.8,10.6,5.3,14.8,1C312.9,163.8,313.8,161,313.8,157.8z"/>
	<path class="st16" d="M562.2,170.7c-1.9,2.3-3.9,4-6.5,4.9c-7.3,2.5-14.6,0-19-6.7c-5.8-8.7-3.5-21.2,4.9-27.1
		c6.2-4.4,14.9-3.3,19.9,2.4c0.1,0.2,0.2,0.4,0.3,0.5c0.7-0.2,0.5-0.6,0.5-0.9c0-6.1-0.1-12.1-0.2-18.2c0-1.2,0.4-1.5,1.5-1.4
		c1.6,0.1,3.7-0.7,4.8,0.3c1.1,0.9,0.3,3.1,0.3,4.7c0,14.8,0,29.6,0,44.5c0,1.4-0.3,1.9-1.7,1.7c-1.5-0.2-3.3,0.6-4.3-0.3
		C561.8,174.3,562.7,172.5,562.2,170.7z M540.1,158.3c-0.1,0.7,0.2,1.9,0.4,3.1c0.9,4.5,4.6,8.3,8.9,9c4.5,0.8,9-1.3,11.2-5.4
		c2.3-4.4,2.4-9,0.3-13.4c-2.8-6.1-10.2-8.1-15.5-4.4C541.7,149.6,540.2,153.4,540.1,158.3z"/>
	<path class="st16" d="M262.8,138.9c10.7,0,18.9,8.1,18.9,18.7c0,10.9-8.1,19.1-18.9,19.1c-10.9,0-19-8.1-19-19
		C243.8,146.9,251.9,138.9,262.8,138.9z M252.2,157.6c0,5.5,3.3,10.1,8.1,11.2c5.5,1.2,10.8-1.9,12.5-7.4c1.8-5.9-0.9-12.2-6.1-14.3
		C259.5,144.2,252.2,149.5,252.2,157.6z"/>
	<path class="st16" d="M221.5,138.9c10.8,0,19,8.1,19,18.8c0,10.8-8.2,18.9-19,18.9c-10.7,0-18.9-8.3-18.9-18.9
		C202.5,147,210.7,138.9,221.5,138.9z M232,157.9c0.1-5.2-2.8-9.6-7.4-11c-5.5-1.7-11.2,1.2-13.1,6.8c-2.1,6.1,0.8,12.8,6.4,14.9
		C224.9,171,231.9,165.8,232,157.9z"/>
	<path class="st16" d="M356.9,138.9c7,0,12.9,4.1,15.8,11.1c1.3,3.1,1.3,3.1-1.8,4.4c-6.9,2.8-13.8,5.7-20.8,8.5
		c-1.4,0.6-1.2,1.1-0.5,2.1c3.9,5.4,11.7,5.7,16.3,0.4c1-1.2,1.6-1.3,2.8-0.4c1.2,1,2.6,1.8,3.9,2.6c0.7,0.4,0.9,0.8,0.3,1.5
		c-4.3,6.1-12.6,8.9-20.5,6.9c-7.2-1.9-12.7-8.6-13.3-16c-0.6-7.5,1.5-13.7,7.8-18.1C350,139.7,353.3,138.8,356.9,138.9z
		 M357.7,146.2c-5.4,0-10.3,4.8-10.3,9.8c0,0.8,0.1,1.1,1,0.7c4.9-2.1,9.8-4.1,14.7-6.1c1-0.4,1-0.9,0.4-1.6
		C361.9,147,359.7,146.4,357.7,146.2z"/>
	<path class="st16" d="M390.8,149.6c-0.3-18.9,18.6-31.7,36.9-24.4c3,1.2,5.6,3.2,7.8,5.6c0.6,0.6,0.6,1-0.1,1.6
		c-1.1,0.9-2.1,1.9-3.1,3c-0.6,0.6-0.9,0.7-1.5,0c-5.5-5.9-12.4-7-19.7-4.8c-7.2,2.2-11.7,7.3-13.1,14.8c-1.2,6.4-0.4,12.6,3.9,17.8
		c7.4,9,21.1,9.7,29.4,1.5c0.4-0.4,0.7-0.7,1-1.1c0.5-0.6,0.9-0.6,1.4,0c0.9,1,1.9,2,2.9,2.9c1,0.8,0.8,1.4,0,2.3
		c-4,4-8.7,6.6-14.3,7.6c-11.2,2-22.2-2.3-28.3-12.7C391.7,159.2,390.7,154.6,390.8,149.6z"/>
	<path class="st16" d="M491.6,157.9c0,9.2-5.4,16.5-13.7,18.2c-13.3,2.8-23.2-7.1-22.3-19.8c0.6-9,6.7-14.8,12.9-16.4
		C480.8,136.7,491.6,145,491.6,157.9z M462.4,157.8c0,0.6,0,1.3,0,2c0.3,4.7,3.6,8.9,8,10.3c4.3,1.4,9-0.1,11.9-3.7
		c3.6-4.4,3.7-12,0.3-16.5c-3.7-4.9-10.5-5.9-15.3-2.4C463.8,150,462.3,153.5,462.4,157.8z"/>
	<path class="st16" d="M521.6,170.5c-1.9,2.5-3.8,4-6.2,5.1c-8.4,3.6-17.2-1.5-18.2-10.5c-0.7-7-0.2-14-0.3-21
		c-0.1-3.7,0-3.7,3.7-3.7c2.9,0,2.9,0,2.9,2.9c0,6.4,0,12.8,0.1,19.2c0.1,4.2,2.2,6.8,5.7,7.7c4.1,1.1,7.8-0.3,10-3.7
		c1.5-2.3,2-4.9,2-7.6c0-5.6,0-11.3,0-16.9c0-1.3,0.3-1.6,1.6-1.6c1.3,0.1,2.6,0.1,3.9,0c0.8,0,1.2,0.2,1.2,1.1
		c0,10.9,0,21.9,0,32.8c0,0.8-0.2,1.2-1.1,1.1c-1.4-0.1-2.7-0.1-4.1,0c-1.1,0.1-1.3-0.4-1.3-1.4C521.6,173.1,521.6,172,521.6,170.5z
		"/>
	<path class="st16" d="M326.8,147.6c0-8.6,0-17.3,0-25.9c0-1.4,0.4-1.8,1.7-1.7c1.6,0.1,3.3,0.1,4.9,0c1.4-0.1,1.8,0.3,1.8,1.7
		c-0.1,9.5,0,18.9,0,28.4c0,7.8,0,15.6,0,23.5c0,1.6-0.5,2-1.9,1.9c-1.6-0.1-3.3-0.1-4.9,0c-1.2,0.1-1.6-0.3-1.6-1.6
		C326.8,165.1,326.8,156.4,326.8,147.6z"/>
	<path class="st16" d="M443.4,149.9c0-8,0-16.1,0-24.1c0-1.3,0.4-1.6,1.6-1.5c1.6,0.2,3.7-0.7,4.8,0.3c1.1,1,0.4,3.2,0.4,4.9
		c0,14.7,0,29.3,0,44c0,1.5-0.3,2.2-1.9,2c-1.5-0.2-3.6,0.7-4.5-0.4c-0.9-0.9-0.2-2.9-0.3-4.4C443.4,163.7,443.4,156.8,443.4,149.9z
		"/>
</g>
<g class="st0">
	<path class="st9" d="M257.7,171.2h-10.1l18.4-52.4h11.7l18.5,52.4H286l-14-41.6h-0.4L257.7,171.2z M258,150.7h27.6v7.6H258
		L258,150.7L258,150.7z"/>
	<path class="st9" d="M311.9,148.2v23h-9.3V132h8.9v6.7h0.5c0.9-2.2,2.4-3.9,4.3-5.2c2-1.3,4.4-1.9,7.4-1.9c2.7,0,5.1,0.6,7.1,1.7
		c2,1.2,3.6,2.8,4.7,5c1.1,2.2,1.7,4.9,1.6,8v25h-9.3v-23.6c0-2.6-0.7-4.7-2-6.2c-1.4-1.5-3.2-2.2-5.6-2.2c-1.6,0-3.1,0.4-4.3,1.1
		s-2.2,1.7-2.9,3.1S311.9,146.3,311.9,148.2z"/>
	<path class="st9" d="M363.7,186.6c-3.3,0-6.2-0.4-8.6-1.3s-4.3-2.1-5.8-3.6s-2.5-3.1-3-4.9l8.3-2c0.4,0.7,0.9,1.4,1.6,2.2
		s1.7,1.4,2.9,1.9c1.2,0.5,2.8,0.8,4.6,0.8c2.6,0,4.8-0.6,6.5-1.9s2.6-3.3,2.6-6.1v-7.4h-0.5c-0.5,1-1.2,1.9-2.1,2.9
		s-2.1,1.9-3.6,2.5c-1.5,0.7-3.4,1-5.6,1c-3,0-5.8-0.7-8.2-2.1s-4.4-3.6-5.8-6.4c-1.4-2.8-2.2-6.4-2.2-10.7c0-4.3,0.7-8,2.2-10.9
		c1.4-3,3.4-5.2,5.8-6.8c2.5-1.5,5.2-2.3,8.2-2.3c2.3,0,4.2,0.4,5.7,1.2c1.5,0.8,2.7,1.7,3.6,2.8c0.9,1.1,1.6,2.1,2,3.1h0.5V132h9.1
		v39.9c0,3.3-0.8,6-2.4,8.2s-3.8,3.8-6.6,4.9C370.4,186.1,367.2,186.6,363.7,186.6z M363.7,163.4c2,0,3.6-0.5,5-1.4s2.4-2.3,3.1-4.1
		s1.1-3.9,1.1-6.4c0-2.5-0.4-4.6-1.1-6.5c-0.7-1.9-1.8-3.3-3.1-4.3s-3.1-1.6-5-1.6c-2.1,0-3.8,0.5-5.2,1.6s-2.4,2.5-3.1,4.4
		c-0.7,1.9-1,4-1,6.4c0,2.4,0.4,4.5,1.1,6.3s1.8,3.2,3.1,4.2C360,162.9,361.7,163.4,363.7,163.4z"/>
	<path class="st9" d="M416.6,154.7v-22.8h9.3v39.3h-9v-7h-0.4c-0.9,2.2-2.3,4-4.4,5.4s-4.5,2.1-7.5,2.1c-2.6,0-4.9-0.6-6.8-1.7
		c-2-1.1-3.5-2.8-4.6-5c-1.1-2.2-1.7-4.9-1.7-8v-25h9.3v23.6c0,2.5,0.7,4.5,2,5.9s3.1,2.2,5.4,2.2c1.4,0,2.7-0.3,4-1s2.3-1.7,3.2-3
		C416.2,158.4,416.6,156.7,416.6,154.7z"/>
	<path class="st9" d="M444.7,118.9v52.4h-9.3v-52.4C435.4,118.9,444.7,118.9,444.7,118.9z"/>
	<path class="st9" d="M465.5,172c-2.5,0-4.7-0.4-6.7-1.3c-2-0.9-3.5-2.2-4.7-4s-1.7-3.9-1.7-6.5c0-2.2,0.4-4.1,1.2-5.5
		s1.9-2.6,3.4-3.5s3-1.5,4.8-2s3.6-0.8,5.5-1c2.3-0.2,4.2-0.5,5.6-0.6c1.4-0.2,2.5-0.5,3.1-0.9c0.7-0.4,1-1.1,1-2v-0.1
		c0-1.9-0.6-3.4-1.7-4.5c-1.1-1.1-2.8-1.6-4.9-1.6c-2.3,0-4.1,0.5-5.4,1.5c-1.3,1-2.2,2.2-2.7,3.5l-8.6-1.2c0.7-2.4,1.8-4.4,3.4-6
		s3.5-2.8,5.8-3.6c2.3-0.8,4.8-1.2,7.5-1.2c1.9,0,3.8,0.2,5.6,0.7s3.6,1.2,5.1,2.2c1.5,1,2.8,2.4,3.8,4.1s1.4,3.9,1.4,6.5v26.3h-8.9
		v-5.4H477c-0.6,1.1-1.4,2.1-2.4,3.1c-1,0.9-2.3,1.7-3.8,2.3C469.3,171.7,467.5,172,465.5,172z M467.9,165.2c1.9,0,3.5-0.4,4.8-1.1
		s2.4-1.7,3.2-2.9c0.7-1.2,1.1-2.6,1.1-4v-4.6c-0.3,0.2-0.8,0.5-1.5,0.7c-0.7,0.2-1.5,0.4-2.3,0.5c-0.9,0.1-1.7,0.3-2.5,0.4
		c-0.8,0.1-1.6,0.2-2.2,0.3c-1.4,0.2-2.6,0.5-3.7,0.9s-2,1-2.6,1.8c-0.6,0.8-1,1.7-1,2.9c0,1.7,0.6,3,1.9,3.9S466,165.2,467.9,165.2
		z"/>
	<path class="st9" d="M495.5,171.2V132h9v6.6h0.4c0.7-2.3,2-4,3.7-5.3c1.8-1.2,3.8-1.9,6-1.9c0.5,0,1.1,0,1.7,0.1
		c0.6,0,1.2,0.1,1.6,0.2v8.5c-0.4-0.1-1-0.3-1.8-0.4s-1.7-0.2-2.4-0.2c-1.7,0-3.2,0.4-4.5,1.1c-1.3,0.7-2.4,1.7-3.2,3
		c-0.8,1.3-1.1,2.8-1.1,4.4v23.1L495.5,171.2L495.5,171.2z"/>
</g>
<g>
	<path d="M552.1,90.7c10.9-0.5,21.7-1.1,32.5-1.6c3.9-0.2,3.1,2.7,3.1,4.8c0,21.2,0,42.3,0,63.5c0,1.3,0,2.7,0,5.3
		c3.3-3.1,6-5.4,8.5-7.8c4.5-4.2,9-8.4,13.3-12.8c4.8-4.9,4.3-6.8-2.4-8.5c-1-0.2-1.9-0.4-3.1-0.7c0-1.5,0-2.9,0-4.6
		c11.7,0,23.3,0,35.2,0c1.3,3.2,0.2,4.8-3,5.6c-10.5,2.9-19,9.3-27.2,16.4c8.5,12.5,16.7,24.8,25.4,36.8c1.7,2.3,4.9,4.1,7.8,4.8
		c3.5,0.9,4.5,2.2,3.2,6.1c-10.1,0-20.4,0.1-30.7-0.1c-1.3,0-2.9-1.9-3.8-3.3c-6.2-9.5-12.2-19-18.3-28.6c-4,1.4-5.2,3.8-4.9,7.4
		c0.2,2.8,0,5.7,0,8.5c0,7.8,0.1,7.7,7.6,10.6c1.4,0.5,2,2.8,3.7,5.2c-15.9,0-30.2,0-44.6,0c-1.4-3.5-0.4-5.2,3.4-5.4
		c4.7-0.3,6.7-3.1,6.7-7.6c0-25.8,0.1-51.7,0-77.5c0-6.8-2.6-9.7-9.3-10.8C551.6,96,551,94.4,552.1,90.7z"/>
	<path d="M697,134.1c0-1.6,0-3.1,0-4.9c10.7-0.6,21.1-1.3,31.5-1.6c1,0,2.6,2,2.9,3.2c0.5,2.2,0.1,4.5,0.1,7.7
		c2.6-2.1,4.5-3.7,6.3-5.2c7.3-6.4,16-8,25.3-6.6c10.8,1.7,17.3,10,17.5,22.2c0.2,11.5,0.2,23,0,34.5c-0.1,5,1.9,8.1,6.7,8.9
		c3.4,0.6,4.1,2.2,3.1,5.6c-13.8,0-27.6,0-41.5,0c-0.8-2.9-0.9-5.1,2.9-5.3c3.7-0.2,5.4-2.5,5.4-5.9c0-12.5,0.3-25-0.3-37.5
		c-0.3-8-4.5-11.6-11.1-11.3c-8.1,0.5-14.3,6.3-14.3,13.4c0,10.7,0.1,21.3-0.1,32c-0.1,4.8,1.4,7.9,6.3,9.3c1.5,0.4,2.4,2.7,3.6,4.1
		c-0.4,0.4-0.8,0.8-1.1,1.2c-14.1,0-28.1,0-42.3,0c0-1.7,0-3.1,0-4.7c1.5-0.3,2.8-0.6,4.1-0.8c4.1-0.5,6.3-2.8,6.3-7
		c0-13.7,0.2-27.3,0-41C708.3,137.5,703.1,135.1,697,134.1z"/>
	<path d="M455,133.9c0-1.4,0-2.8,0-4.7c10.6-0.6,21-1.3,31.5-1.6c1,0,2.7,1.9,3,3.2c0.5,2.2,0.1,4.6,0.1,7.8
		c2.7-2.2,4.7-3.9,6.6-5.5c7.4-6.3,16.1-7.8,25.3-6.2c10.5,1.8,16.8,10,17.1,22c0.2,11.3,0.3,22.7,0,34c-0.1,5.4,1.7,8.7,7.1,9.5
		c3.8,0.6,3.4,2.8,2.6,5.6c-13.8,0-27.6,0-41.6,0c0-1.7,0-3.1,0-4.5c8.6-2.6,8.6-2.6,8.6-11.8c0-9,0-18,0-27c0-0.8,0-1.7,0-2.5
		c-0.4-5.5-0.6-11.6-7-13.7c-6.5-2.1-12.1,0.6-16.6,5.4c-1.2,1.3-2.1,3.5-2.1,5.3c-0.2,11.7,0,23.3-0.1,35c0,4.3,1.6,7.2,5.8,8
		c3.5,0.6,3.8,2.6,2.9,5.7c-14,0-28,0-42.3,0c0-1.6,0-3,0-4.6c1.4-0.3,2.7-0.6,4-0.8c4.4-0.5,6.4-3.1,6.4-7.4c0-13.3,0.1-26.6,0-40
		C466.4,138.8,463.9,136.6,455,133.9z"/>
	<path d="M312,103.4c0-1.9,0-3.3,0-5c17.7,0,35.1,0,53,0c0.1,1.6,0.1,3.1,0.2,5c-2.3,0.4-4.2,0.8-6.2,1.1c-6.4,1.3-7.5,2.6-7.5,9
		c0,17.2,0,34.3,0,51.5c0,20.4-12.5,33.9-32.8,35.5c-7.6,0.6-15,0.3-22-3.2c-9.4-4.7-13.9-13.6-12.1-24c1-5.9,5-10.2,10.6-11.1
		c6.5-1.1,11.9,1.1,14.7,6c2.8,4.9,2.1,10.2-2.2,15.2c-2,2.4-4.3,4.5-6.4,6.8c3.9,4.8,10.1,5.3,16.2,1.4c5-3.2,7.6-8.1,8.1-13.7
		c0.7-7.9,0.8-15.9,0.8-23.9c0.1-12.3,0-24.6,0-37c0-9.3-1.2-10.7-10.4-12.7C314.8,104.1,313.5,103.8,312,103.4z"/>
	<path d="M400.1,160.5c-1.8,12.1,3.2,23.7,11.6,27.6c11.1,5.1,20.8,2,32.1-10.4c1.5,1.1,3.1,2.1,5.1,3.5
		c-7.1,11.3-17.1,17.7-30.1,18.9c-5.7,0.5-11.7,0.1-17.3-1.2c-18.2-4.1-28.9-19.2-27.5-38c1.4-18.9,14.9-32.9,33.4-34.4
		c4.8-0.4,9.7-0.4,14.4,0.4c17.6,2.8,26.6,15.1,24.6,33.7C431.1,160.5,415.6,160.5,400.1,160.5z M422.5,154.3
		c-0.9-5.7-1.3-10.6-2.4-15.4c-0.9-3.8-3.3-6.5-7.5-6.9c-4.3-0.4-7.4,1.6-9.5,5.2c-3,5.3-3.8,11.1-3.3,17.2
		C407.3,154.3,414.3,154.3,422.5,154.3z"/>
	<path d="M808.1,195.2c-3.4,1.9-5.7,3.3-8,4.6c-0.5-0.4-0.9-0.8-1.4-1.1c0-8.4,0-16.8,0-25.6c2.7-1.3,4.4-0.2,6,3
		c5.4,10.6,12.8,18.7,26,18.4c6.3-0.1,9.9-2.8,10.8-7.6c1-5.3-1.1-8.9-7.5-11.3c-6.2-2.3-12.7-3.9-18.9-6.3
		c-11.5-4.4-17.2-14.6-14.5-25.7c2-8.3,8.2-12.7,15.8-15.2c10-3.3,20-2.6,30,0.4c1.4,0.4,2.8,0.9,3,1c3-1.7,5.2-2.9,8.5-4.7
		c0.4,9.3,0.8,16.9,1.1,24.6c-3.3,1.6-4.8,0.5-6.3-2.4c-4.3-8.4-10.4-14.8-20.7-14.8c-6,0-9.9,2.7-10.7,7c-0.9,4.7,1.3,8.2,7.2,10.4
		c7.1,2.7,14.7,4.5,21.6,7.6c11.1,5.1,15.3,15.5,11.5,26.5c-2.7,7.7-8.8,11.9-16.3,14.3C832.1,202.4,819.3,200.8,808.1,195.2z"/>
	<path d="M645.1,133.9c0-1.6,0-2.9,0-4.1c0.5-0.3,0.8-0.5,1.1-0.6c10.1-0.6,20.3-1.1,30.4-1.9c3.5-0.3,4.2,1.3,4.1,4.4
		c-0.1,16.6-0.1,33.3,0,49.9c0,7.3,0.8,8.4,7.7,10.7c2.9,1,2.9,1,2.6,5.4c-14.5,0-29,0-43.8,0c-1.2-3-0.9-4.8,3-5.3
		c6-0.9,7.3-2.6,7.3-8.6c0-11,0-22,0-32.9C657.5,138.3,657.2,137.7,645.1,133.9z"/>
	<path d="M680.9,102.1c-0.1,7.1-6.2,12.7-13.9,12.6c-7.7-0.1-13.8-5.7-13.8-12.8c0-7.3,6.3-13,14.3-12.9
		C675.1,89.2,681,94.9,680.9,102.1z"/>
</g>
</svg>
