<?xml version="1.0" encoding="utf-8"?>
<!-- Generator: Adobe Illustrator 23.0.3, SVG Export Plug-In . SVG Version: 6.00 Build 0)  -->
<svg version="1.1" id="Layer_1" xmlns="http://www.w3.org/2000/svg" xmlns:xlink="http://www.w3.org/1999/xlink" x="0px" y="0px"
	 viewBox="0 0 1123.5 298.2" style="enable-background:new 0 0 1123.5 298.2;" xml:space="preserve">
<style type="text/css">
	.st0{display:none;}
	.st1{display:inline;fill:#C2002F;}
	.st2{display:inline;fill:#DC0031;}
	.st3{display:inline;fill:#FEFDFE;}
	.st4{display:inline;fill:#DC0132;}
	.st5{display:inline;fill:#C20130;}
	.st6{display:inline;fill:#261D1E;}
	.st7{display:inline;fill:#FDFDFD;}
	.st8{display:inline;fill:#ED3631;}
	.st9{display:inline;fill:#EF5133;}
	.st10{display:inline;fill:#413000;}
	.st11{display:inline;}
	.st12{display:inline;fill:#08B6D3;}
	.st13{display:inline;fill:#07B6D3;}
	.st14{display:inline;fill:#2C84FB;}
	.st15{display:inline;fill:#FDBA01;}
	.st16{display:inline;fill:#FD2C27;}
	.st17{display:inline;fill:#01AC48;}
	.st18{display:inline;fill:#60656B;}
	.st19{fill:#5EB632;}
</style>
<g class="st0">
	<path class="st1" d="M390.1,54.8c0.4-0.3,0.7,0,1.1,0.1c20.1,7.2,40.2,14.3,60.3,21.5c5.9,2.1,11.7,4.2,17.6,6.2
		c0.8,0.3,0.9,0.6,0.8,1.4c-0.5,3.3-0.8,6.6-1.2,9.9c-0.4,3.4-0.8,6.8-1.2,10.2c-0.4,3.3-0.8,6.7-1.1,10c-0.4,3.3-0.8,6.7-1.2,10.1
		c-0.3,2.8-0.6,5.6-1,8.4c-0.4,3.4-0.8,6.8-1.2,10.1c-0.4,3.3-0.8,6.6-1.1,10c-0.4,3.3-0.8,6.6-1.1,10c-0.4,3.4-0.8,6.7-1.2,10.1
		c-0.4,3.4-0.8,6.8-1.2,10.1c-0.2,1.6-0.4,3.2-0.5,4.8c-0.1,0.7-0.4,0.9-0.9,1.2c-9.1,5.1-18.3,10.1-27.4,15.2
		c-12.8,7.1-25.6,14.2-38.4,21.3c-0.3,0.2-0.6,0.6-1,0.3c0.3-0.4,0.2-0.9,0.2-1.3c0-21.3,0-42.7,0-64c0.3,0,0.6,0,0.9,0
		c6.4,0,12.8,0,19.2,0c0.7,0,1,0.2,1.3,0.9c3.1,7.8,6.2,15.5,9.3,23.3c0.3,0.6,0.6,0.9,1.3,0.9c5.5,0,11.1,0,16.6,0c1,0,1,0,0.6-0.9
		c-14.8-33.2-29.5-66.4-44.3-99.6c-1.6-3.7-3.3-7.3-4.9-10.9c0-5.9,0-11.8,0-17.7C390.3,55.6,390.4,55.2,390.1,54.8z"/>
	<path class="st2" d="M390.3,160.2c0,21.3,0,42.7,0,64c0,0.4,0.1,0.9-0.2,1.3c-4.4-2.4-8.8-4.9-13.2-7.3
		c-17.7-9.8-35.4-19.6-53.1-29.4c-0.6-0.4-1-0.7-1.1-1.5c-0.7-6.5-1.5-13.1-2.2-19.6c-0.7-6.4-1.5-12.8-2.2-19.3
		c-0.7-5.9-1.4-11.8-2-17.7c-0.7-6.4-1.5-12.9-2.2-19.3c-0.7-5.9-1.4-11.8-2-17.7c-0.4-3.3-0.7-6.5-1.1-9.8
		c-0.1-0.7,0.1-0.9,0.7-1.1c24.9-8.9,49.8-17.8,74.8-26.7c1.3-0.5,2.5-0.9,3.8-1.3c0.3,0.3,0.2,0.8,0.2,1.2c0,5.9,0,11.8,0,17.7
		c-0.1,0.2-0.3,0.5-0.4,0.7c-15.5,34.7-31,69.5-46.5,104.2c-1,2.1-1.9,4.3-2.9,6.5c0.4,0,0.8,0,1.1,0c5.5,0,11,0,16.5,0
		c0.8,0,1.1-0.3,1.4-1c3.1-7.8,6.2-15.5,9.3-23.3c0.3-0.6,0.6-0.8,1.2-0.8c6.4,0,12.8,0,19.2,0C389.6,160.1,389.9,160.2,390.3,160.2
		z"/>
	<path class="st3" d="M390.3,160.2c-0.4,0-0.7,0-1.1,0c-6.4,0-12.8,0-19.2,0c-0.6,0-1,0.1-1.2,0.8c-3.1,7.8-6.2,15.5-9.3,23.3
		c-0.3,0.7-0.6,1-1.4,1c-5.5,0-11,0-16.5,0c-0.3,0-0.6,0-1.1,0c1-2.3,2-4.4,2.9-6.5c15.5-34.7,31-69.5,46.5-104.2
		c0.1-0.2,0.2-0.5,0.4-0.7c1.6,3.6,3.3,7.3,4.9,10.9c14.8,33.2,29.5,66.4,44.3,99.6c0.4,0.9,0.4,0.9-0.6,0.9c-5.5,0-11.1,0-16.6,0
		c-0.7,0-1-0.2-1.3-0.9c-3.1-7.8-6.2-15.5-9.3-23.3c-0.3-0.6-0.5-0.9-1.3-0.9c-6.4,0-12.8,0-19.2,0
		C390.9,160.1,390.6,160.2,390.3,160.2z M390.3,144.7c4.5,0,9.1,0,13.6,0c0.7,0,0.9-0.1,0.6-0.9c-4.6-11.1-9.2-22.2-13.9-33.3
		c-0.1-0.2-0.1-0.5-0.3-0.6c-0.3,0.2-0.3,0.5-0.4,0.7c-3.1,7.5-6.3,15-9.4,22.5c-1.5,3.6-3,7.1-4.4,10.7c-0.1,0.3-0.5,0.8,0.3,0.8
		C381,144.8,385.7,144.8,390.3,144.7z"/>
	<path class="st4" d="M390.3,144.7c-4.6,0-9.3,0-13.9,0c-0.8,0-0.5-0.4-0.3-0.8c1.5-3.6,3-7.1,4.4-10.7c3.1-7.5,6.3-15,9.4-22.5
		c0.1-0.3,0.1-0.6,0.4-0.7C390.3,121.6,390.3,133.2,390.3,144.7z"/>
	<path class="st5" d="M390.3,144.7c0-11.6,0-23.1,0-34.7c0.3,0.1,0.3,0.4,0.4,0.6c4.6,11.1,9.2,22.2,13.9,33.3
		c0.3,0.8,0.1,0.9-0.6,0.9C399.4,144.8,394.8,144.8,390.3,144.7z"/>
</g>
<g class="st0">
	<path class="st6" d="M400.1,275.7c-8,0-15.1-0.4-22.1-1.9c-2.6-0.6-4.3-1.7-5.1-4.6c-1.8-6.6-4-13-6.1-19.5c-0.5-1.5-0.5-3.2-3-3.1
		c-7.6,0.3-14.3-2.8-20.9-6.1c-1.6-0.8-3.2-2-4.9-2.4c-8.3-1.6-10.4-7.2-9.6-14.7c0.5-4.5-1.3-7.6-4.6-10.8
		c-37.8-37.2-36.6-99.3,2.5-135.2c2-1.8,2.9-3.6,3.2-6.3c0.6-5.9,2.2-11.5,7.6-15c0.6-0.4,1.3-1.1,1.5-1.8
		c2.4-7.8,8.7-11.9,15.1-15.8c14.7-8.9,30.1-14,47.8-12.8c21.8,1.5,43.2,20.5,45,41.8c0.8,9.7,5.9,15.8,11.1,22.4
		c18.8,24,23.2,50.9,16.3,79.9c-1.7,7.2-4.4,14.2-8,20.8c-1.1,2.1-0.8,2.9,0.8,4.4c6.7,6.7,9.5,23,5.8,31.8
		c-1.8,4.3-4.6,6.9-9.3,7.2c-5.7,0.3-11.4,1.8-16.5-2.8c-2.5-2.3-10,1.3-12.7,3.4c-6.3,4.8-3.2,10.1-2.2,15.5
		c1.3,7.1,1.5,11.2-6.7,12.6c-2.5,0.4-2.3,2.1-2,3.7c0.9,4.8-2,6.7-5.9,7.7C411.3,275.6,405.2,275.1,400.1,275.7z M435.7,52.9
		c-3.3-5.7-7.7-10.3-12.5-13.2c-15.5-9.5-31.7-13.1-48.1-1.8c-3.9,2.7-8,5.3-11.2,8.7c-2.5,2.7-6.7,5.2-5.4,10c1,3.8,1,7.6,0.1,11.4
		c-2,8-3.1,16-0.1,24.1c1,2.9,0.1,4.8-3.1,5.4c-3,0.7-4.8,0.7-5.7-3.2c-1.4-5.9-4.4-7.8-9.1-7c-4.6,0.8-8.6,5.2-9.1,9.8
		c-0.5,4.2,0.6,7.9,2.8,11.7c3.3,5.8,8.8,7.8,14.5,4.5c1-0.6,2.2-2.1,3.4-0.5c1,1.3-0.1,2.3-1,3.4c-2.8,3.1-3.5,6.4-1.1,10.2
		c0.9,1.4,1.1,3.1,1.6,4.7c5.4,18.5,19.6,21.7,34.5,15.5c-5-4.4-11.2-7.8-14.2-14.1c-0.9-1.9-4.1-4.2-1.6-6.2
		c0.8-0.7,3.2,2.8,4.5,4.8c12.1,18.7,34.1,22.3,50.6,8.6c6.4-5.3,10.6-12,13.6-19.6c0.7-1.8,0.7-3.3,0-5c-1.9,0.8-2.9,2.2-4.1,3.3
		c-2.8,2.4-5.6,5.1-9.6,5.7c-1.5,0.2-2.9,0.1-2.7-1.8c0.2-1.3-2-3.1,0.3-3.7c5.3-1.5,10.1-5.2,15.1-5.9c3.7-0.6,3.8-2.4,4.4-4.2
		c3.7-11.8,2.1-24,1.8-36.1c-0.2-8.1-6.6-14.3-12.8-14.4c-1.6,0-4.3,1.7-4.6-0.8c-0.3-2.3,2.6-3.1,4.5-3.8
		C432,52.9,433.5,53.1,435.7,52.9z M399.7,270.4c2.9,0.2,6.1,0.1,8.8-0.3c2.1-0.4,4.6,0.6,7.3-1.6c3.6-3,1.4-5.4,1.3-8
		c-0.4-16.1-1.6-32.2-2.8-48.3c-0.3-4.4-1.8-5.7-5.4-6c-14.2-1.3-28.2,0.1-42.2,2.5c-1.5,0.3-3.3,0.8-2.4,2.8
		c1.3,2.7,0.6,5.4,1.1,8.1c2.1,11.1,4.9,22,6.9,33.1c2.4,13.6,3.9,15.4,17.5,17.1C393.1,270.1,396.4,270.2,399.7,270.4z
		 M325.9,205.7c0.8-2.9,0.2-6-0.4-9c-2-10.4-7-19.7-9.9-29.8c-1.3-4.6-0.1-7.4,4.2-9.8c8.9-4.9,17.4-10.4,26.2-15.5
		c3.3-1.9,3.8-4.3,1.8-7.4c-1.7-2.7-3.4-5.4-3.8-8.6c-0.3-2.7-1.8-3.9-4.2-4.9c-11-4.7-17.2-21.9-11.7-32.6c0.6-1.2,1.7-2.6,0.6-3.5
		c-1.4-1.1-2.1,0.9-3.2,1.5c-0.5,0.3-0.9,0.9-1.4,1.4c-29.6,31.5-30.1,84.8-1,116.9C323.8,204.9,324.2,206,325.9,205.7z
		 M441.7,197.3c5-1.6,9-3.3,13.1-4.2c3.2-0.6,5-2.1,6.3-4.9c16.2-33,14-64.6-7-94.8c-1.4-1.9-2.5-4.3-4.9-5.3
		c-0.9,0.4-0.9,1.1-0.9,1.7c-0.7,14.6-3.1,28.8-10.5,41.7c-1.4,2.5-0.6,4.4,1.3,6.1c3.7,3.3,7.3,6.8,11.2,9.9
		c4.1,3.3,4.8,7.3,3.4,12.1c-1.6,5.2-3.2,10.5-4.9,15.7C446.5,182.6,444.2,189.6,441.7,197.3z M470,219.1
		c-1.2-5.8-1.9-11.8-4.3-17.3c-1.7-3.8-5.4-5.9-8.9-4.2c-4.6,2.2-9.5,3.6-13.9,6c-1.4,0.8-2.8,1.4-2.4,3.8c0.9,4.9,1.4,9.8,1.9,14.7
		c0.4,3.9,1.6,5.9,6,5.1c3.1-0.6,6.3-0.3,9.4-0.5c1-0.1,2.1-0.1,2.7,0.8c1.7,2.8,2.8,3.3,4.8,1.4C468.1,226.3,470.3,223.3,470,219.1
		z M404.1,160.3c-6.2-3.3-11.6-6.5-17.7-8.1c-4.1-1.1-6.4,0.3-7,4.6c-0.9,6.3,0.5,12.2,2.7,18.1c1.2,3.3,3,4,6.1,3.1
		c5.2-1.6,9.6-4.6,13.6-8.1c3.6-3.2,3.5-4.5-0.9-6.6c-0.3-0.2-1.1-0.2-0.6-1C401.3,161.7,402.5,161.2,404.1,160.3z M420.1,186.7
		c0-3.5,0-6.2,0-8.8c0-7.2-6.4-11.5-13.2-8.7c-1.9,0.8-2.3,2.2-1.1,4c4.7,6.6,7.4,14.1,10.5,21.4c0.9,2.2,1.9,2.5,3.6,1
		c5.6-4.7,8.4-11.3,12-17.4c0.8-1.3,1.5-3-0.2-4.5c-1.9-1.5-3.9-2.5-6.4-2.1c-2.8,0.6-1.7,2.8-1.9,4.4
		C423,179.6,423.9,183.4,420.1,186.7z M412.5,198.5c0.3-0.3,0.6-0.7,0.9-1c-2.7-5.6-5.1-11.4-8-16.9c-3.4-6.2-4.7-6.4-9.1-2.2
		c-1.6,1.6-3,3.2-4.8,4.6c-1.5,1.1-3.4,3.7,0.2,5.4C398.6,191.7,405.6,195.1,412.5,198.5z M425.8,168.5c6,0.1,6.7-0.5,6.4-6.5
		c-0.1-2.8-0.6-5.6-1.2-8.4c-0.5-2.3-2.1-4-4.7-3.4c-4.1,1-7.3,3.8-10.8,6.1c-0.8,0.5-0.9,1.9-0.4,2.2c3.1,1.4,1.5,3.2,0.8,5.2
		c-0.6,1.7,0.2,3.2,2.4,3.5C421,167.6,423.4,168.1,425.8,168.5z M433.5,230.1c2.6-0.9,5.7-1.1,5.9-4.4c0.3-6-0.4-12-2.5-17.7
		c-0.9-2.4-2.7-2.9-4.8-2.3c-2.4,0.7-2.2,3-1.7,4.6C432.1,216.6,432.6,223.2,433.5,230.1z M419.2,252.9c0.6,2.3-1.3,5.8,3.3,5.2
		c3.3-0.4,6.4-0.9,5.3-5.6c-0.8-3.5-1.3-7.2-2.1-10.7c-0.3-1.5,0.4-4.1-2.9-3.3c-2.2,0.5-3.5,1.1-3.2,3.8
		C419.9,245.9,420,249.5,419.2,252.9z M336.3,83.4c0-0.6,0.1-1.3,0-1.9c-1.1-8.1,2.1-14.2,8.5-19c2.7-2.1,6.3-1.1,8.9-3.2
		c0.7-0.5,1.4-0.8,1.2-1.8c-0.2-0.9-0.9-1.2-1.8-1.3c-3.5-0.3-15.3,5.4-16.3,8.4C334.8,70.7,333.7,77,336.3,83.4z M371,36.9
		c-8.6-1-25.2,10-27.6,18.5C353.2,49.3,360.8,41.1,371,36.9z M364.1,151.2c1.7,4.1,5.6,4.6,9,5.9c1.9,0.7,2.6,0,3.1-1.8
		c0.6-2.1-0.5-2.6-2.2-2.8C370.7,152.1,367.4,152.4,364.1,151.2z M401.1,152.7c6.4,4.2,9.8,3.8,14.6-2
		C410.6,152.3,405.9,153.1,401.1,152.7z M406.4,162.8c1.1,0.8,0,4.1,2.6,3.9c2-0.2,3.6-2.3,3.5-4.7c-0.1-2-1.3-3.5-3.4-3.5
		C407,158.6,406,159.9,406.4,162.8z"/>
	<path class="st7" d="M435.7,52.9c-2.2,0.2-3.6-0.1-4.8,0.4c-1.9,0.8-4.9,1.5-4.5,3.8c0.4,2.5,3,0.8,4.6,0.8
		c6.3,0.1,12.6,6.3,12.8,14.4c0.3,12,1.9,24.2-1.8,36c-0.6,1.8-0.7,3.6-4.4,4.2c-5.1,0.8-9.8,4.4-15.1,5.9c-2.4,0.7-0.1,2.4-0.3,3.7
		c-0.3,1.9,1.1,2,2.7,1.8c4-0.6,6.8-3.3,9.6-5.7c1.2-1.1,2.2-2.4,4.1-3.3c0.7,1.7,0.7,3.3,0,5c-3,7.6-7.1,14.3-13.6,19.6
		c-16.5,13.7-38.4,10.1-50.6-8.6c-1.3-2-3.7-5.5-4.5-4.8c-2.5,2,0.7,4.4,1.6,6.2c3,6.3,9.2,9.7,14.2,14.1
		c-14.9,6.2-29.1,3-34.5-15.5c-0.5-1.6-0.7-3.4-1.6-4.7c-2.4-3.8-1.7-7.1,1.1-10.2c1-1.1,2-2.1,1-3.4c-1.2-1.6-2.4-0.1-3.4,0.5
		c-5.7,3.3-11.2,1.3-14.5-4.5c-2.1-3.8-3.2-7.4-2.8-11.7c0.5-4.7,4.5-9,9.1-9.8c4.7-0.8,7.8,1.1,9.1,7c0.9,3.8,2.8,3.8,5.7,3.2
		c3.2-0.7,4.2-2.6,3.1-5.4c-2.9-8.1-1.8-16,0.1-24.1c0.9-3.8,1-7.5,0-11.4c-1.3-4.8,2.9-7.3,5.4-10c3.2-3.4,7.3-6,11.2-8.7
		c16.4-11.3,32.7-7.7,48.1,1.8C428,42.6,432.3,47.2,435.7,52.9z M423,129.3l-0.1-0.2l-0.2,0.1c-2,0.1-4,0.4-6,0.3
		c-8-0.4-16.6,1-21.5-7.8c-0.5-0.9-1.5-1-2.1-0.4c-1.1,1-0.5,2,0.2,3.1c5.4,8.5,17.1,12.5,26.5,9C421.4,132.7,423.6,132.1,423,129.3
		z M416.7,74.8c0,2.8-0.9,5.3,0.7,8.2c3.3,6.1,6.9,11.8,11.9,16.6c2.4,2.3,3.1,5.3-0.1,7.1c-4.2,2.4-8.5,4.6-13.5,5.1
		c-2.4,0.3-4.8,0.1-5.5-2.9c-0.3-1-0.1-2.7-1.8-2.4c-1.8,0.3-1.5,2-1.4,3.3c0.5,3.2,1.8,5.2,5.6,5.4c7.8,0.5,14.2-2.8,20.4-6.9
		c3.6-2.4,4.1-6.9,1.5-9.7C427.9,91.4,421.2,84.1,416.7,74.8z M396.7,71.5c-1.2,2.7-0.1,4.6,0.6,6.4c2.9,7.5,2.9,7.5-5.4,7.2
		c-1,0-2-0.3-2.6,0.8c-0.6,1.2-0.1,2.2,0.9,3.1c2.9,2.7,10.9,2.3,13.5-0.7c1.2-1.4,2-3.3,0.7-4.5C400.7,80.5,399.3,75.8,396.7,71.5z
		 M395.4,115.6c2.3,2.3,2.9,4.5,5.2,5.4c5.1,2.1,10.3,3.7,15.8,3.4c1.4-0.1,4,1.1,3.7-1.6c-0.2-1.5,0.3-4.7-3.7-4
		C409.7,120,403.2,117.7,395.4,115.6z M387.2,56c-6.5,0.1-12.7,5.4-13.3,11.2c-0.1,1.1-0.5,2.5,1,2.9c1.3,0.3,1.4-1.2,1.8-1.9
		c3-5.1,6.9-8.6,13.3-7.8c1,0.1,2,0.3,2.3-1.1c0.2-1.1-0.4-1.9-1.1-2.6C390,55.3,388.5,55.8,387.2,56z M433.8,88.2
		c6.5,0.1,9.3-3.9,6.9-9c-0.4-0.9-0.8-1.8-1.3-2.7c-0.6-1-0.7-3.1-2.4-2.4c-1.6,0.7-1.2,2.8-0.3,3.8c3.5,4.1,1.7,5.1-2.6,5.1
		c-1.4,0-3.7,0.2-3.7,1.9C430.2,87.3,432.2,88.1,433.8,88.2z M335.8,95.7c2.8-0.5,2.8-0.5,3.5,4.1c5.4-7.8,6.1,1.1,9,2.8
		c0.5-6-1.5-9.7-5.8-11C338.9,90.6,337.1,92.5,335.8,95.7z"/>
	<path class="st7" d="M399.7,270.4c-3.3-0.2-6.7-0.3-9.9-0.7c-13.6-1.7-15.1-3.5-17.5-17.1c-2-11.1-4.8-22-6.9-33.1
		c-0.5-2.6,0.2-5.4-1.1-8.1c-0.9-1.9,0.9-2.5,2.4-2.8c14-2.4,28-3.8,42.2-2.5c3.6,0.3,5.1,1.6,5.4,6c1.1,16.1,2.3,32.2,2.8,48.3
		c0.1,2.7,2.3,5-1.3,8c-2.6,2.2-5.1,1.2-7.3,1.6C405.9,270.5,402.7,270.6,399.7,270.4z"/>
	<path class="st8" d="M325.9,205.7c-1.7,0.4-2.2-0.7-2.8-1.4c-29-32-28.6-85.3,1-116.9c0.5-0.5,0.8-1.1,1.4-1.4
		c1.1-0.6,1.8-2.7,3.2-1.5c1.1,0.9,0.1,2.3-0.6,3.5c-5.5,10.7,0.6,27.9,11.7,32.6c2.4,1,3.9,2.3,4.2,4.9c0.4,3.2,2.1,5.9,3.8,8.6
		c2,3.2,1.5,5.5-1.8,7.4c-8.7,5.1-17.3,10.6-26.2,15.5c-4.3,2.4-5.5,5.3-4.2,9.8c2.9,10.1,7.9,19.4,9.9,29.8
		C326.1,199.7,326.7,202.7,325.9,205.7z"/>
	<path class="st8" d="M441.7,197.3c2.5-7.8,4.8-14.8,7.1-21.8c1.7-5.2,3.3-10.5,4.9-15.7c1.5-4.7,0.7-8.7-3.4-12.1
		c-3.9-3.1-7.5-6.6-11.2-9.9c-2-1.7-2.8-3.6-1.3-6.1c7.4-12.9,9.8-27.1,10.5-41.7c0-0.6,0-1.3,0.9-1.7c2.4,1,3.5,3.3,4.9,5.3
		c21,30.2,23.2,61.8,7,94.8c-1.4,2.8-3.2,4.2-6.3,4.9C450.6,194,446.7,195.7,441.7,197.3z"/>
	<path class="st7" d="M470,219.1c0.3,4.2-1.9,7.2-4.7,9.9c-2,1.8-3.1,1.4-4.8-1.4c-0.6-0.9-1.7-0.9-2.7-0.8
		c-3.1,0.1-6.3-0.1-9.4,0.5c-4.4,0.8-5.7-1.3-6-5.1c-0.4-4.9-1-9.8-1.9-14.7c-0.4-2.3,1-3,2.4-3.8c4.5-2.4,9.4-3.8,13.9-6
		c3.5-1.7,7.2,0.5,8.9,4.2C468.2,207.3,468.9,213.3,470,219.1z M455.8,204.4c-3.9,0.4-7.4,1.4-10.8,5.9
		C449.9,208.8,453.1,207.1,455.8,204.4z M459.2,212.4c-3.6-1.5-7.2-2.4-10.4,0.8C452.3,213,455.8,212.7,459.2,212.4z M459.7,219
		c0-0.4-0.1-0.9-0.1-1.3c-3.5,1.8-7.2-2.3-11.9,1.3C452.5,219,456.1,219,459.7,219z"/>
	<path class="st8" d="M404.1,160.3c-1.6,0.8-2.8,1.4-3.9,1.9c-0.4,0.9,0.3,0.9,0.6,1c4.4,2.1,4.6,3.4,0.9,6.6
		c-4.1,3.5-8.4,6.5-13.6,8.1c-3,0.9-4.8,0.2-6-3.1c-2.2-5.9-3.6-11.8-2.7-18.1c0.6-4.2,2.9-5.6,7-4.6
		C392.5,153.8,397.9,157.1,404.1,160.3z"/>
	<path class="st7" d="M420.1,186.7c3.8-3.3,2.9-7.1,3.3-10.6c0.2-1.6-0.9-3.9,1.9-4.4c2.5-0.5,4.5,0.5,6.4,2.1
		c1.8,1.5,1,3.1,0.2,4.5c-3.6,6.1-6.4,12.7-12,17.4c-1.7,1.4-2.7,1.1-3.6-1c-3.1-7.3-5.8-14.9-10.5-21.4c-1.3-1.8-0.8-3.2,1.1-4
		c6.8-2.8,13.2,1.4,13.2,8.7C420.1,180.5,420.1,183.2,420.1,186.7z"/>
	<path class="st7" d="M412.5,198.5c-6.9-3.4-13.9-6.8-20.8-10.1c-3.6-1.7-1.7-4.3-0.2-5.4c1.9-1.4,3.3-3,4.8-4.6
		c4.3-4.2,5.7-4,9.1,2.2c3,5.5,5.4,11.3,8,16.9C413.1,197.8,412.8,198.2,412.5,198.5z"/>
	<path class="st8" d="M425.8,168.5c-2.4-0.4-4.9-0.9-7.4-1.2c-2.2-0.3-3-1.8-2.4-3.5c0.7-2,2.3-3.8-0.8-5.2
		c-0.5-0.3-0.4-1.7,0.4-2.2c3.5-2.3,6.6-5.1,10.8-6.1c2.6-0.6,4.2,1,4.7,3.4c0.6,2.7,1.1,5.6,1.2,8.4
		C432.5,168,431.8,168.6,425.8,168.5z"/>
	<path class="st7" d="M433.5,230.1c-0.9-6.9-1.4-13.4-3.1-19.8c-0.4-1.6-0.6-3.9,1.7-4.6c2.1-0.6,3.9,0,4.8,2.3
		c2.1,5.7,2.8,11.6,2.5,17.7C439.2,229,436.2,229.2,433.5,230.1z"/>
	<path class="st7" d="M419.2,252.9c0.9-3.3,0.8-6.9,0.4-10.5c-0.3-2.7,1.1-3.3,3.2-3.8c3.3-0.8,2.6,1.8,2.9,3.3
		c0.8,3.6,1.2,7.2,2.1,10.7c1.1,4.7-2,5.2-5.3,5.6C417.9,258.7,419.8,255.1,419.2,252.9z"/>
	<path class="st7" d="M336.3,83.4c-2.6-6.4-1.6-12.6,0.5-18.7c1-3,12.8-8.7,16.3-8.4c1,0.1,1.6,0.4,1.8,1.3c0.2,1-0.5,1.2-1.2,1.8
		c-2.7,2-6.2,1.1-8.9,3.2c-6.4,4.8-9.6,10.9-8.5,19C336.4,82.1,336.3,82.8,336.3,83.4z"/>
	<path class="st7" d="M371,36.9c-10.2,4.2-17.8,12.4-27.6,18.5C345.8,46.9,362.4,35.9,371,36.9z"/>
	<path class="st7" d="M364.1,151.2c3.3,1.1,6.6,0.9,9.9,1.2c1.7,0.2,2.8,0.7,2.2,2.8c-0.5,1.8-1.2,2.5-3.1,1.8
		C369.6,155.9,365.8,155.3,364.1,151.2z"/>
	<path class="st7" d="M401.1,152.7c4.9,0.4,9.5-0.4,14.6-2C410.8,156.5,407.4,156.9,401.1,152.7z"/>
	<path class="st8" d="M406.4,162.8c-0.5-2.8,0.6-4.2,2.7-4.2c2.1,0,3.3,1.5,3.4,3.5c0.1,2.4-1.5,4.5-3.5,4.7
		C406.4,166.9,407.5,163.6,406.4,162.8z"/>
	<path class="st6" d="M416.7,74.8c4.5,9.3,11.2,16.5,17.9,23.8c2.6,2.8,2.1,7.3-1.5,9.7c-6.1,4.1-12.5,7.4-20.4,6.9
		c-3.9-0.2-5.2-2.2-5.6-5.4c-0.2-1.3-0.4-2.9,1.4-3.3c1.7-0.3,1.5,1.4,1.8,2.4c0.8,3,3.1,3.1,5.5,2.9c4.9-0.5,9.3-2.8,13.5-5.1
		c3.3-1.8,2.5-4.9,0.1-7.1c-5-4.8-8.7-10.5-11.9-16.6C415.8,80.1,416.7,77.6,416.7,74.8z"/>
	<path class="st6" d="M423,129.3c0.6,2.8-1.6,3.3-3.3,4c-9.4,3.5-21-0.5-26.5-9c-0.7-1.1-1.2-2.1-0.2-3.1c0.6-0.6,1.7-0.5,2.1,0.4
		c4.9,8.8,13.5,7.5,21.5,7.9c2,0.1,4-0.2,6-0.3C422.6,129.3,423,129.3,423,129.3z"/>
	<path class="st6" d="M396.7,71.5c2.7,4.3,4.1,9,7.6,12.3c1.3,1.2,0.5,3.1-0.7,4.5c-2.6,2.9-10.6,3.3-13.4,0.7
		c-1-0.9-1.4-1.9-0.9-3.1c0.5-1.2,1.6-0.9,2.6-0.8c8.4,0.3,8.3,0.3,5.4-7.2C396.6,76.1,395.5,74.2,396.7,71.5z"/>
	<path class="st6" d="M395.4,115.6c7.8,2.1,14.3,4.4,21,3.3c4-0.7,3.5,2.5,3.7,4c0.3,2.6-2.3,1.5-3.7,1.6
		c-5.5,0.3-10.7-1.3-15.8-3.4C398.3,120.1,397.7,117.9,395.4,115.6z"/>
	<path class="st6" d="M387.2,56c1.2-0.2,2.7-0.7,4,0.6c0.7,0.7,1.3,1.5,1.1,2.6c-0.3,1.4-1.3,1.2-2.3,1.1
		c-6.4-0.8-10.3,2.7-13.3,7.8c-0.4,0.8-0.5,2.3-1.8,1.9c-1.5-0.4-1.1-1.8-1-2.9C374.5,61.4,380.7,56.1,387.2,56z"/>
	<path class="st6" d="M433.8,88.2c-1.5-0.1-3.6-0.9-3.5-3.2c0-1.8,2.3-1.9,3.7-1.9c4.4,0,6.2-0.9,2.6-5.1c-0.9-1.1-1.3-3.1,0.3-3.8
		c1.7-0.8,1.8,1.4,2.4,2.4c0.5,0.8,0.9,1.8,1.3,2.7C443,84.3,440.3,88.3,433.8,88.2z"/>
	<path class="st6" d="M335.8,95.7c1.3-3.2,3.1-5.1,6.8-4c4.2,1.2,6.3,5,5.8,11c-2.9-1.7-3.6-10.6-9-2.8
		C338.6,95.2,338.6,95.2,335.8,95.7z"/>
	<path class="st8" d="M423,129.3c0,0-0.4-0.1-0.4-0.1c0,0,0.2-0.1,0.2-0.1L423,129.3z"/>
	<path class="st6" d="M455.8,204.4c-2.7,2.7-5.9,4.4-10.8,5.9C448.3,205.8,451.9,204.8,455.8,204.4z"/>
	<path class="st6" d="M459.2,212.4c-3.5,0.3-6.9,0.5-10.4,0.8C452,210.1,455.6,211,459.2,212.4z"/>
	<path class="st6" d="M459.7,219c-3.6,0-7.2,0-12,0c4.6-3.6,8.4,0.5,11.9-1.3C459.7,218.1,459.7,218.5,459.7,219z"/>
</g>
<g class="st0">
	<path class="st9" d="M-239.5-174c-0.7,2.1,1.1,1.7,2,1.9c15.7,2.7,28.4,10.5,39.6,21.7c153.6,153.7,307.2,307.3,461,460.9
		c16.6,16.6,24.9,35.9,22.4,59.4c-1.7,16.2-8.7,29.9-20.1,41.4c-14.7,14.8-29.4,29.5-44.2,44.2C83.9,592.7-53.4,729.9-190.5,867.2
		c-11.8,11.8-24.1,22.5-41.1,26c-0.5,0.1-0.9,0.4-1.3,0.7c-0.6,0.6,0.1,0.7,0.4,1c-9.7,0-19.3,0-29,0c0.1-0.1,0.3-0.2,0.4-0.3
		c0.1-0.1,0.2-0.2,0.3-0.3c-0.7-0.4-1.3-1-2-1.2c-15-3.4-26.7-12.1-37.4-22.8c-153.3-153.4-306.7-306.8-460.1-460.1
		c-9.9-9.9-16.9-21.3-20.2-35c-0.2-1,0.4-3.1-2-2.3c0-8.7,0-17.3,0-26c0.1,0.1,0.2,0.3,0.4,0.4c0.1,0.1,0.3,0.2,0.3,0.2
		c0.4-0.7,1-1.4,1.2-2.1c3.2-15.3,11.5-27.3,22.4-38.1c51.1-50.9,102.1-102,153.1-153C-552,101.2-498.9,48-445.7-5.1
		c1.8-1.8,3-4.1,6.2-0.9c38.5,38.8,77.2,77.4,115.9,116c2,2,2.1,3.6,1.2,6.1c-14.2,40.7,3.1,83.2,41.6,101.9
		c3.2,1.6,4.2,3.3,4.2,6.7c-0.1,94.5-0.1,189,0,283.5c0,3.7-1.1,5.5-4.5,7.1c-36.2,17.4-54.3,57.9-43.3,96.3
		c10.9,38.3,47.8,62.9,87.9,58.6c34.7-3.7,63.8-29.9,70.8-63.9c7.4-35.5-8.5-71-39.8-88.4c-3-1.7-4.1-3.4-4.1-6.9
		c0.1-93.5,0.1-187,0.1-280.5c0-1.4-0.6-3,0.8-4.4c0.8,0.6,1.5,1.2,2.2,1.9c34.9,34.9,69.7,69.8,104.7,104.6c2.6,2.6,2,4.7,1,7.5
		c-19.7,57,27.9,115.5,87.6,107.7c46.9-6.1,79.4-50.8,70.2-96.7c-9.5-47.5-56.5-76.3-103-63c-3.2,0.9-5,0.4-7.3-1.9
		c-37.3-37.4-74.6-74.8-112.1-112.1c-2.3-2.3-2.9-4.1-2-7.4c8-30.5,1.7-57.7-20.5-80.1c-22.1-22.3-49.2-28.7-79.5-21.2
		c-3.3,0.8-5.4,0.6-7.9-1.9c-38.6-38.7-77.2-77.4-116-115.9c-3.3-3.3-2.7-4.8,0.2-7.6c29.2-29,58.4-58,87.3-87.3
		c12.1-12.3,25.4-21.9,42.8-24.8c0.8-0.1,2.6-0.1,1.2-1.8C-252.8-174-246.2-174-239.5-174z"/>
	<path class="st10" d="M2037.5,582c-1.8-0.2-3.3,0.6-4.8,1.3c-40.3,18.5-82.3,31.1-126.3,36.3c-38.5,4.5-76.9,3.4-114.3-7.8
		c-41.5-12.3-68-39.7-79.7-81.4c-6.2-22-8.6-44.5-8.7-67.2c-0.3-89.8-0.1-179.6-0.1-269.5c0-13.2-0.6-13.7-13.9-13.7
		c-19.5,0-39,0-58.5,0c-6.8,0-6.8-0.1-6.8-6.6c0-26,0.1-52-0.1-78c0-4.6,1.3-6.5,6-7c15.8-1.8,31.1-5.6,45.9-11.4
		c31.4-12.4,52.3-35.3,65.1-66.1c10.1-24.4,14.8-50.1,18.2-76.1c1.9-14.1-1.2-11.8,12.8-11.9c26.2-0.1,52.3-0.1,78.5,0
		c6.7,0,6.7,0,6.7,6.6c0,44.2,0,88.3,0,132.5c0,2.2,0,4.3,0,6.5c0.2,7.7,1.8,9.4,9.5,9.4c44,0,88,0,132,0c11.7,0,10.4-1.2,10.5,10.4
		c0,27.5,0,55,0,82.5c0,9.1,0,9.1-8.8,9.1c-45.3,0-90.7,0-136,0c-7.2,0-7.2,0-7.2,7.2c0,80.5-0.1,161,0.1,241.5
		c0,12.6,1.1,25.3,4.1,37.7c5.8,23.5,19.4,36.1,43.4,39.6c26,3.8,51.5,0.6,76.7-5.9c7.7-2,15.4-4.4,22.9-7c3.6-1.2,5.4-0.8,6.6,3.2
		c7.6,25.4,15.4,50.7,23.2,76c0.6,1.8,0.5,4.1,2.9,4.8C2037.5,578.7,2037.5,580.3,2037.5,582z"/>
	<path class="st10" d="M1496.5-174c1.5,3,4.6,2.3,7,2.8c14.4,3.3,27.5,9,38.5,19c12.1,11.1,19.3,24.9,22.7,40.8
		c4,18.2,4.1,36.4,0,54.5c-7.1,31.4-26.1,51.9-57.3,60.3c-21.8,5.9-43.9,6-65.6-0.3c-33.6-9.7-51.7-33-57.1-66.8
		c-2.4-15.2-2.2-30.5,0.8-45.7c6.4-32.4,28.2-54.6,60.6-61.7c2.6-0.6,5.8,0.2,7.5-2.9C1467.8-174,1482.2-174,1496.5-174z"/>
	<path class="st10" d="M1295.4,142.5c0,12.5-0.1,25,0.1,37.5c0.1,4-0.8,5.9-5.4,6.2c-26.4,1.8-52.8,3.9-79.2,5.9
		c-2.7,0.2-6.7-0.5-7.8,1.8c-1,2,2.4,4.3,3.9,6.4c18.8,26.2,30.4,54.9,31.7,87.5c1.7,41.5-7.8,79.7-33.4,113.1
		c-21,27.4-48.8,45.5-80.8,57.5c-30.3,11.3-61.7,16.3-94,16.8c-28.6,0.4-57-1-84.8-7.8c-2.9-0.7-5-0.3-6.8,2.5
		c-9.4,15.3-19,30.6-28.5,45.9c-2.6,4.2-2.2,4.8,2.9,5.1c35.6,2.1,71.1,3.9,106.7,6.3c35.9,2.4,71.8,4.4,107.5,8.9
		c30.6,3.9,61,8.9,89.7,21.1c37.6,16,60.6,43.7,67.5,84.1c5.8,33.4,4.7,66.4-7.8,98.3c-13.4,34.5-37.6,59.7-69,78.5
		c-31.5,18.8-65.9,29.3-101.8,35.8c-22,4-44.2,6-66.5,7.3c-19.7,1.1-39.3,1.2-59,0.5c-40.7-1.3-81.2-4.3-120.7-14.7
		c-24.5-6.4-48-15.2-68.3-30.8c-30.7-23.5-41.5-55.3-38.8-92.9c2.1-28.8,15.6-51.9,34.9-72.2c5.3-5.6,10.8-10.9,16.2-16.3
		c4.3-4.3,4.3-4.3-0.9-6.9c-22.3-11-35.4-28.5-38.8-53.3c-3.2-23.3,4.4-43.4,18.5-61.4c13-16.6,28.5-30.8,43.6-45.3
		c8.8-8.4,17.7-16.7,26.6-25c2.7-2.5,2.1-3.9-0.9-5.5c-49.7-27.6-75.4-71-81.8-126.4c-4.8-41,0.5-80.8,19.2-118.2
		c18.1-36.1,46.6-61.6,82.9-78.6c33.2-15.6,68.5-22.4,104.9-24.4c33.7-1.9,67.4-1.4,100.5,5.4c14.9,3.1,29.6,3.9,44.6,3.9
		c55.2-0.1,110.3-0.1,165.5-0.1c7.4,0,7.4,0,7.4,7.5C1295.4,118.5,1295.4,130.5,1295.4,142.5z M1007.9,368.1
		c10.2,0.5,20.6-0.5,30.8-3.2c30.9-8,53-25.8,62.3-57.2c4.2-14.1,4.3-28.6,2.5-43.1c-4.2-33.6-21.3-59.1-55.1-69.5
		c-24.9-7.6-50-7.2-74.9,0c-26.8,7.7-45.5,24.6-54.2,51.4c-6.5,20-7.4,40.5-3,61.1c5.9,27.7,22.7,45.7,49.4,54.6
		C979.2,366.7,993.2,368.5,1007.9,368.1z M1002.5,765c17.2,0.3,37-0.5,56.7-3.1c18.9-2.5,37.5-6.2,54.1-16.4
		c10.7-6.5,18.1-15.5,21.4-27.8c5.3-19.8-2.3-34.2-21.7-40.8c-3.5-1.2-7-2.2-10.6-3c-18.9-4.1-38.3-4.6-57.5-6
		c-21.6-1.5-43.2-2.8-64.7-4.3c-25.7-1.8-51.4-3.7-77.2-5.5c-2.4-0.2-4.2,0.6-5.7,2.5c-7.7,9.7-15.2,19.4-20.1,30.9
		c-10.1,23.7-3.1,44.8,19,57.2c6.8,3.8,14.2,6.5,21.8,8.5C945,764.3,972.4,765.2,1002.5,765z"/>
	<path class="st10" d="M1565.5,306.5c0,68.5,0,137,0,205.5c0,17.3,1.4,18.9,18.5,21.1c14.9,2,29.7,4.1,44.6,6
		c3.6,0.5,5.2,1.9,5.2,5.8c-0.1,23.7-0.1,47.3,0,71c0,3.7-1.5,5.1-5.1,4.9c-2.3-0.1-4.7,0-7,0c-90,0-180,0-270,0
		c-8.2,0-8.3,0-8.3-8.2c0-21.8,0-43.7,0-65.5c0-7.2,0.1-7.2,7.5-8.2c15.8-2.2,31.7-4.2,47.5-6.8c10-1.6,13.1-5.5,13.1-15.6
		c0.1-17.7,0.1-35.3,0.1-53c0-82.2,0-164.3,0-246.5c0-2.3,0.1-4.7,0-7c-0.4-10.7-4.1-15.8-14.1-19.3c-16-5.7-32-11.4-48.1-16.9
		c-4.7-1.6-6-3.7-5.3-8.7c3.5-23.4,6.5-46.8,9.5-70.3c0.5-4.2,2-6,6.6-6c66.5,0.1,133,0.1,199.5,0c5.1,0,6,2,6,6.5
		C1565.5,165.8,1565.5,236.2,1565.5,306.5z"/>
</g>
<image style="display:none;overflow:visible;enable-background:new    ;" width="2561" height="690" xlink:href="710D2DA3.jpeg"  transform="matrix(0.9986 0 0 0.9986 -152.4167 1310.4307)">
</image>
<image style="display:none;overflow:visible;enable-background:new    ;" width="2560" height="931" xlink:href="710D2DA1.png"  transform="matrix(1 0 0 1 325.6423 -1011.1769)">
</image>
<image style="display:none;overflow:visible;enable-background:new    ;" width="741" height="361" xlink:href="710D2DA7.jpeg"  transform="matrix(0.9972 0 0 0.9972 911.8542 726.2521)">
</image>
<image style="display:none;overflow:visible;enable-background:new    ;" width="2561" height="691" xlink:href="710D2DA1.jpeg"  transform="matrix(0.9986 0 0 0.9986 -916.1108 571.7167)">
</image>
<image style="display:none;overflow:visible;enable-background:new    ;" width="720" height="340" xlink:href="710D2DA3.jpeg"  transform="matrix(1 0 0 1 -2802.5171 601)">
</image>
<g class="st0">
	<path class="st11" d="M798.2,135.6c4.8-17.1,9.8-34.2,14.4-51.3c1.2-4.4,3-6.4,7.8-5.9c4.1,0.5,8.3,0.1,13,0.1
		c-2.9,9.4-5.6,18.3-8.4,27.1c-5.6,17.8-11.3,35.5-16.8,53.3c-1,3.4-2.5,4.7-6.2,4.6c-13.2-0.1-13.2,0-17.1-12.7
		c-4-13.2-8.1-26.4-12.3-39.6c-0.4-1.4-1-2.8-1.8-5.2c-1.4,4-2.5,7.1-3.4,10.2c-4.5,14.3-9,28.5-13.2,42.9c-1,3.3-2.3,4.4-5.8,4.4
		c-13.4-0.1-13.5,0.1-17.5-12.9c-7-22.4-14.1-44.7-21.1-67.1c-0.4-1.4-0.8-2.8-1.4-5c6,0,11.6-0.2,17.1,0.2c1.1,0.1,2.4,2.4,2.9,3.9
		c4.7,16.1,9.2,32.3,13.8,48.5c0.5,1.6,0.9,3.2,1.8,6c1.1-2.9,1.8-4.7,2.4-6.6c4.9-15.9,9.8-31.8,14.4-47.7c1-3.3,2.5-4.3,5.9-4.3
		c13,0.1,12.9,0,16.6,12.6c4.1,13.7,8.2,27.4,12.4,41.1c0.4,1.2,0.9,2.4,1.4,3.6C797.5,135.6,797.9,135.6,798.2,135.6z"/>
	<path class="st11" d="M1053.3,90.6c0-4.2,0-6.8,0-9.4c0-10.7,0.2-21.3-0.1-32c-0.1-4,1.3-5.3,5.2-5c4.1,0.3,8.2,0.1,12.7,0.1
		c0,39.8,0,79.1,0,118.8c-5.6,0-11.3,0-17.5,0c-0.2-3.5-0.4-7.1-0.6-11.1c-19.4,20.8-46.8,14.7-59.7,1.3c-15.4-16.1-17.1-43.7-3-61
		c7.9-9.6,18-15.1,30.5-15.8C1033.3,75.6,1043.9,79.9,1053.3,90.6z M1026.2,93.4c-15.6-0.1-27.5,11.5-27.6,26.8
		c-0.1,16.4,11.3,28.3,27.2,28.3c15.5,0.1,27.5-11.8,27.4-27.1C1053.1,105.3,1041.7,93.4,1026.2,93.4z"/>
	<path class="st11" d="M614,163.2c-5.8,0-11.4,0-17.6,0c-0.2-3.4-0.3-6.9-0.6-11.9c-9.9,11.9-22,15.4-35.6,13.9
		c-10.5-1.2-19.2-6.3-26-14.4c-15.3-18.2-14.2-45.7,2.4-62.4c16.2-16.2,38.9-16,59.1,1.2c0.2-3.8,0.4-7.2,0.6-10.8
		c5.9,0,11.6,0,17.6,0C614,107,614,134.9,614,163.2z M595.9,121.6c0.1-16.2-11.2-28.1-26.7-28.2c-15.9-0.1-27.7,11.5-27.8,27.2
		c0,16.1,11.3,27.9,27,28C584.1,148.6,595.9,137.1,595.9,121.6z"/>
	<path class="st11" d="M905.6,163.3c-6.4,0-11.9,0-17.7,0c0-28.1,0-56,0-84.3c5.7,0,11.4,0,17.6,0c0,2.9,0,5.7,0,9.3
		c1.3-0.9,2-1.3,2.5-1.8c10.1-10.4,24.2-13.3,37.6-7.8c10.9,4.4,17.8,12.9,18.4,24.2c1.1,19.9,0.3,39.9,0.3,60.2
		c-5.2,0-10.9,0-17.4,0c0-2,0-3.9,0-5.9c0-15.2,0.1-30.3-0.2-45.5C946.4,95.7,934,90.8,921,94c-10.1,2.5-15.2,10.6-15.3,23
		c-0.1,13.5,0,27,0,40.5C905.6,159.3,905.6,161.1,905.6,163.3z"/>
	<path class="st11" d="M1156.4,134.9c4.9,2.9,9.9,5.8,14.9,8.7c-8.4,17.1-29.2,25.6-49.7,20.6c-20.3-4.9-33.3-23-33-45.9
		c0.3-19.8,14.7-36.7,35.1-41.1c19.6-4.2,39.9,4.6,47.3,20.8c-4.8,2.8-9.7,5.6-15,8.7c-5-8.9-12.8-13-22.6-13
		c-7.8,0-14.6,2.8-20,8.6c-9.9,10.6-8.8,29.3,2.3,39.2C1124.7,149.8,1144.5,152.1,1156.4,134.9z"/>
	<path class="st11" d="M1258.3,146.4c6.5-3.6,11.4-6.4,16.3-9.1c7.2,11,16,14.3,27,10.5c3.7-1.3,6.7-3.1,7-7.5
		c0.3-4.3-2.3-7-5.9-8.4c-5.3-2.1-10.7-3.5-16.1-5.4c-3.8-1.3-7.6-2.5-11.2-4.3c-14.3-7.2-17.2-25.7-6-37
		c14.1-14.3,43.6-10.9,54.2,6.1c0.4,0.7,0.7,1.4,1.2,2.6c-4.9,2.8-9.7,5.4-14.7,8.2c-5.1-8.2-12.3-10.9-21.2-8.8
		c-3.9,0.9-7.1,2.9-7.7,7.4c-0.6,4.7,2.2,7.3,6,8.7c7.6,2.8,15.5,5,23.1,7.8c13.5,5.1,16.7,13.7,16.6,24
		c-0.1,10.4-7.9,19.5-19.5,22.6c-13,3.4-25.9,2.9-37.3-5.2C1266,155.5,1262.7,151,1258.3,146.4z"/>
	<path class="st11" d="M1195.5,137.3c7.8,11.1,16.9,14.4,27.7,10.3c3.4-1.3,6.3-3.2,6.4-7.4c0.2-4.1-2-6.8-5.5-8.1
		c-5.6-2.2-11.4-3.6-17-5.7c-4.7-1.7-9.5-3.3-13.6-6c-11.9-7.8-13.1-24.9-2.9-35.2c14.8-14.9,44.9-10.6,55.4,8.7
		c-4.8,2.7-9.6,5.4-14.7,8.3c-5-8-12-10.8-20.7-9c-4.2,0.9-7.5,2.9-8.2,7.6c-0.7,4.6,2.2,7.2,6,8.7c5.3,2,10.8,3.4,16.1,5.3
		c3.3,1.1,6.6,2.3,9.8,3.8c16.8,8.1,18.9,29,4.2,40.6c-13.3,10.4-46.4,10.2-57.3-11.7c-0.1-0.3-0.2-0.6-0.4-1.6
		C1185.5,143,1190.3,140.3,1195.5,137.3z"/>
	<path class="st11" d="M493.4,50.1c0,8.6,0.1,16.3-0.1,23.9c-0.1,3.5,1,4.7,4.5,4.6c5.3-0.3,10.6-0.1,16.3-0.1c0,5.8,0,11.2,0,17.3
		c-6.9,0-13.6,0-20.6,0c0,14.9-0.2,29,0.1,43.1c0.1,5.6,3.4,8,9.8,8.5c3.4,0.2,6.9,0,10.7,0c0,5.4,0,10.3,0,15.8
		c-10,1.9-20.1,2.1-29.3-3.2c-7.1-4.2-9.3-11.6-9.4-19.4c-0.2-13.3-0.3-26.7,0-40c0.1-4.1-1.3-5.3-5.1-5c-3.4,0.3-6.9,0.1-10.6,0.1
		c0-5.9,0-11.2,0-17c4.9,0,9.9,0,15.6,0c0-6.6,0.2-12.7-0.1-18.8c-0.2-3.5,0.9-5.1,4.3-5.9C484.1,53.1,488.3,51.6,493.4,50.1z"/>
	<path class="st11" d="M693.8,163.2c-6,0-11.6,0-17.9,0c0-1.9,0-3.5,0-5.1c0-37.9,0.1-75.9-0.1-113.8c0-4.5,1.3-5.9,5.6-5.5
		c3.9,0.3,7.9,0.1,12.3,0.1C693.8,80.5,693.8,121.6,693.8,163.2z"/>
	<path class="st11" d="M654.1,78.9c0,28.3,0,56,0,84.2c-5.9,0-11.6,0-17.6,0c0-28,0-55.9,0-84.2C642.3,78.9,648,78.9,654.1,78.9z"/>
	<path class="st11" d="M848,78.8c5.8,0,11.3,0,17.4,0c0.1,1.7,0.4,3.3,0.4,4.9c0,24.8-0.1,49.6,0.1,74.3c0,4.5-1.3,5.9-5.7,5.5
		c-3.9-0.4-7.9-0.1-12.2-0.1C848,135.2,848,107.3,848,78.8z"/>
	<path class="st11" d="M845.3,53.3c0-6.3,5.2-11.4,11.4-11.4c6.3,0,11.8,5.6,11.6,11.9c-0.2,6-5.8,11.3-11.8,11.2
		C850.3,64.9,845.3,59.7,845.3,53.3z"/>
	<path class="st11" d="M656.6,53.6c0,6.2-5.3,11.4-11.5,11.4c-6.3,0-11.7-5.6-11.5-11.9c0.2-6,5.8-11.3,11.8-11.2
		C651.5,42,656.6,47.4,656.6,53.6z"/>
</g>
<g class="st0">
	<path class="st12" d="M201.6,84.3c8.5-31.9,28.9-47.9,59.1-49.6c24-1.4,44.4,6.2,61,23.8c4.8,5.1,9.6,10.1,15.1,14.5
		c13.5,10.8,31.1,11.4,45.3,1.6c5-3.4,9.1-7.7,13.3-13c-0.1,3.3-1.2,5.6-1.9,7.9c-6.4,18.5-17.3,33.2-36.6,39.1
		c-29.3,9-56.3,4.8-79.1-17.3c-5.3-5.2-10.4-10.7-16-15.5c-15.8-13.5-35.4-13.3-51.1,0.4c-2.3,2-4.3,4.3-6.5,6.5
		C203.5,83.4,203.1,84.6,201.6,84.3z"/>
	<path class="st13" d="M330.8,139.3c-1.2,5.6-2.8,10-4.7,14.4c-10.4,23.9-28.8,35.9-54.6,37.1c-14.5,0.7-28.5-1-41.5-8.1
		c-8.3-4.6-15.2-10.9-21.9-17.6c-5.3-5.3-10.2-10.8-16.5-14.9c-14.3-9.4-32.5-7.6-46.3,4.5c-2.1,1.9-4,4-6,6c-0.7,0.7-1.1,1.9-3,1.8
		c1.2-3.4,2.2-6.7,3.4-9.8c9.5-24.1,27.2-37.2,53-39.4c20-1.7,38.4,2.2,54.4,15c6.6,5.3,12.2,11.6,18.3,17.4
		c5.9,5.7,12.2,11,20.5,13c16.6,3.9,29.7-2.3,40.7-14.3c0.7-0.7,1.3-1.5,1.9-2.2C329.1,141.3,329.7,140.6,330.8,139.3z"/>
</g>
<g class="st0">
	<path class="st14" d="M358.5,115.2c5.9,5.1,9.9,11.4,12.2,18.7c0.4,1.1,0.9,1.9,1.8,2.6c8.6,6.9,12.6,15.9,11.8,26.8
		c-1,13.7-12.1,25.4-25.6,27.2c-1.8,0.3-3.6,0.4-5.5,0.4c-7,0-14.1,0-21.1,0c-0.5,0-0.9,0-1.4-0.1c0-6.2,0-12.4,0-18.7
		c7.7,0,15.4,0,23.1,0c2.4,0,4.5-0.6,6.5-1.9c4.1-2.6,6.2-7.7,5-12.6c-1.2-4.8-5.4-8.4-10.3-8.8c-0.8-0.1-1.1-0.3-1.1-1.2
		c0.1-3.4-0.4-6.7-1.6-9.9c-1.5-3.8-4-6.9-7-9.6C349.7,124,354.1,119.6,358.5,115.2z"/>
	<path class="st15" d="M289.1,184.9c-6.3-4.7-10.3-10.9-11.6-18.7c-2.1-12.4,2.1-22.5,12-30.2c0.3-0.2,0.5-0.4,0.8-0.7
		c0.2-0.1,0.5-0.2,0.7-0.3c5-3.2,10.5-4.8,16.4-4.8c2.1,0,4.2,0.3,6.3,0.5c0.4,0.1,0.8,0.3,1.2,0.4c6.5,1.6,11.8,5.1,16.1,10.3
		c0.5,0.6,0.6,1-0.1,1.6c-4.1,4.1-8.2,8.1-12.2,12.2c-0.5,0.5-0.7,0.6-1.1-0.1c-2.7-4.9-8.2-7.2-13.6-5.6c-6.7,2-10.1,9.9-7,16.1
		c1.3,2.5,3.3,4.3,5.7,5.6c-2,1.9-3.9,3.9-5.8,5.8C294.2,179.7,291.6,182.3,289.1,184.9z"/>
	<path class="st16" d="M313.6,130.8c-2.1-0.2-4.1-0.5-6.3-0.5c-6,0-11.4,1.6-16.4,4.8c-0.2,0.1-0.5,0.2-0.7,0.3
		c1.3-4.9,3.5-9.4,6.5-13.4c7.2-9.7,16.7-15.5,28.6-17c12.3-1.6,23.3,1.8,32.8,9.8c0.1,0.1,0.3,0.3,0.4,0.4
		c-4.4,4.4-8.8,8.8-13.2,13.2c-0.1-0.1-0.2-0.1-0.3-0.1c-4.9-3.8-10.4-5.4-16.5-4.9C322.6,124,317.6,126.4,313.6,130.8z"/>
	<path class="st17" d="M289.1,184.9c2.5-2.6,5.1-5.2,7.6-7.7c1.9-1.9,3.9-3.9,5.8-5.8c2.4,1,5,0.9,7.5,0.9c6.9,0,13.7,0,20.6,0
		c0,6.2,0,12.4,0,18.7c-3.2,0-6.3,0.1-9.5,0.1c-4.8,0-9.6,0.1-14.3,0C300.3,190.9,294.3,188.9,289.1,184.9z"/>
</g>
<g class="st0">
	<path class="st18" d="M456.3,144.6c4.1,0,8.1,0,12.1,0c1,0,1.4,0.2,1.6,1.3c2.2,17.5-9.1,28.9-23.2,30.4
		c-13.4,1.4-23.5-3.9-30.2-15.3c-6.8-11.7-3.7-26.9,6.8-35.8c11.3-9.6,27.7-9.7,38.5-0.1c0.9,0.8,1.1,1.2,0.1,2.1
		c-1.3,1.1-2.5,2.4-3.7,3.7c-0.7,0.8-1.1,0.8-2,0.1c-7.6-6.3-18-6.6-25.9-0.8c-7.3,5.3-10.3,15.1-7.4,23.9
		c2.7,8.5,10.7,14.3,19.7,14.4c7,0,12.8-2.4,16.8-8.4c1.2-1.8,1.8-4,2.2-6.1c0.2-1.1-0.1-1.3-1.1-1.3c-5.4,0-10.8,0-16.3,0.1
		c-1.4,0-1.7-0.4-1.6-1.7c0.1-1.7,0.1-3.4,0-5.1c-0.1-1.1,0.4-1.4,1.4-1.4C448.2,144.7,452.3,144.6,456.3,144.6z"/>
	<path class="st18" d="M583.6,142.9c0.3-2.9,0.3-2.9,3.2-2.9c1.6,0,3.6-0.7,4.6,0.3c0.9,0.9,0.3,2.9,0.3,4.4c0,9.9,0,19.8,0,29.7
		c0,2.9-0.4,5.8-1.4,8.5c-2.4,6.2-7.2,9.5-13.6,10.4c-8.2,1.1-15.2-2.5-19-9.4c-0.6-1.2-0.6-1.8,0.8-2.3c1.5-0.5,3-1.2,4.5-1.9
		c0.9-0.4,1.4-0.3,1.9,0.7c2.5,4.6,6.8,6.4,11.6,5.3c4.4-1.1,7-4.4,7.3-9.7c0.1-1.1,0-2.3,0-3.4c-0.2,0-0.4,0-0.4,0
		c-4.9,5.6-14.8,4.9-20.6,0.1c-10.7-8.8-9.3-25.2,2.8-31.9c5.1-2.8,12.9-3,17.6,1.7C583.2,142.6,583.3,142.7,583.6,142.9z
		 M584.3,157.8c0-0.8,0-1.5-0.2-2.3c-0.8-4.3-2.9-7.5-7.3-8.8c-3.8-1.2-7.8,0.2-10.5,3.6c-3.4,4.2-3.4,10.7,0,14.9
		c3.8,4.8,10.6,5.3,14.8,1C583.4,163.8,584.3,161,584.3,157.8z"/>
	<path class="st18" d="M832.7,170.7c-1.9,2.3-3.9,4-6.5,4.9c-7.3,2.5-14.6,0-19-6.7c-5.8-8.7-3.5-21.2,4.9-27.1
		c6.2-4.4,14.9-3.3,19.9,2.4c0.1,0.2,0.2,0.4,0.3,0.5c0.7-0.2,0.5-0.6,0.5-0.9c0-6.1-0.1-12.1-0.2-18.2c0-1.2,0.4-1.5,1.5-1.4
		c1.6,0.1,3.7-0.7,4.8,0.3c1.1,0.9,0.3,3.1,0.3,4.7c0,14.8,0,29.6,0,44.5c0,1.4-0.3,1.9-1.7,1.7c-1.5-0.2-3.3,0.6-4.3-0.3
		C832.3,174.3,833.2,172.5,832.7,170.7z M810.6,158.3c-0.1,0.7,0.2,1.9,0.4,3.1c0.9,4.5,4.6,8.3,8.9,9c4.5,0.8,9-1.3,11.2-5.4
		c2.3-4.4,2.4-9,0.3-13.4c-2.8-6.1-10.2-8.1-15.5-4.4C812.2,149.6,810.7,153.4,810.6,158.3z"/>
	<path class="st18" d="M533.2,138.9c10.7,0,18.9,8.1,18.9,18.7c0,10.9-8.1,19.1-18.9,19.1c-10.8,0-19-8.1-19-19
		C514.3,146.9,522.4,138.9,533.2,138.9z M522.7,157.6c0,5.5,3.3,10.1,8.1,11.2c5.5,1.2,10.8-1.9,12.5-7.4c1.8-5.9-0.9-12.2-6.1-14.3
		C530,144.2,522.7,149.5,522.7,157.6z"/>
	<path class="st18" d="M492,138.9c10.8,0,19,8.1,19,18.8c0,10.8-8.2,18.9-19,18.9c-10.7,0-18.9-8.3-18.9-18.9
		C473,147,481.1,138.9,492,138.9z M502.5,157.9c0.1-5.2-2.8-9.6-7.4-11c-5.5-1.7-11.2,1.2-13.1,6.8c-2.1,6.1,0.8,12.8,6.4,14.9
		C495.4,171,502.4,165.8,502.5,157.9z"/>
	<path class="st18" d="M627.4,138.9c7,0,12.8,4.1,15.8,11.1c1.3,3.1,1.3,3.1-1.8,4.4c-6.9,2.8-13.8,5.7-20.8,8.5
		c-1.4,0.6-1.2,1.1-0.5,2.1c3.9,5.4,11.7,5.7,16.3,0.4c1-1.2,1.6-1.3,2.8-0.4c1.2,1,2.6,1.8,3.9,2.6c0.7,0.4,0.8,0.8,0.3,1.5
		c-4.3,6.1-12.6,8.9-20.5,6.9c-7.2-1.9-12.7-8.6-13.3-16c-0.6-7.5,1.5-13.7,7.8-18.1C620.5,139.7,623.8,138.8,627.4,138.9z
		 M628.2,146.2c-5.4,0-10.3,4.8-10.3,9.8c0,0.8,0.1,1.1,1,0.7c4.9-2.1,9.8-4.1,14.7-6.1c1-0.4,1-0.9,0.4-1.6
		C632.4,147,630.2,146.4,628.2,146.2z"/>
	<path class="st18" d="M661.3,149.6c-0.3-18.9,18.6-31.7,36.9-24.4c3,1.2,5.6,3.2,7.8,5.6c0.6,0.6,0.6,1-0.1,1.6
		c-1.1,0.9-2.1,1.9-3.1,3c-0.6,0.6-0.9,0.7-1.5,0c-5.5-5.9-12.4-7-19.7-4.8c-7.2,2.2-11.7,7.3-13.1,14.8c-1.2,6.4-0.4,12.6,3.9,17.8
		c7.4,9,21.1,9.7,29.4,1.5c0.3-0.4,0.7-0.7,1-1.1c0.5-0.6,0.9-0.6,1.4,0c0.9,1,1.9,2,2.9,2.9c1,0.8,0.8,1.4,0,2.3
		c-4,4-8.7,6.6-14.3,7.6c-11.2,2-22.2-2.3-28.3-12.7C662.2,159.2,661.2,154.6,661.3,149.6z"/>
	<path class="st18" d="M762.1,157.9c0,9.2-5.4,16.5-13.7,18.2c-13.3,2.8-23.2-7.1-22.3-19.8c0.6-9,6.7-14.8,12.9-16.4
		C751.3,136.7,762.1,145,762.1,157.9z M732.8,157.8c0,0.6,0,1.3,0,2c0.3,4.7,3.7,8.9,8,10.3c4.3,1.4,9-0.1,11.9-3.7
		c3.6-4.4,3.7-12,0.3-16.5c-3.7-4.9-10.5-5.9-15.3-2.4C734.2,150,732.7,153.5,732.8,157.8z"/>
	<path class="st18" d="M792.1,170.5c-1.9,2.5-3.8,4-6.2,5.1c-8.4,3.6-17.2-1.5-18.2-10.5c-0.7-7-0.2-14-0.3-21
		c-0.1-3.7,0-3.7,3.7-3.7c2.9,0,2.9,0,2.9,2.9c0,6.4,0,12.8,0.1,19.2c0.1,4.2,2.2,6.8,5.7,7.7c4.1,1.1,7.8-0.3,10-3.7
		c1.5-2.3,2-4.9,2-7.6c0-5.6,0-11.3,0-16.9c0-1.3,0.3-1.6,1.6-1.6c1.3,0.1,2.6,0.1,3.9,0c0.8,0,1.2,0.2,1.2,1.1
		c0,10.9,0,21.9,0,32.8c0,0.8-0.2,1.2-1.1,1.1c-1.4-0.1-2.7-0.1-4.1,0c-1.1,0.1-1.3-0.4-1.3-1.4C792.1,173.1,792.1,172,792.1,170.5z
		"/>
	<path class="st18" d="M597.3,147.6c0-8.6,0-17.3,0-25.9c0-1.4,0.4-1.8,1.7-1.7c1.6,0.1,3.3,0.1,4.9,0c1.4-0.1,1.8,0.3,1.8,1.7
		c-0.1,9.5,0,18.9,0,28.4c0,7.8,0,15.6,0,23.5c0,1.6-0.5,2-1.9,1.9c-1.6-0.1-3.3-0.1-4.9,0c-1.2,0.1-1.6-0.3-1.6-1.6
		C597.3,165.1,597.3,156.4,597.3,147.6z"/>
	<path class="st18" d="M713.8,149.9c0-8,0-16.1,0-24.1c0-1.3,0.4-1.6,1.6-1.5c1.6,0.2,3.7-0.7,4.8,0.3c1.1,1,0.4,3.2,0.4,4.9
		c0,14.7,0,29.3,0,44c0,1.5-0.3,2.2-1.9,2c-1.5-0.2-3.6,0.7-4.5-0.4c-0.9-0.9-0.2-2.9-0.3-4.4C713.8,163.7,713.8,156.8,713.8,149.9z
		"/>
</g>
<g class="st0">
	<path class="st11" d="M528.2,171.2h-10.1l18.4-52.4h11.7l18.5,52.4h-10.1l-14-41.6h-0.4L528.2,171.2z M528.5,150.7h27.6v7.6h-27.6
		V150.7L528.5,150.7z"/>
	<path class="st11" d="M582.4,148.2v23h-9.3V132h8.9v6.7h0.5c0.9-2.2,2.4-3.9,4.3-5.2c2-1.3,4.4-1.9,7.4-1.9c2.7,0,5.1,0.6,7.1,1.7
		s3.6,2.8,4.7,5c1.1,2.2,1.7,4.9,1.7,8v25h-9.3v-23.6c0-2.6-0.7-4.7-2-6.2c-1.4-1.5-3.2-2.2-5.6-2.2c-1.6,0-3.1,0.4-4.3,1.1
		s-2.2,1.7-2.9,3.1C582.8,144.7,582.4,146.3,582.4,148.2z"/>
	<path class="st11" d="M634.2,186.6c-3.3,0-6.2-0.4-8.6-1.3s-4.3-2.1-5.8-3.6s-2.5-3.1-3-4.9l8.3-2c0.4,0.7,0.9,1.4,1.6,2.2
		c0.7,0.7,1.7,1.4,2.9,1.9c1.2,0.5,2.8,0.8,4.6,0.8c2.6,0,4.8-0.6,6.5-1.9c1.7-1.3,2.6-3.3,2.6-6.1v-7.4h-0.5
		c-0.5,1-1.2,1.9-2.1,2.9s-2.1,1.9-3.6,2.5c-1.5,0.7-3.4,1-5.6,1c-3,0-5.8-0.7-8.2-2.1s-4.4-3.6-5.8-6.4c-1.4-2.8-2.2-6.4-2.2-10.7
		c0-4.3,0.7-8,2.2-10.9c1.4-3,3.4-5.2,5.8-6.8c2.5-1.5,5.2-2.3,8.2-2.3c2.3,0,4.2,0.4,5.7,1.2c1.5,0.8,2.7,1.7,3.6,2.8
		c0.9,1.1,1.6,2.1,2,3.1h0.5V132h9.1v39.9c0,3.3-0.8,6-2.4,8.2c-1.6,2.2-3.8,3.8-6.6,4.9C640.8,186.1,637.7,186.6,634.2,186.6z
		 M634.2,163.4c2,0,3.6-0.5,5-1.4s2.4-2.3,3.2-4.1c0.7-1.8,1.1-3.9,1.1-6.4c0-2.5-0.4-4.6-1.1-6.5c-0.7-1.9-1.8-3.3-3.1-4.3
		s-3.1-1.6-5-1.6c-2.1,0-3.8,0.5-5.2,1.6s-2.4,2.5-3.1,4.4c-0.7,1.9-1,4-1,6.4c0,2.4,0.4,4.5,1.1,6.3c0.7,1.8,1.8,3.2,3.1,4.2
		C630.5,162.9,632.2,163.4,634.2,163.4z"/>
	<path class="st11" d="M687.1,154.7v-22.8h9.3v39.3h-9v-7H687c-0.9,2.2-2.3,4-4.4,5.4c-2,1.4-4.5,2.1-7.5,2.1
		c-2.6,0-4.8-0.6-6.8-1.7c-2-1.1-3.5-2.8-4.6-5c-1.1-2.2-1.7-4.9-1.7-8v-25h9.3v23.6c0,2.5,0.7,4.5,2,5.9c1.4,1.5,3.2,2.2,5.4,2.2
		c1.4,0,2.7-0.3,4-1c1.3-0.7,2.3-1.7,3.2-3C686.7,158.4,687.1,156.7,687.1,154.7z"/>
	<path class="st11" d="M715.2,118.9v52.4h-9.3v-52.4C705.9,118.9,715.2,118.9,715.2,118.9z"/>
	<path class="st11" d="M736,172c-2.5,0-4.7-0.4-6.7-1.3c-2-0.9-3.5-2.2-4.7-4s-1.7-3.9-1.7-6.5c0-2.2,0.4-4.1,1.2-5.5
		s1.9-2.6,3.4-3.5c1.4-0.9,3-1.5,4.8-2c1.8-0.4,3.6-0.8,5.5-1c2.3-0.2,4.2-0.5,5.6-0.6c1.4-0.2,2.5-0.5,3.1-0.9c0.7-0.4,1-1.1,1-2
		v-0.1c0-1.9-0.6-3.4-1.7-4.5c-1.1-1.1-2.8-1.6-4.9-1.6c-2.3,0-4.1,0.5-5.4,1.5c-1.3,1-2.2,2.2-2.7,3.5l-8.6-1.2
		c0.7-2.4,1.8-4.4,3.4-6s3.5-2.8,5.8-3.6c2.3-0.8,4.8-1.2,7.5-1.2c1.9,0,3.8,0.2,5.7,0.7s3.6,1.2,5.1,2.2c1.5,1,2.8,2.4,3.8,4.1
		s1.4,3.9,1.4,6.5v26.3h-8.9v-5.4h-0.3c-0.6,1.1-1.4,2.1-2.4,3.1c-1,0.9-2.3,1.7-3.8,2.3C739.8,171.7,738,172,736,172z M738.4,165.2
		c1.9,0,3.5-0.4,4.8-1.1s2.4-1.7,3.2-2.9c0.7-1.2,1.1-2.6,1.1-4v-4.6c-0.3,0.2-0.8,0.5-1.5,0.7c-0.7,0.2-1.5,0.4-2.3,0.5
		c-0.9,0.1-1.7,0.3-2.5,0.4c-0.8,0.1-1.6,0.2-2.2,0.3c-1.4,0.2-2.6,0.5-3.7,0.9c-1.1,0.4-2,1-2.6,1.8c-0.6,0.8-1,1.7-1,2.9
		c0,1.7,0.6,3,1.9,3.9S736.4,165.2,738.4,165.2z"/>
	<path class="st11" d="M766,171.2V132h9v6.6h0.4c0.7-2.3,2-4,3.7-5.3c1.8-1.2,3.8-1.9,6-1.9c0.5,0,1.1,0,1.7,0.1
		c0.6,0,1.2,0.1,1.6,0.2v8.5c-0.4-0.1-1-0.3-1.8-0.4s-1.7-0.2-2.4-0.2c-1.7,0-3.2,0.4-4.5,1.1c-1.3,0.7-2.4,1.7-3.2,3
		c-0.8,1.3-1.1,2.8-1.1,4.4v23.1L766,171.2L766,171.2z"/>
</g>
<g class="st0">
	<path class="st11" d="M822.6,90.7c10.9-0.5,21.7-1.1,32.5-1.6c3.9-0.2,3.1,2.7,3.1,4.8c0,21.2,0,42.3,0,63.5c0,1.3,0,2.7,0,5.3
		c3.3-3.1,6-5.4,8.5-7.8c4.5-4.2,9-8.4,13.3-12.8c4.8-4.9,4.3-6.8-2.4-8.5c-1-0.2-1.9-0.4-3.1-0.7c0-1.5,0-2.9,0-4.6
		c11.7,0,23.3,0,35.2,0c1.3,3.2,0.2,4.8-3,5.6c-10.5,2.9-19,9.3-27.2,16.4c8.5,12.5,16.7,24.8,25.4,36.8c1.7,2.3,4.9,4.1,7.8,4.8
		c3.5,0.9,4.5,2.2,3.2,6.1c-10.1,0-20.4,0.1-30.7-0.1c-1.3,0-2.9-1.9-3.8-3.3c-6.2-9.5-12.2-19-18.3-28.6c-4,1.4-5.2,3.8-4.9,7.4
		c0.2,2.8,0,5.7,0,8.5c0,7.8,0.1,7.7,7.6,10.6c1.4,0.5,2,2.8,3.7,5.2c-15.9,0-30.2,0-44.6,0c-1.4-3.5-0.4-5.2,3.4-5.4
		c4.7-0.3,6.7-3.1,6.7-7.6c0-25.8,0.1-51.7,0-77.5c0-6.8-2.6-9.7-9.3-10.8C822.1,96,821.5,94.4,822.6,90.7z"/>
	<path class="st11" d="M967.5,134.1c0-1.6,0-3.1,0-4.9c10.7-0.6,21.1-1.3,31.5-1.6c1,0,2.6,2,2.9,3.2c0.5,2.2,0.1,4.5,0.1,7.7
		c2.6-2.1,4.5-3.7,6.3-5.2c7.3-6.4,16-8,25.3-6.6c10.8,1.7,17.3,10,17.5,22.2c0.2,11.5,0.2,23,0,34.5c-0.1,5,1.9,8.1,6.7,8.9
		c3.4,0.6,4.1,2.2,3.1,5.6c-13.8,0-27.6,0-41.5,0c-0.8-2.9-0.9-5.1,2.9-5.3c3.7-0.2,5.4-2.5,5.4-5.9c0-12.5,0.3-25-0.3-37.5
		c-0.3-8-4.5-11.6-11.1-11.3c-8.1,0.5-14.3,6.3-14.3,13.4c0,10.7,0.1,21.3-0.1,32c-0.1,4.8,1.4,7.9,6.3,9.3c1.5,0.4,2.4,2.7,3.6,4.1
		c-0.4,0.4-0.8,0.8-1.1,1.2c-14.1,0-28.1,0-42.3,0c0-1.7,0-3.1,0-4.7c1.5-0.3,2.8-0.6,4.1-0.8c4.1-0.5,6.3-2.8,6.3-7
		c0-13.7,0.2-27.3,0-41C978.8,137.5,973.6,135.1,967.5,134.1z"/>
	<path class="st11" d="M725.5,133.9c0-1.4,0-2.8,0-4.7c10.6-0.6,21-1.3,31.5-1.6c1,0,2.7,1.9,3,3.2c0.5,2.2,0.1,4.6,0.1,7.8
		c2.7-2.2,4.7-3.9,6.6-5.5c7.4-6.3,16.1-7.8,25.3-6.2c10.5,1.8,16.8,10,17.1,22c0.2,11.3,0.3,22.7,0,34c-0.1,5.4,1.7,8.7,7.1,9.5
		c3.8,0.6,3.4,2.8,2.6,5.6c-13.8,0-27.6,0-41.6,0c0-1.7,0-3.1,0-4.5c8.6-2.6,8.6-2.6,8.6-11.8c0-9,0-18,0-27c0-0.8,0-1.7,0-2.5
		c-0.4-5.5-0.6-11.6-7-13.7c-6.5-2.1-12.1,0.6-16.6,5.4c-1.2,1.3-2.1,3.5-2.1,5.3c-0.2,11.7,0,23.3-0.1,35c0,4.3,1.6,7.2,5.8,8
		c3.5,0.6,3.8,2.6,2.9,5.7c-14,0-28,0-42.3,0c0-1.6,0-3,0-4.6c1.4-0.3,2.7-0.6,4-0.8c4.4-0.5,6.4-3.1,6.4-7.4c0-13.3,0.1-26.6,0-40
		C736.8,138.8,734.3,136.6,725.5,133.9z"/>
	<path class="st11" d="M582.5,103.4c0-1.9,0-3.3,0-5c17.7,0,35.1,0,53,0c0.1,1.6,0.1,3.1,0.2,5c-2.3,0.4-4.2,0.8-6.2,1.1
		c-6.3,1.3-7.5,2.6-7.5,9c0,17.2,0,34.3,0,51.5c0,20.4-12.5,33.9-32.8,35.5c-7.6,0.6-15,0.3-22-3.2c-9.4-4.7-13.9-13.6-12.2-24
		c1-5.9,5-10.2,10.6-11.1c6.5-1.1,11.9,1.1,14.7,6c2.8,4.9,2.1,10.2-2.2,15.2c-2,2.4-4.3,4.5-6.4,6.8c3.9,4.8,10.1,5.3,16.2,1.4
		c5-3.2,7.6-8.1,8.1-13.7c0.7-7.9,0.8-15.9,0.8-23.9c0.1-12.3,0-24.6,0-37c0-9.3-1.2-10.7-10.4-12.7
		C585.3,104.1,584,103.8,582.5,103.4z"/>
	<path class="st11" d="M670.6,160.5c-1.8,12.1,3.2,23.7,11.6,27.6c11.1,5.1,20.8,2,32.1-10.4c1.5,1.1,3.2,2.1,5.1,3.5
		c-7.1,11.3-17.1,17.7-30.1,18.9c-5.7,0.5-11.7,0.1-17.3-1.2c-18.2-4.1-28.9-19.2-27.5-38c1.4-18.9,14.9-32.9,33.4-34.4
		c4.8-0.4,9.7-0.4,14.4,0.4c17.6,2.8,26.6,15.1,24.6,33.7C701.6,160.5,686,160.5,670.6,160.5z M693,154.3
		c-0.9-5.7-1.3-10.6-2.4-15.4c-0.9-3.8-3.3-6.5-7.5-6.9c-4.3-0.4-7.4,1.6-9.5,5.2c-3,5.3-3.8,11.1-3.3,17.2
		C677.7,154.3,684.8,154.3,693,154.3z"/>
	<path class="st11" d="M1078.6,195.2c-3.4,1.9-5.7,3.3-8,4.6c-0.5-0.4-0.9-0.8-1.4-1.1c0-8.4,0-16.8,0-25.6c2.7-1.3,4.4-0.2,6,3
		c5.4,10.6,12.8,18.7,26,18.4c6.3-0.1,9.9-2.8,10.8-7.6c1-5.3-1.1-8.9-7.4-11.3c-6.2-2.3-12.7-3.9-18.9-6.3
		c-11.5-4.4-17.2-14.6-14.5-25.7c2.1-8.3,8.2-12.7,15.8-15.2c10-3.3,20-2.6,30,0.4c1.4,0.4,2.8,0.9,3.1,1c3-1.7,5.2-2.9,8.5-4.7
		c0.4,9.3,0.8,16.9,1.1,24.6c-3.3,1.6-4.8,0.5-6.3-2.4c-4.3-8.4-10.4-14.8-20.7-14.8c-6,0-9.9,2.7-10.7,7c-0.9,4.7,1.3,8.2,7.2,10.4
		c7.1,2.7,14.7,4.5,21.6,7.6c11.1,5.1,15.3,15.5,11.5,26.5c-2.7,7.7-8.8,11.9-16.3,14.3C1102.6,202.4,1089.8,200.8,1078.6,195.2z"/>
	<path class="st11" d="M915.6,133.9c0-1.6,0-2.9,0-4.1c0.5-0.3,0.8-0.5,1.1-0.6c10.1-0.6,20.3-1.1,30.4-1.9c3.5-0.3,4.2,1.3,4.1,4.4
		c-0.1,16.6-0.1,33.3,0,49.9c0,7.3,0.8,8.4,7.7,10.7c2.9,1,2.9,1,2.6,5.4c-14.5,0-29,0-43.8,0c-1.2-3-0.9-4.8,3-5.3
		c6-0.9,7.3-2.6,7.3-8.6c0-11,0-22,0-32.9C928,138.3,927.6,137.7,915.6,133.9z"/>
	<path class="st11" d="M951.4,102.1c-0.1,7.1-6.2,12.7-13.9,12.6c-7.7-0.1-13.8-5.7-13.8-12.8c0-7.3,6.3-13,14.3-12.9
		C945.6,89.2,951.5,94.9,951.4,102.1z"/>
</g>
<g>
	<path class="st19" d="M93.5,252.4c9.6,0.2,14.9-4.3,14.5-11.9c-0.4-6.4-6.3-11.4-12.6-10.5c-7.4,1-10.9,7.1-9.3,16
		c-1.6,0-2.2-1.3-3.1-2.1c-21.6-22-34.5-48.2-37.9-78.9c-6.3-57.4,25-111.9,77.6-135.4c48.8-21.8,105.9-12.1,144.8,24.7
		c3.9,3.7,3.4,4.9,7.2-0.8c4-5.9,7.2-12.3,10.3-18.7c1.7,0.1,1.5,1.4,1.8,2.3c8.8,26.9,16.8,54,20.7,82.1
		c3.9,27.6,2.9,54.8-8.1,80.7c-19.3,45.4-53.5,73.1-102.1,81.3c-37.2,6.3-71.2-3.1-101.3-25.8c-0.7-0.5-1.4-1.1-2.1-1.7
		C93.8,253.4,93.8,253.1,93.5,252.4z M126.8,239.9c1.1,0.9,2.1,0.5,3.1,0.4c10.4-1.3,20.8-0.9,31.2-0.7c14.4,0.3,28.9,1.1,43.3,0.7
		c13.4-0.4,26.7-1.6,39.7-5.2c19.8-5.4,35.7-16.1,46.1-34.2c3.8-6.6,6.7-13.6,8.8-20.9c5.4-19.1,5.5-38.5,3.3-58
		c-2.7-24.1-8.9-47.3-16.5-70.3c-0.4-1.1-0.4-2.3-1.8-3.1c-2.7,4-4.8,8.2-7.8,12c-20.1,25.2-46.1,40.3-77.7,45.9
		c-10.9,1.9-21.9,2-32.9,2.7c-10,0.6-19.9,1.6-29.5,4.6c-21,6.7-37.3,19-46.4,39.6c-7.5,17-8.3,34.3-0.5,51.5
		c3.1,6.8,7.8,12.2,14.2,16.2c2.6,1.6,5.1,2,8,1.4c16.1-3.5,32.2-7.4,48.2-11.6c28.5-7.4,53.7-20.8,75.6-40.6
		c13.7-12.4,25.2-26.6,33.4-43.2c1.3-2.6,1.6-5.7,4.4-7.5c0.1-0.1,0.1-0.6,0-0.8c-0.1-0.2-0.5-0.3-0.7-0.3c-0.2,0-0.5,0.4-0.5,0.6
		c0.3,6.1-2.1,11.7-4.4,17.1c-18.9,43.6-50.5,73.7-95.6,89.1c-13.2,4.5-26.7,8.5-40,12.7C130.1,238.4,128.3,238.7,126.8,239.9z"/>
	<path class="st19" d="M996.6,197c-1.4,0.5-1.9,1.4-2.6,2.2c-19.2,22.4-48.9,22.1-68.7,10.8c-12.1-6.9-20.7-16.9-25.7-29.8
		c-7.6-19.7-7.8-39.7,0.1-59.2c7.9-19.6,22.4-32.1,43.3-36.1c19.7-3.8,36.5,1.7,49.8,16.9c1.1,1.3,2,2.9,3.6,3.8
		c1.5-0.7,1.1-2.1,1.1-3.1c0.1-2.4-0.1-4.8,0.4-7.1c1.5-6.5,7.6-11.2,14.4-11.2c6.9,0,12.6,4.7,14.1,11.4c0.4,1.9,0.5,3.8,0.5,5.8
		c0,28.9,0,57.7,0,86.6c0,8.8-0.8,17.5-3.4,26c-5.2,17.5-16.3,29.4-33.6,35.4c-9.1,3.2-18.5,4.4-28,4.7
		c-19.4,0.7-37.8-3.2-55.2-11.9c-5-2.5-7.6-7.3-7-12.4c0.6-5.1,4.5-9.4,9.6-10.6c3.4-0.8,6.5,0,9.5,1.6c6.2,3.4,12.7,5.9,19.5,7.4
		c10.7,2.4,21.5,3.1,32.3,0.6c14.8-3.5,24.1-13.7,26.2-28.7C996.9,199.2,997.1,198.1,996.6,197z M998.1,152.8
		c0-10.7-1.8-18.5-5.9-25c-7.9-12.7-19.3-19.5-34.3-18.3c-15.1,1.2-25.3,9.7-30.8,23.6c-4.6,11.7-4.5,23.7,0,35.3
		c5,13.1,14.5,21.3,28.7,23.1c13.9,1.8,25.1-3.2,33.7-14.1C995.7,169.7,998.1,160.6,998.1,152.8z"/>
	<path class="st19" d="M522,106.5c1.1-1.3,1.9-2.2,2.7-3.1c17-21,41.6-23.3,61.7-15.2c16.9,6.8,28.1,19.3,33.9,36.3
		c6.2,18.1,6.2,36.4-0.6,54.3c-7.6,20.2-22,33.4-43.4,37.8c-19.5,4-36.5-1.1-50.4-15.7c-1.1-1.2-2.2-2.4-3.4-3.5
		c-0.1-0.1-0.3-0.1-0.6-0.2c-1.1,1.3-0.7,3-0.7,4.5c0,11.8,0,23.5,0,35.3c0,1.6,0,3.3-0.1,4.9c-0.7,7.9-6.7,13.4-14.5,13.5
		c-7.7,0.1-13.9-5.5-14.6-13.4c-0.2-1.8-0.2-3.6-0.2-5.4c0-44.3,0-88.7,0-133c0-2.2,0-4.5,0.3-6.7c1-7.2,6.9-12.3,14.1-12.4
		c7.3-0.1,13.6,5.2,14.7,12.4c0.3,1.8,0.2,3.6,0.3,5.3C521.2,103.4,520.9,104.7,522,106.5z M520.4,150.8c0,11.5,3.4,21.2,10.1,28.8
		c16.3,18.6,45.7,16.4,57.8-4.8c9-15.8,9-32.4-0.2-48.1c-11.7-20-38.7-23.2-55.4-7C524,128.2,520.4,138.8,520.4,150.8z"/>
	<path class="st19" d="M797.1,103.7c1.8-0.6,2.3-1.6,2.9-2.4c10.5-12.8,24.3-17.6,40.4-16.8c11.9,0.6,22.4,4.5,30.6,13.5
		c7.3,8.1,10.5,17.8,11.5,28.5c0.4,4.1,0.3,8.3,0.3,12.5c0,19.8,0,39.6,0,59.4c0,1.6,0,3.3-0.1,4.9c-0.5,8.1-6.1,13.8-13.9,14
		c-8.2,0.2-14.4-5-15.3-13.1c-0.2-1.8-0.2-3.6-0.2-5.3c0-17.9,0-35.7,0-53.6c0-4.3-0.1-8.6-1-12.9c-2.9-13.7-12.6-22.2-28.6-21.1
		c-14.5,1-24.1,10.3-26.2,24.7c-0.5,3.1-0.7,6.2-0.7,9.3c0,18.5,0,36.9,0,55.4c0,2.2,0.1,4.5-0.6,6.6c-2.1,6.3-7.8,10.2-14.8,10
		c-6.6-0.2-11.9-4.5-13.5-11c-0.5-1.9-0.6-3.8-0.6-5.8c0-33,0-66.1,0-99.1c0-1.9,0.1-3.9,0.6-5.8c1.8-7.3,8.1-11.7,15.6-11
		c7.2,0.7,12.7,6.3,13.2,13.5C797,99.9,797,101.6,797.1,103.7z"/>
	<path class="st19" d="M432.4,217.4c-17.6-0.2-33.7-5.3-48.3-15.1c-5.9-3.9-7.5-11.1-3.9-16.8c3.4-5.4,10.6-7.2,16.5-3.6
		c7.6,4.6,15.3,8.6,24,10.6c7,1.6,14.1,2.3,21.2,0.6c2.9-0.7,5.6-1.9,7.8-4c5.3-5.1,5-13-0.7-17.6c-2.9-2.4-6.3-3.9-9.9-5.1
		c-5.8-1.9-11.6-3.7-17.4-5.5c-6.3-1.9-12.4-4.2-18.3-7.1c-26.5-13-22.3-46.8-4.8-59.6c10.2-7.5,21.7-10.2,34.1-9.8
		c12.7,0.4,24.7,3.8,36,9.4c2,1,4,2.1,5.5,3.7c3.9,4.1,4.6,10.1,1.7,14.8c-2.9,4.7-8.7,6.8-14,5c-1.8-0.6-3.5-1.5-5.3-2.3
		c-7.9-3.6-16-6.6-24.7-7.1c-3.7-0.2-7.4,0-11,1.2c-2.1,0.7-4.1,1.7-5.8,3.3c-4.7,4.5-4.7,11.4,0.1,15.8c2.4,2.3,5.4,3.7,8.4,5
		c5.9,2.5,12,4.3,18.1,6.3c7.8,2.5,15.5,5.3,22.5,9.7c8.2,5.1,14.2,11.9,15.7,21.7c2.2,14.5-2.1,31.7-19.9,40.8
		C452.4,215.6,443.3,217.5,432.4,217.4z"/>
	<path class="st19" d="M665.6,102.8c1.4-1.9,2.3-3.4,3.5-4.6c7.4-8.2,16.7-12.9,27.7-13.6c8-0.5,13.9,4.3,15,11.6
		c1.2,8.5-2.8,14.7-10.9,16.9c-2.4,0.6-4.9,1.1-7.3,2c-15.5,5.8-23.8,17.6-27.3,33.2c-0.9,4.2-1.1,8.5-1.1,12.9
		c0,13.1,0,26.2,0,39.3c0,2.1-0.1,4.2-0.6,6.2c-1.9,7.2-8.6,11.6-16.3,10.8c-6.8-0.8-12.1-6.4-12.5-13.6c-0.1-1.5,0-3,0-4.5
		c0-32.1,0-64.3,0-96.4c0-1.6,0-3.3,0.1-4.9c0.5-7.3,5.9-12.7,13.2-13.4c7-0.7,13.7,3.9,15.5,10.8
		C665.1,97.5,665.2,99.8,665.6,102.8z"/>
	<path class="st19" d="M723.3,150.6c0-16.4,0-32.8,0-49.1c0-2.2-0.1-4.5,0.6-6.6c1.9-6.3,7.5-10.4,14.1-10.4
		c6.7,0.1,12.4,4.5,14.1,10.9c0.5,2,0.7,4.1,0.7,6.2c0,33,0,66.1,0,99.1c0,1.6-0.1,3.3-0.4,4.9c-1.5,7.7-7.9,12.4-16,11.7
		c-7.3-0.6-12.9-6.4-13-14c-0.2-13.4-0.1-26.8-0.1-40.2C723.3,159,723.3,154.8,723.3,150.6z"/>
	<path class="st19" d="M737.9,63.7c-8.3,0-14.7-6.4-14.7-14.6c0-8.2,6.4-14.8,14.5-14.9c8.2-0.1,15.2,6.7,15.1,14.9
		C752.7,57.2,746.1,63.7,737.9,63.7z"/>
	<path class="st19" d="M1045.1,99.8c0-8.4,6.6-14.9,15-14.9c8.4,0,15,6.5,15.1,14.9c0.1,8.3-7,15.4-15.3,15.3
		C1051.6,114.9,1045,108.1,1045.1,99.8z M1059.9,87.1c-7.1,0.1-12.7,5.9-12.6,13c0.1,7.1,5.9,12.7,13,12.6c7-0.1,12.6-5.9,12.6-13
		C1072.7,92.7,1066.9,87,1059.9,87.1z"/>
	<path class="st19" d="M1066.3,108.1c-1.8,0.8-2.5-0.3-3.2-1.3c-0.9-1.3-1.8-2.7-2.7-4.1c-0.6-0.8-1.4-1-2.4-0.9
		c-1.2,0.2-1.2,1.1-1.2,2c-0.1,1.2-0.1,2.4-0.3,3.5c-0.1,0.4-0.5,0.7-1,0.7c-0.4,0-0.9-0.2-1-0.7c-0.1-0.4-0.2-0.9-0.2-1.3
		c0-4.1,0-8.3,0-12.5c0-1.6,0.7-2.5,2.4-2.4c1.9,0.1,3.9-0.2,5.8,0.2c4.4,0.9,6.1,5.7,2.8,8.7c-1.9,1.7-2.1,2.8-0.6,4.6
		C1065.4,105.7,1066.3,106.6,1066.3,108.1z M1059.9,99.5c2.9,0,4.6-1.2,4.5-3.1s-1.8-3-4.7-3c-2.6,0-3,0.4-2.9,3.2
		C1056.8,99.2,1057.1,99.5,1059.9,99.5z"/>
</g>
</svg>
