<?xml version="1.0" encoding="utf-8"?>
<!-- Generator: Adobe Illustrator 23.0.3, SVG Export Plug-In . SVG Version: 6.00 Build 0)  -->
<svg version="1.1" id="Layer_1" xmlns="http://www.w3.org/2000/svg" xmlns:xlink="http://www.w3.org/1999/xlink" x="0px" y="0px"
	 viewBox="0 0 1255 219" style="enable-background:new 0 0 1255 219;" xml:space="preserve">
<style type="text/css">
	.st0{fill:#08B6D3;}
	.st1{fill:#07B6D3;}
</style>
<image style="display:none;overflow:visible;enable-background:new    ;" width="572" height="89" xlink:href="7B1BC744.jpeg"  transform="matrix(0.9888 0 0 0.9888 36.357 195.6309)">
</image>
<image style="display:none;overflow:visible;enable-background:new    ;" width="1201" height="1201" xlink:href="7B1BC744.jpeg"  transform="matrix(0.3558 0 0 0.3558 502.6284 311.6284)">
</image>
<image style="display:none;overflow:visible;enable-background:new    ;" width="676" height="411" xlink:href="7B1BC744.jpeg"  transform="matrix(1 0 0 1 35 154)">
</image>
<image style="display:none;overflow:visible;enable-background:new    ;" width="2560" height="1069" xlink:href="7B1BC74C.jpeg"  transform="matrix(1 0 0 1 -907 -175)">
</image>
<image style="display:none;overflow:visible;enable-background:new    ;" width="800" height="206" xlink:href="7B1BC74C.jpeg"  transform="matrix(1 0 0 1 -27 257)">
</image>
<image style="display:none;overflow:visible;enable-background:new    ;" width="2561" height="690" xlink:href="7B1BC74C.jpeg"  transform="matrix(0.9986 0 0 0.9986 -275.8997 1310.4307)">
</image>
<image style="display:none;overflow:visible;enable-background:new    ;" width="2560" height="931" xlink:href="7B1BC74C.png"  transform="matrix(1 0 0 1 202.1593 -1011.1769)">
</image>
<image style="display:none;overflow:visible;enable-background:new    ;" width="741" height="361" xlink:href="7B1BC744.jpeg"  transform="matrix(0.9972 0 0 0.9972 788.3713 726.2521)">
</image>
<image style="display:none;overflow:visible;enable-background:new    ;" width="2561" height="691" xlink:href="7B1BC744.jpeg"  transform="matrix(0.9986 0 0 0.9986 -1039.5938 571.7167)">
</image>
<image style="display:none;overflow:visible;enable-background:new    ;" width="720" height="340" xlink:href="CB03CD23.jpeg"  transform="matrix(1 0 0 1 -2926 601)">
</image>
<g>
	<path d="M674.7,135.6c4.8-17.1,9.8-34.2,14.4-51.3c1.2-4.4,3-6.4,7.8-5.9c4.1,0.5,8.3,0.1,13,0.1c-2.9,9.4-5.6,18.3-8.4,27.1
		c-5.6,17.8-11.3,35.5-16.8,53.3c-1,3.4-2.5,4.7-6.2,4.6c-13.2-0.1-13.2,0-17.1-12.7c-4-13.2-8.1-26.4-12.3-39.6
		c-0.4-1.4-1-2.8-1.8-5.2c-1.4,4-2.5,7.1-3.4,10.2c-4.4,14.3-9,28.5-13.2,42.9c-1,3.3-2.3,4.4-5.8,4.4c-13.4-0.1-13.5,0.1-17.5-12.9
		c-7-22.4-14.1-44.7-21.1-67.1c-0.4-1.4-0.8-2.8-1.4-5c6,0,11.6-0.2,17.1,0.2c1.1,0.1,2.4,2.4,2.9,3.9c4.7,16.1,9.2,32.3,13.8,48.5
		c0.5,1.6,0.9,3.2,1.8,6c1.1-2.9,1.8-4.7,2.4-6.6c4.9-15.9,9.8-31.8,14.4-47.7c1-3.3,2.5-4.3,5.9-4.3c13,0.1,12.9,0,16.6,12.6
		c4.1,13.7,8.2,27.4,12.4,41.1c0.4,1.2,0.9,2.4,1.4,3.6C674,135.6,674.4,135.6,674.7,135.6z"/>
	<path d="M929.8,90.6c0-4.2,0-6.8,0-9.4c0-10.7,0.2-21.3-0.1-32c-0.1-4,1.3-5.3,5.2-5c4.1,0.3,8.2,0.1,12.7,0.1
		c0,39.8,0,79.1,0,118.8c-5.6,0-11.3,0-17.5,0c-0.2-3.5-0.4-7.1-0.6-11.1c-19.4,20.8-46.8,14.7-59.7,1.3c-15.4-16.1-17.1-43.7-3-61
		c7.9-9.6,18-15.1,30.5-15.8C909.8,75.6,920.4,79.9,929.8,90.6z M902.7,93.4c-15.6-0.1-27.5,11.5-27.6,26.8
		c-0.1,16.4,11.3,28.3,27.2,28.3c15.5,0.1,27.5-11.8,27.4-27.1C929.6,105.3,918.2,93.4,902.7,93.4z"/>
	<path d="M490.5,163.2c-5.9,0-11.4,0-17.6,0c-0.2-3.4-0.3-6.9-0.6-11.9c-9.9,11.9-22,15.4-35.6,13.9c-10.5-1.2-19.2-6.3-26-14.4
		c-15.3-18.2-14.2-45.7,2.4-62.4c16.2-16.2,38.9-16,59.1,1.2c0.2-3.8,0.4-7.2,0.6-10.8c5.9,0,11.6,0,17.6,0
		C490.5,107,490.5,134.9,490.5,163.2z M472.5,121.6c0.1-16.2-11.2-28.1-26.7-28.2c-15.9-0.1-27.7,11.5-27.8,27.2
		c0,16.1,11.3,27.9,27,28C460.7,148.6,472.4,137.1,472.5,121.6z"/>
	<path d="M782.1,163.3c-6.4,0-11.9,0-17.7,0c0-28.1,0-56,0-84.3c5.7,0,11.4,0,17.6,0c0,2.9,0,5.7,0,9.3c1.3-0.9,2-1.3,2.5-1.8
		c10.1-10.4,24.2-13.3,37.6-7.8c10.9,4.4,17.8,12.9,18.4,24.2c1.1,19.9,0.3,39.9,0.3,60.2c-5.2,0-10.9,0-17.4,0c0-2,0-3.9,0-5.9
		c0-15.2,0.1-30.3-0.2-45.5c-0.3-16.1-12.8-20.9-25.8-17.7c-10.1,2.5-15.2,10.6-15.3,23c-0.1,13.5,0,27,0,40.5
		C782.1,159.3,782.1,161.1,782.1,163.3z"/>
	<path d="M1033,134.9c4.9,2.9,9.9,5.8,14.9,8.7c-8.4,17.1-29.2,25.6-49.7,20.6c-20.3-4.9-33.3-23-33-45.9
		c0.3-19.8,14.7-36.7,35.1-41.1c19.6-4.2,39.9,4.6,47.3,20.8c-4.8,2.8-9.7,5.6-15,8.7c-5-8.9-12.8-13-22.6-13
		c-7.8,0-14.6,2.8-20,8.6c-9.9,10.6-8.8,29.3,2.3,39.2C1001.2,149.8,1021.1,152.1,1033,134.9z"/>
	<path d="M1134.8,146.4c6.5-3.6,11.4-6.4,16.3-9.1c7.2,11,16,14.3,27,10.5c3.7-1.3,6.7-3.1,7-7.5c0.3-4.3-2.3-7-5.9-8.4
		c-5.3-2.1-10.7-3.5-16.1-5.4c-3.8-1.3-7.6-2.5-11.1-4.3c-14.3-7.2-17.2-25.7-6-37c14.1-14.3,43.6-10.9,54.2,6.1
		c0.4,0.7,0.7,1.4,1.2,2.6c-4.9,2.8-9.7,5.4-14.7,8.2c-5.1-8.2-12.3-10.9-21.2-8.8c-3.9,0.9-7.1,2.9-7.7,7.4c-0.6,4.7,2.2,7.3,6,8.7
		c7.6,2.8,15.5,5,23.1,7.8c13.5,5.1,16.7,13.7,16.6,24c-0.1,10.4-7.9,19.5-19.5,22.6c-13,3.4-25.9,2.9-37.3-5.2
		C1142.5,155.5,1139.2,151,1134.8,146.4z"/>
	<path d="M1072,137.3c7.8,11.1,16.9,14.4,27.7,10.3c3.4-1.3,6.3-3.2,6.4-7.4c0.2-4.1-2-6.8-5.5-8.1c-5.6-2.2-11.4-3.6-17-5.7
		c-4.7-1.7-9.5-3.3-13.6-6c-11.9-7.8-13.1-24.9-2.9-35.2c14.8-14.9,44.9-10.6,55.4,8.7c-4.8,2.7-9.6,5.4-14.7,8.3
		c-5-8-12-10.8-20.7-9c-4.2,0.9-7.5,2.9-8.2,7.6c-0.7,4.6,2.2,7.2,6,8.7c5.3,2,10.8,3.4,16.1,5.3c3.3,1.1,6.6,2.3,9.8,3.8
		c16.8,8.1,18.9,29,4.2,40.6c-13.3,10.4-46.4,10.2-57.3-11.7c-0.1-0.3-0.2-0.6-0.4-1.6C1062,143,1066.8,140.3,1072,137.3z"/>
	<path d="M370,50.1c0,8.6,0.1,16.3-0.1,23.9c-0.1,3.5,1,4.7,4.5,4.6c5.3-0.3,10.6-0.1,16.3-0.1c0,5.8,0,11.2,0,17.3
		c-6.9,0-13.6,0-20.6,0c0,14.9-0.2,29,0.1,43.1c0.1,5.6,3.4,8,9.8,8.5c3.4,0.2,6.9,0,10.7,0c0,5.4,0,10.3,0,15.8
		c-10,1.9-20.1,2.1-29.3-3.2c-7.1-4.2-9.3-11.6-9.4-19.4c-0.2-13.3-0.3-26.7,0-40c0.1-4.1-1.3-5.3-5.1-5c-3.4,0.3-6.9,0.1-10.6,0.1
		c0-5.9,0-11.2,0-17c4.9,0,9.9,0,15.6,0c0-6.6,0.2-12.7-0.1-18.8c-0.2-3.5,0.9-5.1,4.3-5.9C360.6,53.1,364.8,51.6,370,50.1z"/>
	<path d="M570.3,163.2c-6,0-11.6,0-17.9,0c0-1.9,0-3.5,0-5.1c0-37.9,0.1-75.9-0.1-113.8c0-4.5,1.3-5.9,5.6-5.5
		c3.9,0.3,7.9,0.1,12.3,0.1C570.3,80.5,570.3,121.6,570.3,163.2z"/>
	<path d="M530.6,78.9c0,28.3,0,56,0,84.2c-5.9,0-11.6,0-17.6,0c0-28,0-55.9,0-84.2C518.8,78.9,524.5,78.9,530.6,78.9z"/>
	<path d="M724.5,78.8c5.8,0,11.3,0,17.4,0c0.1,1.7,0.4,3.3,0.4,4.9c0,24.8-0.1,49.6,0.1,74.3c0,4.5-1.3,5.9-5.7,5.5
		c-3.9-0.4-7.9-0.1-12.2-0.1C724.5,135.2,724.5,107.3,724.5,78.8z"/>
	<path d="M721.9,53.3c0-6.3,5.2-11.4,11.4-11.4c6.3,0,11.8,5.6,11.6,11.9c-0.2,6-5.8,11.3-11.8,11.2
		C726.8,64.9,721.8,59.7,721.9,53.3z"/>
	<path d="M533.1,53.6c0,6.2-5.3,11.4-11.5,11.4c-6.3,0-11.7-5.6-11.5-11.9c0.2-6,5.8-11.3,11.8-11.2C528,42,533.1,47.4,533.1,53.6z"
		/>
</g>
<g>
	<path class="st0" d="M78.2,84.3c8.5-31.9,28.9-47.9,59.1-49.6c24-1.4,44.4,6.2,61,23.8c4.8,5.1,9.6,10.1,15.1,14.5
		c13.4,10.8,31.1,11.4,45.3,1.6c5-3.4,9.1-7.7,13.3-13c-0.1,3.3-1.2,5.6-1.9,7.9c-6.4,18.5-17.3,33.2-36.6,39.1
		c-29.3,9-56.3,4.8-79.1-17.3c-5.3-5.2-10.4-10.7-16-15.5c-15.8-13.5-35.4-13.3-51.1,0.4c-2.3,2-4.3,4.3-6.5,6.5
		C80,83.4,79.6,84.6,78.2,84.3z"/>
	<path class="st1" d="M207.3,139.3c-1.2,5.6-2.8,10-4.7,14.4c-10.4,23.9-28.8,35.9-54.6,37.1c-14.5,0.7-28.5-1-41.5-8.1
		c-8.3-4.6-15.2-10.9-21.9-17.6c-5.3-5.3-10.2-10.8-16.5-14.9c-14.3-9.4-32.5-7.6-46.3,4.5c-2.1,1.9-4,4-6,6c-0.7,0.7-1.1,1.9-3,1.8
		c1.2-3.4,2.2-6.7,3.4-9.8c9.5-24.1,27.2-37.2,53-39.4c20-1.7,38.4,2.2,54.4,15c6.6,5.3,12.2,11.6,18.3,17.4
		c5.9,5.7,12.2,11,20.5,13c16.6,3.9,29.7-2.3,40.7-14.3c0.7-0.7,1.3-1.5,1.9-2.2C205.7,141.3,206.2,140.6,207.3,139.3z"/>
</g>
</svg>
