<svg xmlns="http://www.w3.org/2000/svg" xmlns:xlink="http://www.w3.org/1999/xlink" id="Layer_1" x="0" y="0" version="1.1" viewBox="0 0 2652.8 1153.2" style="enable-background:new 0 0 2652.8 1153.2" xml:space="preserve"><style type="text/css">.st0{display:none}.st1{fill:#c2002f}.st1,.st2,.st3{display:inline}.st2{fill:#dc0031}.st3{fill:#fefdfe}.st4{fill:#dc0132}.st4,.st5,.st6{display:inline}.st5{fill:#c20130}.st6{fill:#261d1e}.st7{fill:#fdfdfd}.st7,.st8,.st9{display:inline}.st8{fill:#ed3631}.st9{fill:#ef5133}.st10{fill:#413000}.st10,.st11,.st12{display:inline}.st11{fill:#404137}.st12{fill:#82cc29}.st13{fill:#fff}.st14,.st15,.st16{display:inline}.st15{fill:#08b6d3}.st16{fill:#07b6d3}.st17{fill:#2c84fb}.st17,.st18,.st19{display:inline}.st18{fill:#fdba01}.st19{fill:#fd2c27}.st20{fill:#01ac48}.st20,.st21,.st22{display:inline}.st21{fill:#60656b}.st22{fill:#5eb632}</style><g class="st0"><path d="M1195.7,487.4c0.4-0.3,0.7,0,1.1,0.1c20.1,7.2,40.2,14.3,60.3,21.5c5.8,2.1,11.7,4.2,17.5,6.2 c0.8,0.3,0.9,0.6,0.8,1.4c-0.4,3.3-0.8,6.6-1.2,9.9c-0.4,3.4-0.8,6.8-1.2,10.2c-0.4,3.3-0.8,6.7-1.1,10c-0.4,3.3-0.8,6.7-1.2,10 c-0.3,2.8-0.6,5.6-1,8.4c-0.4,3.4-0.8,6.8-1.2,10.1c-0.4,3.3-0.8,6.6-1.1,10c-0.4,3.3-0.8,6.6-1.1,10c-0.4,3.3-0.8,6.7-1.2,10 c-0.4,3.4-0.8,6.8-1.2,10.1c-0.2,1.6-0.4,3.2-0.5,4.8c-0.1,0.7-0.4,0.9-0.9,1.2c-9.2,5.1-18.3,10.1-27.4,15.2 c-12.8,7.1-25.6,14.2-38.4,21.3c-0.3,0.2-0.6,0.6-1,0.3c0.3-0.4,0.2-0.9,0.2-1.3c0-21.3,0-42.7,0-64c0.3,0,0.6,0,0.9,0 c6.4,0,12.8,0,19.2,0c0.7,0,1,0.2,1.3,0.9c3.1,7.8,6.2,15.5,9.3,23.3c0.3,0.7,0.6,0.9,1.3,0.9c5.6,0,11.1,0,16.7,0c1,0,1,0,0.6-0.9 c-14.8-33.2-29.5-66.4-44.3-99.6c-1.6-3.6-3.3-7.3-4.9-10.9c0-5.9,0-11.8,0-17.7C1195.9,488.2,1196,487.8,1195.7,487.4z" class="st1"/><path d="M1195.9,592.8c0,21.3,0,42.7,0,64c0,0.4,0.1,0.9-0.2,1.3c-4.4-2.4-8.8-4.8-13.2-7.3 c-17.7-9.8-35.4-19.6-53.1-29.4c-0.7-0.4-1-0.7-1.1-1.5c-0.7-6.5-1.5-13.1-2.2-19.6c-0.7-6.4-1.5-12.8-2.2-19.3 c-0.7-5.9-1.3-11.8-2-17.7c-0.7-6.5-1.5-12.9-2.2-19.4c-0.7-5.9-1.4-11.8-2-17.7c-0.4-3.3-0.7-6.5-1.1-9.8 c-0.1-0.7,0.1-0.9,0.7-1.1c24.9-8.9,49.8-17.8,74.8-26.7c1.3-0.4,2.5-0.9,3.8-1.3c0.3,0.3,0.2,0.8,0.2,1.2c0,5.9,0,11.8,0,17.7 c-0.1,0.2-0.3,0.5-0.4,0.7c-15.5,34.7-31,69.5-46.5,104.2c-1,2.1-1.9,4.3-2.9,6.5c0.4,0,0.8,0,1.1,0c5.5,0,11,0,16.5,0 c0.8,0,1.1-0.3,1.4-1c3.1-7.8,6.2-15.5,9.3-23.3c0.3-0.6,0.6-0.8,1.2-0.8c6.4,0,12.8,0,19.2,0 C1195.2,592.8,1195.6,592.8,1195.9,592.8z" class="st2"/><path d="M1195.9,592.8c-0.3,0-0.7,0-1.1,0c-6.4,0-12.8,0-19.2,0c-0.7,0-1,0.2-1.2,0.8c-3.1,7.8-6.2,15.5-9.3,23.3 c-0.3,0.7-0.6,1-1.4,1c-5.5,0-11,0-16.5,0c-0.3,0-0.6,0-1.1,0c1-2.3,1.9-4.4,2.9-6.5c15.5-34.7,31-69.5,46.5-104.2 c0.1-0.2,0.2-0.5,0.4-0.7c1.6,3.6,3.3,7.3,4.9,10.9c14.8,33.2,29.5,66.4,44.3,99.6c0.4,0.9,0.4,0.9-0.6,0.9c-5.6,0-11.1,0-16.7,0 c-0.7,0-1-0.2-1.3-0.9c-3.1-7.8-6.2-15.5-9.3-23.3c-0.3-0.6-0.5-0.9-1.3-0.9c-6.4,0-12.8,0-19.2,0 C1196.5,592.8,1196.2,592.8,1195.9,592.8z M1195.9,577.4c4.5,0,9.1,0,13.6,0c0.7,0,0.9-0.1,0.6-0.8c-4.6-11.1-9.2-22.2-13.9-33.3 c-0.1-0.2-0.1-0.5-0.3-0.6c-0.3,0.2-0.3,0.5-0.4,0.7c-3.1,7.5-6.3,15-9.4,22.5c-1.5,3.5-3,7.1-4.4,10.7c-0.1,0.3-0.5,0.8,0.3,0.8 C1186.7,577.4,1191.3,577.4,1195.9,577.4z" class="st3"/><path d="M1195.9,577.4c-4.6,0-9.3,0-13.9,0c-0.8,0-0.5-0.4-0.3-0.8c1.5-3.6,2.9-7.1,4.4-10.7c3.1-7.5,6.3-15,9.4-22.5 c0.1-0.3,0.1-0.6,0.4-0.7C1195.9,554.3,1195.9,565.8,1195.9,577.4z" class="st4"/><path d="M1195.9,577.4c0-11.5,0-23.1,0-34.7c0.3,0.1,0.3,0.4,0.3,0.6c4.6,11.1,9.2,22.2,13.9,33.3 c0.3,0.8,0.1,0.9-0.6,0.8C1205,577.4,1200.5,577.4,1195.9,577.4z" class="st5"/></g><g class="st0"><path d="M1205.7,708.3c-7.9,0-15.1-0.4-22.1-1.9c-2.7-0.6-4.3-1.7-5.1-4.6c-1.8-6.6-4-13-6.1-19.5 c-0.5-1.5-0.5-3.2-3-3.1c-7.6,0.3-14.3-2.8-20.9-6.1c-1.6-0.8-3.2-2-4.9-2.3c-8.3-1.6-10.4-7.2-9.5-14.7c0.5-4.5-1.3-7.6-4.6-10.8 c-37.8-37.2-36.6-99.3,2.5-135.2c2-1.8,2.9-3.6,3.2-6.3c0.6-5.9,2.2-11.5,7.6-15c0.7-0.4,1.3-1.1,1.5-1.9 c2.4-7.8,8.7-11.9,15.1-15.8c14.7-8.9,30.2-14,47.8-12.8c21.8,1.5,43.2,20.4,45,41.8c0.8,9.7,5.9,15.8,11.1,22.4 c18.8,24,23.2,50.9,16.3,79.9c-1.7,7.2-4.4,14.2-8,20.8c-1.1,2.1-0.8,2.9,0.8,4.5c6.7,6.7,9.5,23,5.8,31.8 c-1.8,4.3-4.6,6.9-9.3,7.2c-5.7,0.3-11.4,1.8-16.5-2.8c-2.5-2.3-10,1.3-12.7,3.4c-6.3,4.8-3.2,10.1-2.2,15.5 c1.3,7.1,1.5,11.2-6.7,12.6c-2.5,0.4-2.3,2.1-2,3.7c0.8,4.8-2,6.7-5.9,7.7C1216.9,708.2,1210.9,707.8,1205.7,708.3z M1241.3,485.5 c-3.3-5.7-7.7-10.3-12.5-13.2c-15.4-9.5-31.7-13.1-48.1-1.8c-3.9,2.7-8,5.3-11.2,8.7c-2.5,2.7-6.7,5.1-5.4,10c1,3.8,1,7.6,0.1,11.4 c-2,8-3.1,16-0.1,24.1c1,2.9,0.1,4.8-3.1,5.5c-3,0.7-4.8,0.7-5.7-3.2c-1.4-5.9-4.4-7.8-9.2-7c-4.6,0.8-8.6,5.2-9.1,9.8 c-0.5,4.2,0.6,7.9,2.8,11.7c3.3,5.8,8.8,7.8,14.5,4.5c1-0.6,2.2-2.1,3.4-0.5c0.9,1.3-0.1,2.3-1.1,3.4c-2.8,3.1-3.5,6.4-1.1,10.2 c0.9,1.4,1.1,3.1,1.6,4.7c5.4,18.5,19.6,21.7,34.5,15.5c-5-4.4-11.2-7.8-14.2-14.1c-0.9-1.9-4.1-4.2-1.6-6.2 c0.8-0.7,3.2,2.8,4.5,4.8c12.1,18.7,34.1,22.3,50.6,8.6c6.4-5.3,10.6-12,13.6-19.6c0.7-1.8,0.7-3.3,0-5c-1.9,0.8-2.9,2.2-4.1,3.3 c-2.8,2.4-5.6,5.1-9.6,5.7c-1.5,0.2-2.9,0.1-2.7-1.8c0.2-1.3-2-3.1,0.3-3.7c5.3-1.5,10.1-5.1,15.2-5.9c3.7-0.6,3.8-2.4,4.3-4.2 c3.7-11.8,2.1-24,1.8-36.1c-0.2-8.1-6.6-14.3-12.8-14.4c-1.6,0-4.3,1.7-4.6-0.8c-0.3-2.3,2.6-3.1,4.5-3.8 C1237.7,485.5,1239.1,485.7,1241.3,485.5z M1205.4,703c2.9,0.2,6.1,0.1,8.8-0.3c2.1-0.4,4.6,0.6,7.3-1.6c3.6-3,1.4-5.3,1.3-8 c-0.4-16.1-1.7-32.2-2.8-48.3c-0.3-4.4-1.8-5.7-5.4-6c-14.2-1.3-28.2,0.1-42.2,2.5c-1.5,0.3-3.3,0.8-2.4,2.8 c1.3,2.7,0.6,5.4,1.1,8.1c2.1,11,4.9,22,6.9,33c2.4,13.6,3.9,15.4,17.5,17.1C1198.7,702.8,1202.1,702.8,1205.4,703z M1131.6,638.3 c0.8-3,0.2-6-0.4-9c-2-10.4-7-19.7-9.9-29.8c-1.3-4.6-0.1-7.5,4.2-9.8c8.9-4.9,17.4-10.4,26.2-15.5c3.3-1.9,3.8-4.3,1.8-7.4 c-1.7-2.7-3.4-5.4-3.8-8.6c-0.3-2.7-1.8-3.9-4.2-4.9c-11-4.7-17.2-21.9-11.7-32.6c0.6-1.2,1.7-2.6,0.6-3.5 c-1.4-1.1-2.1,0.9-3.2,1.5c-0.6,0.3-0.9,0.9-1.4,1.4c-29.6,31.5-30.1,84.8-1,116.9C1129.4,637.5,1129.9,638.6,1131.6,638.3z M1247.3,630c5-1.6,8.9-3.3,13.1-4.2c3.2-0.6,4.9-2.1,6.3-4.8c16.2-33,13.9-64.6-7-94.8c-1.3-2-2.5-4.3-4.8-5.3 c-1,0.4-0.9,1.1-0.9,1.7c-0.7,14.6-3.1,28.8-10.5,41.7c-1.5,2.5-0.7,4.4,1.3,6.1c3.7,3.3,7.3,6.8,11.2,9.9c4.1,3.3,4.8,7.3,3.4,12 c-1.6,5.2-3.2,10.5-4.9,15.7C1252.1,615.2,1249.8,622.2,1247.3,630z M1275.7,651.7c-1.2-5.8-1.8-11.8-4.3-17.3 c-1.7-3.8-5.4-5.9-8.9-4.2c-4.6,2.2-9.5,3.6-13.9,6c-1.4,0.8-2.8,1.4-2.3,3.8c0.9,4.9,1.4,9.8,1.8,14.7c0.3,3.8,1.6,5.9,6,5.1 c3.1-0.6,6.3-0.3,9.4-0.5c1,0,2.1-0.1,2.7,0.8c1.7,2.8,2.8,3.3,4.8,1.5C1273.8,658.9,1276,655.9,1275.7,651.7z M1209.8,593 c-6.2-3.3-11.6-6.5-17.7-8.1c-4.1-1.1-6.4,0.3-7,4.6c-0.9,6.3,0.5,12.2,2.7,18c1.2,3.3,3,4,6,3.1c5.2-1.6,9.6-4.6,13.6-8.1 c3.7-3.2,3.5-4.5-0.9-6.6c-0.3-0.2-1-0.2-0.6-1C1207,594.4,1208.1,593.8,1209.8,593z M1225.7,619.3c0-3.5,0-6.2,0-8.8 c0-7.2-6.4-11.5-13.2-8.7c-1.9,0.8-2.3,2.2-1.1,4c4.7,6.5,7.4,14.1,10.5,21.4c0.9,2.2,1.9,2.5,3.6,1c5.6-4.7,8.4-11.3,12-17.4 c0.8-1.3,1.5-3-0.2-4.5c-1.9-1.5-3.9-2.5-6.4-2.1c-2.8,0.6-1.7,2.8-1.9,4.4C1228.6,612.2,1229.5,616,1225.7,619.3z M1218.2,631.1 c0.3-0.3,0.6-0.7,0.9-1c-2.7-5.7-5.1-11.4-8.1-16.9c-3.4-6.2-4.7-6.4-9-2.2c-1.6,1.6-3,3.2-4.9,4.6c-1.5,1.1-3.4,3.7,0.2,5.4 C1204.3,624.4,1211.2,627.8,1218.2,631.1z M1231.5,601.1c5.9,0.1,6.7-0.5,6.4-6.5c-0.1-2.8-0.6-5.6-1.2-8.4c-0.5-2.3-2.1-4-4.7-3.3 c-4.1,1-7.3,3.8-10.8,6.1c-0.8,0.5-0.9,1.9-0.4,2.2c3.1,1.4,1.5,3.2,0.8,5.2c-0.6,1.7,0.2,3.2,2.4,3.5 C1226.6,600.2,1229,600.7,1231.5,601.1z M1239.1,662.7c2.7-0.9,5.7-1.1,5.9-4.4c0.3-6-0.4-12-2.5-17.7c-0.9-2.4-2.7-3-4.8-2.3 c-2.4,0.7-2.2,3-1.7,4.6C1237.7,649.3,1238.2,655.8,1239.1,662.7z M1224.8,685.5c0.7,2.3-1.3,5.8,3.3,5.2c3.3-0.4,6.4-0.9,5.3-5.6 c-0.8-3.5-1.3-7.2-2.1-10.7c-0.3-1.5,0.4-4.1-2.9-3.3c-2.2,0.5-3.5,1.1-3.2,3.8C1225.6,678.5,1225.7,682.2,1224.8,685.5z M1142,516 c0-0.6,0.1-1.3,0-1.9c-1.1-8.1,2.1-14.1,8.5-19c2.7-2.1,6.3-1.1,8.9-3.2c0.7-0.5,1.4-0.8,1.2-1.8c-0.2-0.9-0.8-1.2-1.8-1.3 c-3.5-0.3-15.3,5.4-16.3,8.4C1140.4,503.4,1139.4,509.6,1142,516z M1176.6,469.5c-8.6-1-25.2,10-27.6,18.5 C1158.9,481.9,1166.4,473.7,1176.6,469.5z M1169.7,583.8c1.7,4.1,5.6,4.6,9,5.9c1.9,0.7,2.6,0,3.1-1.8c0.6-2.1-0.5-2.6-2.2-2.8 C1176.3,584.7,1173,585,1169.7,583.8z M1206.7,585.3c6.3,4.2,9.8,3.8,14.6-2C1216.2,584.9,1211.6,585.7,1206.7,585.3z M1212.1,595.4c1.1,0.8,0,4.1,2.6,3.9c2-0.2,3.6-2.3,3.5-4.7c-0.1-2-1.3-3.5-3.4-3.5C1212.7,591.2,1211.6,592.6,1212.1,595.4z" class="st6"/><path d="M1241.3,485.5c-2.2,0.2-3.6-0.1-4.8,0.4c-1.9,0.8-4.9,1.5-4.5,3.8c0.4,2.5,3,0.8,4.6,0.8 c6.3,0.1,12.6,6.3,12.8,14.4c0.3,12,1.9,24.2-1.8,36c-0.6,1.8-0.7,3.6-4.3,4.2c-5.1,0.8-9.8,4.5-15.2,5.9c-2.3,0.7-0.1,2.5-0.3,3.7 c-0.3,1.9,1.2,2,2.7,1.8c4-0.6,6.8-3.3,9.6-5.7c1.2-1.1,2.2-2.4,4.1-3.3c0.7,1.7,0.7,3.3,0,5c-3,7.6-7.1,14.3-13.5,19.6 c-16.5,13.7-38.4,10-50.6-8.6c-1.3-2-3.7-5.5-4.5-4.8c-2.5,2,0.7,4.4,1.6,6.2c3,6.3,9.2,9.7,14.2,14.1c-14.9,6.2-29.1,3-34.5-15.5 c-0.5-1.6-0.7-3.4-1.6-4.7c-2.4-3.8-1.7-7.1,1.1-10.2c1-1.1,2-2.1,1-3.4c-1.2-1.6-2.4-0.1-3.4,0.5c-5.7,3.3-11.2,1.3-14.5-4.5 c-2.1-3.8-3.2-7.4-2.8-11.7c0.5-4.7,4.5-9,9.1-9.8c4.7-0.8,7.8,1.1,9.2,7c0.9,3.8,2.8,3.8,5.7,3.1c3.2-0.7,4.2-2.6,3.1-5.5 c-2.9-8.1-1.8-16,0.1-24.1c0.9-3.8,1-7.5,0-11.4c-1.3-4.8,2.9-7.3,5.4-10c3.2-3.4,7.3-6,11.2-8.7c16.4-11.3,32.7-7.7,48.1,1.8 C1233.6,475.3,1238,479.8,1241.3,485.5z M1228.6,562l-0.1-0.2l-0.2,0.1c-2,0.1-4,0.4-6,0.3c-8-0.4-16.6,1-21.5-7.8 c-0.5-0.9-1.5-1-2.2-0.4c-1.1,1-0.5,2,0.2,3c5.4,8.5,17.1,12.5,26.5,9C1227.1,565.3,1229.3,564.7,1228.6,562z M1222.4,507.4 c0,2.8-0.9,5.3,0.7,8.2c3.3,6.1,6.9,11.8,11.9,16.6c2.3,2.3,3.1,5.3-0.1,7.1c-4.2,2.4-8.5,4.6-13.4,5.1c-2.4,0.3-4.8,0.1-5.6-2.9 c-0.3-1-0.1-2.7-1.8-2.4c-1.8,0.3-1.6,2-1.4,3.3c0.4,3.2,1.8,5.2,5.6,5.4c7.8,0.5,14.2-2.8,20.4-6.9c3.6-2.4,4.1-6.9,1.5-9.7 C1233.5,524,1226.8,516.7,1222.4,507.4z M1202.3,504.1c-1.2,2.7-0.1,4.6,0.6,6.4c2.9,7.5,2.9,7.5-5.4,7.2c-1,0-2.1-0.3-2.6,0.8 c-0.6,1.2-0.1,2.2,0.9,3.1c2.9,2.7,10.9,2.3,13.5-0.7c1.2-1.4,2-3.3,0.7-4.5C1206.3,513.1,1205,508.4,1202.3,504.1z M1201.1,548.2 c2.3,2.3,2.8,4.5,5.2,5.5c5.1,2.1,10.3,3.7,15.8,3.4c1.4-0.1,4,1.1,3.7-1.6c-0.2-1.5,0.3-4.7-3.7-4 C1215.3,552.6,1208.9,550.3,1201.1,548.2z M1192.9,488.6c-6.5,0.1-12.7,5.4-13.3,11.2c-0.1,1.1-0.5,2.5,1,2.9 c1.3,0.3,1.4-1.2,1.8-1.9c3-5.1,6.9-8.6,13.3-7.8c1,0.1,2,0.3,2.3-1.1c0.2-1.1-0.4-1.9-1.1-2.6 C1195.6,487.9,1194.1,488.4,1192.9,488.6z M1239.4,520.8c6.5,0.1,9.3-3.9,6.9-9c-0.4-0.9-0.8-1.8-1.3-2.7c-0.6-1-0.7-3.1-2.4-2.4 c-1.6,0.7-1.2,2.8-0.3,3.8c3.5,4.1,1.7,5.1-2.7,5.1c-1.4,0-3.7,0.2-3.7,1.9C1235.8,519.9,1237.9,520.7,1239.4,520.8z M1141.4,528.3 c2.8-0.5,2.8-0.5,3.5,4.1c5.4-7.8,6.1,1.1,9,2.8c0.5-6-1.5-9.7-5.8-11C1144.6,523.2,1142.7,525.2,1141.4,528.3z" class="st7"/><path d="M1205.4,703c-3.3-0.2-6.7-0.3-9.9-0.7c-13.6-1.7-15.1-3.5-17.5-17.1c-2-11.1-4.8-22-6.9-33 c-0.5-2.6,0.2-5.4-1.1-8.1c-0.9-1.9,0.9-2.5,2.4-2.8c14-2.4,28-3.8,42.2-2.5c3.6,0.3,5.1,1.6,5.4,6c1.1,16.1,2.3,32.2,2.8,48.3 c0.1,2.7,2.3,5-1.3,8c-2.6,2.2-5.1,1.2-7.3,1.6C1211.5,703.2,1208.3,703.3,1205.4,703z" class="st7"/><path d="M1131.6,638.3c-1.7,0.4-2.2-0.7-2.8-1.4c-29.1-32-28.6-85.3,1-116.9c0.5-0.5,0.8-1.1,1.4-1.4 c1-0.6,1.8-2.7,3.2-1.5c1.1,0.9,0.1,2.3-0.6,3.5c-5.5,10.7,0.6,27.9,11.7,32.6c2.4,1,3.9,2.3,4.2,4.9c0.4,3.2,2.1,5.9,3.8,8.6 c2,3.2,1.5,5.5-1.8,7.4c-8.7,5.1-17.3,10.6-26.2,15.5c-4.3,2.4-5.5,5.3-4.2,9.8c2.9,10.1,7.9,19.4,9.9,29.8 C1131.8,632.3,1132.3,635.3,1131.6,638.3z" class="st8"/><path d="M1247.3,630c2.5-7.8,4.8-14.8,7.1-21.8c1.7-5.2,3.3-10.5,4.9-15.7c1.5-4.7,0.7-8.7-3.4-12.1 c-3.9-3.1-7.5-6.6-11.2-9.9c-1.9-1.7-2.8-3.6-1.3-6.1c7.4-12.9,9.8-27.1,10.5-41.7c0-0.6,0-1.3,0.9-1.7c2.3,1,3.5,3.3,4.8,5.3 c21,30.2,23.2,61.8,7,94.8c-1.4,2.8-3.2,4.2-6.3,4.8C1256.3,626.6,1252.3,628.3,1247.3,630z" class="st8"/><path d="M1275.7,651.7c0.3,4.2-1.9,7.2-4.7,9.9c-2,1.8-3.1,1.3-4.8-1.5c-0.6-1-1.7-0.9-2.7-0.8 c-3.1,0.1-6.3-0.1-9.4,0.5c-4.4,0.8-5.7-1.3-6-5.1c-0.4-4.9-1-9.8-1.8-14.7c-0.4-2.3,1-3,2.3-3.8c4.5-2.4,9.4-3.8,13.9-6 c3.5-1.7,7.2,0.5,8.9,4.2C1273.8,639.9,1274.5,645.9,1275.7,651.7z M1261.4,637c-3.9,0.4-7.4,1.4-10.8,5.9 C1255.5,641.5,1258.7,639.7,1261.4,637z M1264.9,645.1c-3.6-1.5-7.2-2.4-10.4,0.8C1257.9,645.6,1261.4,645.3,1264.9,645.1z M1265.4,651.6c0-0.4-0.1-0.9-0.1-1.3c-3.5,1.8-7.2-2.3-11.9,1.3C1258.2,651.6,1261.8,651.6,1265.4,651.6z" class="st7"/><path d="M1209.8,593c-1.6,0.8-2.8,1.4-3.9,1.9c-0.4,0.9,0.3,0.9,0.6,1c4.4,2.1,4.6,3.4,0.9,6.6 c-4.1,3.5-8.4,6.5-13.6,8.1c-3.1,0.9-4.8,0.2-6.1-3.1c-2.2-5.9-3.6-11.8-2.7-18c0.6-4.2,2.9-5.6,7-4.6 C1198.2,586.4,1203.5,589.7,1209.8,593z" class="st8"/><path d="M1225.7,619.3c3.8-3.3,2.9-7.2,3.3-10.6c0.2-1.6-0.9-3.9,1.9-4.4c2.5-0.5,4.5,0.5,6.4,2c1.8,1.5,1,3.1,0.2,4.5 c-3.6,6.1-6.4,12.7-12,17.4c-1.7,1.4-2.7,1.2-3.6-1c-3.1-7.3-5.8-14.9-10.5-21.4c-1.3-1.8-0.8-3.2,1.1-4c6.8-2.8,13.2,1.4,13.2,8.7 C1225.7,613.2,1225.7,615.8,1225.7,619.3z" class="st7"/><path d="M1218.2,631.1c-6.9-3.4-13.9-6.8-20.8-10.1c-3.6-1.7-1.7-4.3-0.2-5.4c1.9-1.4,3.3-3,4.9-4.6 c4.3-4.2,5.7-4,9,2.2c3,5.5,5.4,11.3,8.1,16.9C1218.8,630.5,1218.5,630.8,1218.2,631.1z" class="st7"/><path d="M1231.5,601.1c-2.5-0.4-4.9-0.9-7.4-1.2c-2.2-0.3-3-1.8-2.4-3.5c0.7-2,2.3-3.8-0.8-5.2 c-0.6-0.3-0.4-1.7,0.4-2.2c3.5-2.3,6.6-5.1,10.8-6.1c2.6-0.6,4.2,1,4.7,3.4c0.6,2.7,1.1,5.5,1.2,8.3 C1238.1,600.6,1237.4,601.2,1231.5,601.1z" class="st8"/><path d="M1239.1,662.7c-0.9-6.9-1.4-13.5-3.1-19.8c-0.4-1.6-0.6-3.9,1.7-4.6c2.1-0.6,3.9,0,4.8,2.3 c2.1,5.7,2.8,11.6,2.5,17.7C1244.9,661.6,1241.8,661.8,1239.1,662.7z" class="st7"/><path d="M1224.8,685.5c0.9-3.3,0.8-6.9,0.4-10.5c-0.3-2.7,1.1-3.3,3.2-3.8c3.3-0.8,2.6,1.8,2.9,3.3 c0.8,3.5,1.2,7.2,2.1,10.7c1.1,4.7-2,5.2-5.3,5.6C1223.5,691.3,1225.4,687.7,1224.8,685.5z" class="st7"/><path d="M1142,516c-2.6-6.4-1.6-12.6,0.5-18.7c1-3,12.8-8.7,16.3-8.4c1,0.1,1.6,0.4,1.8,1.3c0.2,1-0.5,1.2-1.2,1.8 c-2.7,2-6.2,1.1-8.9,3.2c-6.4,4.8-9.6,10.9-8.5,19C1142,514.7,1142,515.4,1142,516z" class="st7"/><path d="M1176.6,469.5c-10.2,4.2-17.8,12.4-27.6,18.5C1151.4,479.5,1168,468.6,1176.6,469.5z" class="st7"/><path d="M1169.7,583.8c3.3,1.1,6.6,0.9,9.9,1.2c1.7,0.2,2.8,0.7,2.2,2.8c-0.5,1.8-1.2,2.5-3.1,1.8 C1175.3,588.5,1171.4,588,1169.7,583.8z" class="st7"/><path d="M1206.7,585.3c4.9,0.4,9.6-0.4,14.6-2C1216.5,589.1,1213.1,589.6,1206.7,585.3z" class="st7"/><path d="M1212.1,595.4c-0.5-2.8,0.6-4.2,2.7-4.2s3.3,1.5,3.4,3.5c0.1,2.4-1.5,4.5-3.5,4.7 C1212.1,599.5,1213.1,596.2,1212.1,595.4z" class="st8"/><path d="M1222.4,507.4c4.5,9.3,11.2,16.5,17.9,23.8c2.6,2.8,2.1,7.3-1.5,9.7c-6.1,4.1-12.5,7.4-20.4,6.9 c-3.8-0.2-5.2-2.2-5.6-5.4c-0.2-1.3-0.4-3,1.4-3.3c1.7-0.3,1.5,1.4,1.8,2.4c0.8,3,3.1,3.1,5.6,2.9c4.9-0.5,9.3-2.8,13.4-5.1 c3.3-1.8,2.5-4.9,0.1-7.1c-5-4.8-8.7-10.5-11.9-16.6C1221.5,512.7,1222.4,510.2,1222.4,507.4z" class="st6"/><path d="M1228.6,562c0.6,2.8-1.6,3.3-3.3,4c-9.4,3.5-21-0.5-26.5-9c-0.7-1.1-1.2-2.1-0.2-3c0.7-0.6,1.7-0.5,2.2,0.4 c4.9,8.8,13.5,7.5,21.5,7.8c2,0.1,4-0.2,6-0.3C1228.3,561.9,1228.6,562,1228.6,562z" class="st6"/><path d="M1202.3,504.1c2.7,4.3,4.1,9,7.6,12.3c1.3,1.2,0.5,3.1-0.7,4.5c-2.6,2.9-10.6,3.3-13.4,0.7 c-1-0.9-1.4-1.9-0.9-3.1c0.5-1.2,1.6-0.9,2.6-0.8c8.3,0.3,8.3,0.3,5.4-7.2C1202.2,508.7,1201.1,506.9,1202.3,504.1z" class="st6"/><path d="M1201.1,548.2c7.8,2.1,14.3,4.4,21,3.3c4-0.7,3.5,2.5,3.7,4c0.3,2.6-2.3,1.5-3.7,1.6 c-5.6,0.3-10.7-1.3-15.8-3.4C1203.9,552.7,1203.4,550.5,1201.1,548.2z" class="st6"/><path d="M1192.9,488.6c1.2-0.2,2.7-0.7,4,0.6c0.7,0.7,1.3,1.5,1.1,2.6c-0.3,1.4-1.3,1.2-2.3,1.1 c-6.4-0.8-10.3,2.7-13.3,7.8c-0.5,0.8-0.5,2.3-1.8,1.9c-1.5-0.4-1.1-1.8-1-2.9C1180.1,494,1186.4,488.7,1192.9,488.6z" class="st6"/><path d="M1239.4,520.8c-1.5-0.1-3.6-0.9-3.5-3.2c0-1.8,2.3-2,3.7-1.9c4.4,0,6.2-0.9,2.7-5.1c-0.9-1.1-1.3-3.1,0.3-3.8 c1.7-0.8,1.8,1.4,2.4,2.4c0.5,0.8,0.9,1.8,1.3,2.7C1248.7,516.9,1245.9,520.9,1239.4,520.8z" class="st6"/><path d="M1141.4,528.3c1.3-3.2,3.2-5.1,6.8-4c4.2,1.2,6.3,5,5.8,11c-2.9-1.7-3.6-10.6-9-2.8 C1144.2,527.8,1144.2,527.8,1141.4,528.3z" class="st6"/><path d="M1228.6,562c0,0-0.4-0.1-0.3-0.1s0.2-0.1,0.2-0.1L1228.6,562z" class="st8"/><path d="M1261.4,637c-2.7,2.7-5.9,4.5-10.8,5.9C1254,638.4,1257.5,637.4,1261.4,637z" class="st6"/><path d="M1264.9,645.1c-3.5,0.3-6.9,0.5-10.4,0.8C1257.7,642.7,1261.2,643.6,1264.9,645.1z" class="st6"/><path d="M1265.4,651.6c-3.6,0-7.2,0-12,0c4.6-3.6,8.4,0.5,11.9-1.3C1265.3,650.7,1265.3,651.2,1265.4,651.6z" class="st6"/></g><g class="st0"><path d="M566.1,258.6c-0.7,2.1,1.1,1.7,2,1.9c15.7,2.7,28.4,10.5,39.6,21.7C761.3,435.8,915,589.5,1068.7,743 c16.6,16.6,24.9,35.9,22.4,59.4c-1.7,16.2-8.7,29.9-20.1,41.4c-14.7,14.8-29.4,29.5-44.2,44.2 c-137.3,137.3-274.6,274.5-411.8,411.8c-11.8,11.8-24.1,22.5-41.1,26.1c-0.5,0.1-0.9,0.4-1.3,0.7c-0.6,0.6,0.1,0.7,0.4,1 c-9.7,0-19.3,0-29,0c0.1-0.1,0.3-0.2,0.4-0.3c0.1-0.1,0.2-0.2,0.3-0.3c-0.7-0.4-1.3-1.1-2-1.2c-15-3.4-26.7-12.1-37.4-22.8 c-153.2-153.5-306.6-306.8-460-460.1c-9.9-9.9-16.9-21.3-20.2-35c-0.2-1,0.4-3.1-2-2.3c0-8.7,0-17.3,0-26c0.1,0.1,0.2,0.3,0.4,0.4 c0.1,0.1,0.3,0.2,0.3,0.2c0.4-0.7,1-1.4,1.2-2.1c3.2-15.3,11.5-27.3,22.4-38.2c51.1-50.9,102.1-102,153.1-153 c53.1-53.1,106.3-106.3,159.4-159.4c1.8-1.8,3-4.1,6.2-0.9c38.5,38.8,77.2,77.4,115.9,116c2,2,2.1,3.6,1.2,6.1 c-14.2,40.7,3.1,83.2,41.6,101.9c3.2,1.6,4.2,3.3,4.2,6.7c-0.1,94.5-0.1,189,0,283.5c0,3.7-1.1,5.5-4.5,7.1 c-36.2,17.4-54.3,57.9-43.3,96.4c10.9,38.3,47.8,62.9,87.9,58.6c34.7-3.7,63.8-29.9,70.8-63.9c7.4-35.5-8.5-71-39.8-88.4 c-3-1.7-4.1-3.4-4.1-6.9c0.1-93.5,0.1-187,0.1-280.5c0-1.4-0.6-3,0.8-4.4c0.8,0.6,1.5,1.2,2.2,1.9c34.9,34.9,69.7,69.8,104.7,104.6 c2.7,2.6,2,4.7,1,7.5c-19.7,57,27.9,115.5,87.6,107.7c46.9-6.1,79.4-50.8,70.2-96.7c-9.5-47.5-56.5-76.3-103-63 c-3.2,0.9-5,0.4-7.3-1.9c-37.3-37.4-74.6-74.8-112.1-112.1c-2.3-2.3-2.9-4.1-2-7.4c8-30.5,1.7-57.7-20.5-80.1 c-22.1-22.3-49.2-28.7-79.5-21.2c-3.3,0.8-5.4,0.6-7.9-1.9c-38.6-38.7-77.2-77.4-116-115.9c-3.3-3.3-2.7-4.8,0.2-7.6 c29.2-29,58.4-58,87.3-87.3c12.1-12.3,25.4-21.9,42.8-24.8c0.8-0.1,2.6,0,1.2-1.8C552.8,258.6,559.5,258.6,566.1,258.6z" class="st9"/><path d="M2843.1,1014.6c-1.8-0.2-3.3,0.6-4.8,1.3c-40.3,18.5-82.3,31.1-126.3,36.3c-38.5,4.5-76.9,3.4-114.4-7.8 c-41.5-12.3-68-39.7-79.7-81.4c-6.2-22-8.6-44.5-8.7-67.2c-0.3-89.8-0.1-179.6-0.1-269.5c0-13.2-0.6-13.7-13.9-13.7 c-19.5,0-39,0-58.5,0c-6.8,0-6.8-0.1-6.8-6.6c0-26,0.1-52-0.1-78c0-4.6,1.3-6.5,6-7c15.8-1.8,31.1-5.5,45.9-11.4 c31.4-12.4,52.3-35.3,65.1-66.1c10.1-24.4,14.8-50.1,18.2-76.1c1.9-14.1-1.1-11.9,12.8-11.9c26.2-0.1,52.3,0,78.5,0 c6.7,0,6.7,0,6.7,6.6c0,44.2,0,88.3,0,132.5c0,2.2,0,4.3,0,6.5c0.2,7.7,1.8,9.4,9.5,9.4c44,0,88,0,132,0c11.7,0,10.4-1.1,10.5,10.4 c0,27.5,0,55,0,82.5c0,9.1,0,9.1-8.8,9.1c-45.3,0-90.6,0-136,0c-7.2,0-7.2,0-7.2,7.2c0,80.5-0.1,161,0.1,241.5 c0,12.7,1.1,25.3,4.1,37.7c5.8,23.5,19.4,36.1,43.4,39.6c26,3.8,51.5,0.6,76.7-5.9c7.7-2,15.4-4.4,22.9-7c3.6-1.2,5.4-0.8,6.6,3.2 c7.6,25.4,15.4,50.7,23.2,76c0.6,1.8,0.5,4.1,2.9,4.8C2843.1,1011.3,2843.1,1012.9,2843.1,1014.6z" class="st10"/><path d="M2302.1,258.6c1.5,3,4.6,2.3,7,2.8c14.4,3.3,27.5,9,38.5,19c12.1,11.1,19.3,24.9,22.7,40.8 c4,18.1,4.1,36.4,0,54.5c-7.1,31.4-26.1,51.9-57.3,60.3c-21.8,5.9-43.9,6-65.6-0.3c-33.6-9.7-51.7-33-57.1-66.8 c-2.4-15.2-2.2-30.5,0.8-45.7c6.4-32.4,28.2-54.6,60.6-61.7c2.6-0.6,5.8,0.2,7.5-2.9C2273.5,258.6,2287.8,258.6,2302.1,258.6z" class="st10"/><path d="M2101,575.1c0,12.5-0.1,25,0.1,37.5c0.1,4-0.8,5.9-5.4,6.2c-26.4,1.8-52.8,3.9-79.2,5.9 c-2.7,0.2-6.7-0.5-7.8,1.8c-0.9,2,2.4,4.3,3.9,6.4c18.8,26.2,30.4,54.9,31.7,87.5c1.7,41.5-7.8,79.7-33.4,113 c-21,27.4-48.8,45.5-80.8,57.5c-30.3,11.3-61.7,16.3-94,16.8c-28.6,0.4-56.9-1-84.8-7.8c-2.9-0.7-5-0.3-6.8,2.5 c-9.4,15.3-19,30.6-28.5,45.9c-2.6,4.2-2.2,4.8,2.9,5.1c35.6,2.1,71.1,3.9,106.7,6.3c35.9,2.4,71.8,4.4,107.5,8.9 c30.6,3.9,61,8.9,89.7,21.1c37.6,16,60.6,43.7,67.5,84.1c5.8,33.4,4.7,66.4-7.8,98.3c-13.4,34.5-37.6,59.7-69,78.5 c-31.5,18.8-65.9,29.3-101.8,35.8c-22,4-44.2,6-66.5,7.3c-19.7,1.1-39.3,1.2-58.9,0.5c-40.7-1.3-81.2-4.3-120.7-14.7 c-24.5-6.4-48-15.2-68.3-30.8c-30.7-23.5-41.5-55.3-38.8-92.9c2.1-28.8,15.6-51.9,34.9-72.2c5.3-5.6,10.8-10.9,16.2-16.3 c4.3-4.3,4.3-4.3-0.9-6.9c-22.3-11-35.4-28.5-38.8-53.3c-3.2-23.3,4.4-43.4,18.5-61.4c13-16.6,28.5-30.8,43.6-45.3 c8.8-8.4,17.7-16.7,26.6-25c2.7-2.5,2.1-3.9-0.9-5.5c-49.7-27.6-75.4-71-81.8-126.4c-4.8-41,0.5-80.8,19.2-118.1 c18.1-36.1,46.6-61.6,82.9-78.6c33.2-15.6,68.5-22.4,104.9-24.4c33.7-1.9,67.3-1.4,100.5,5.4c14.9,3.1,29.6,3.9,44.6,3.9 c55.2-0.1,110.3-0.1,165.5-0.1c7.4,0,7.4,0,7.4,7.5C2101,551.1,2101,563.1,2101,575.1z M1813.5,800.7c10.2,0.5,20.6-0.5,30.8-3.2 c30.9-8,53-25.8,62.3-57.2c4.2-14.1,4.3-28.6,2.5-43.1c-4.2-33.6-21.3-59.1-55.1-69.5c-24.9-7.6-50-7.2-74.9,0 c-26.8,7.7-45.5,24.5-54.2,51.4c-6.5,20-7.4,40.5-3,61.1c5.9,27.7,22.7,45.7,49.4,54.6C1784.9,799.3,1798.8,801.1,1813.5,800.7z M1808.2,1197.7c17.2,0.3,37-0.5,56.7-3.1c18.9-2.5,37.5-6.2,54.1-16.4c10.7-6.5,18.1-15.5,21.4-27.8c5.3-19.8-2.3-34.2-21.7-40.8 c-3.5-1.2-7-2.2-10.6-3c-19-4.1-38.3-4.6-57.5-6c-21.6-1.5-43.2-2.8-64.7-4.3c-25.7-1.8-51.4-3.7-77.2-5.5 c-2.4-0.2-4.2,0.6-5.7,2.5c-7.7,9.7-15.2,19.4-20.1,30.9c-10.1,23.7-3.1,44.8,19,57.2c6.8,3.8,14.2,6.5,21.8,8.5 C1750.6,1196.9,1778,1197.8,1808.2,1197.7z" class="st10"/><path d="M2371.1,739.1c0,68.5,0,137,0,205.5c0,17.3,1.4,18.9,18.5,21.1c14.9,2,29.7,4.1,44.6,6 c3.6,0.5,5.2,1.9,5.2,5.8c-0.1,23.7-0.1,47.3,0,71c0,3.7-1.5,5.1-5.1,4.9c-2.3-0.1-4.7,0-7,0c-90,0-180,0-270,0 c-8.2,0-8.3,0-8.3-8.2c0-21.8,0-43.7,0-65.5c0-7.2,0.1-7.2,7.5-8.2c15.8-2.2,31.7-4.2,47.5-6.8c10-1.6,13.1-5.5,13.1-15.6 c0.1-17.7,0.1-35.3,0.1-53c0-82.2,0-164.3,0-246.5c0-2.3,0.1-4.7,0-7c-0.4-10.7-4.1-15.8-14.1-19.3c-16-5.7-32-11.4-48.1-16.8 c-4.7-1.6-6-3.7-5.3-8.7c3.5-23.4,6.5-46.8,9.5-70.3c0.5-4.2,2-6,6.6-6c66.5,0.1,133,0.1,199.5,0c5.1,0,6,2,6,6.5 C2371.1,598.5,2371.1,668.8,2371.1,739.1z" class="st10"/></g><g class="st0"><path d="M914.1,922.1c-1.1-3.3-4.4-3.8-6.9-5.2c-54.5-31.6-109-63.1-163.7-94.5c-9.4-5.4-13.6-12.7-13.6-23.6 c0.2-63.5,0.2-127,0-190.5c0-11,4.3-18.4,13.9-23.9c55-31.5,109.8-63.1,164.5-95c9.2-5.3,17.6-5.8,26.8-0.3 C947,496.2,959,503,971,509.9c10.3,5.9,14.9,3.4,14.9-8.4c0-83.2,0-166.3-0.1-249.5c0-6.9-0.1-13.6,5.1-19c3.7,0,7.3,0,11,0 c0.5,2.6,3,3,4.7,4c30.4,17,60.6,34.3,91.2,50.8c11.3,6.1,16.2,14.2,16.2,27.1c-0.2,160.6-0.2,321.2,0,481.8 c0,12.5-4.6,20.5-15.4,26.6c-55,31.4-109.7,63.2-164.5,94.9c-1.6,0.9-4,1.2-4.3,3.7C924.7,922.1,919.4,922.1,914.1,922.1z M857.3,703.2c0,10.3,0.1,20.7,0,31c0,4.1,1.4,6.9,5,9c18.1,10.3,36.1,20.7,54.1,31.3c3.6,2.1,6.7,2.1,10.2,0.1 c18-10.5,36-21,54-31.3c3.4-2,5.1-4.5,5.1-8.4c0-20.8,0-41.6,0-62.5c0-3.8-1.4-6.6-4.9-8.5c-18.2-10.4-36.4-20.9-54.5-31.5 c-3.4-2-6.3-2.1-9.7,0c-18,10.5-36,21-54.1,31.3c-3.8,2.2-5.4,5-5.3,9.3C857.5,682.9,857.3,693,857.3,703.2z" class="st11"/><path d="M-296.9,591.1c0.3,0,0.8,0.1,0.9-0.1c6.6-10.5,18-14.4,28-20.2c49.7-28.9,99.6-57.5,149.2-86.4 c9.3-5.4,18-5.5,27.3-0.1c55.1,31.9,110.2,63.8,165.4,95.4c9.3,5.3,13.2,12.7,13.2,23.3c-0.2,85.2-0.2,170.3-0.3,255.4 c0,1.7,0,3.3-0.1,5c-0.6,10.2-8.1,14.6-17,9.5c-33.1-18.9-66.2-38-99.3-57c-7.9-4.6-11.6-11.3-11.6-20.6 c0.1-39.2-0.1-78.3,0.2-117.5c0.1-11.2-4.2-19-14.1-24.4c-12.7-6.9-25.2-14.4-37.7-21.8c-8.4-5-16.6-4.9-25,0.2 c-13,7.8-26.2,15.3-39.4,22.8c-8.2,4.7-12,11.5-12,20.9c0.1,39.5-0.1,79,0.1,118.5c0.1,10.5-4.1,17.7-13.1,22.8 c-32.1,18.3-64.3,36.6-96.2,55.4c-7.8,4.6-13.3,2.6-18.9-3.1C-296.9,776.4-296.9,683.8-296.9,591.1z" class="st11"/><path d="M2263.1,523.1c-4.1,0.2-5.6-1.6-5.3-5.9c0.4-7.6,0.1-15.2,0.1-23.4c-2.6,1.5-2.7,3.6-3.3,5.3 c-2.4,6.7-4.7,13.5-6.9,20.3c-0.7,2-1.3,3.5-4,3.5s-3.2-1.7-3.8-3.7c-2.9-8.8-5.9-17.5-8.8-26.3c-0.4,0-0.9,0-1.3,0.1 c0,2.3,0,4.6,0,6.9c0,6.5,0,13,0,19.5c0,1.8,0,3.4-2.5,3.4c-2.3,0-2.8-1.2-2.8-3.1c0-11.3,0-22.6,0-33.9c0-1.9,0.4-3.3,2.7-3.2 c2.5,0.1,5.2-0.8,6.3,3c2.6,8.6,5.6,17,8.5,25.5c0.4,1.3,1,2.6,1.9,5c3.2-9.1,6.4-17.1,8.6-25.4c1.6-5.9,4.2-9.3,10.6-8.5 C2263.1,495.8,2263.1,509.4,2263.1,523.1z" class="st12"/><path d="M1368.1,700.9c0,8.8,0.3,17.7-0.1,26.5c-0.3,7.2,2.4,11.8,8.7,15.3c55.3,31.5,110.4,63.3,165.6,95 c0.3,0.2,0.6,0.3,0.9,0.5c4.3,2.3,7.9,5.2,7.8,10.6c-0.1,5.2-3.6,7.9-7.7,10.2c-11.8,6.5-23.6,13.1-35.4,19.7 c-20.1,11.2-40.3,22.1-60.2,33.7c-10.1,5.9-19.1,6-29.5,0.1c-54.6-31.5-109.4-62.5-164.1-93.6c-8.3-4.7-12.3-11.5-12.3-21.2 c0.1-64.5,0.1-129,0-193.5c0-9.5,3.8-16.2,11.9-20.9c56-32.3,112-64.6,168-97c8.4-4.8,16.2-4.6,24.5,0.2c55,32,110,64,165.1,95.9 c8.6,5,13.4,11.7,13.4,21.7c0,14.8,0.1,29.7,0,44.5c0,9.3-4.5,15.9-12.6,20.6c-32.6,18.8-65.1,37.9-97.7,56.8 c-10.5,6.1-18.2,1.8-18.2-10.3c-0.1-14.5-0.2-29,0-43.5c0.1-5.8-2.2-9.7-7.3-12.5c-16.2-9.2-32.4-18.5-48.4-28 c-5.5-3.2-10.3-3.5-15.9-0.2c-16.3,9.7-32.8,19.2-49.3,28.5c-5,2.9-7.4,6.8-7.3,12.6C1368.2,681.9,1368.1,691.4,1368.1,700.9z" class="st11"/><path d="M1751.7,697.6c0-29.5,0.3-59-0.1-88.5c-0.2-16.5,6.3-28,20.8-36.3c51.9-29.6,103.6-59.7,155.3-89.6 c12.8-7.4,25.6-7.5,38.4-0.1c52.5,30.3,104.9,60.6,157.4,90.9c12.6,7.2,18.8,17.8,18.8,32.3c0,61.2,0,122.3,0,183.5 c0,14.5-6.3,25.1-18.8,32.3c-52,29.9-104,59.7-155.8,89.8c-14.3,8.3-27.7,8.4-41.8-0.3c-16.1-10-32.7-19.3-49-29 c-1.3-0.8-2.6-1.6-3.8-2.5c-2.4-1.8-2.6-3.5,0.5-4.6c8.7-3,17.1-6.6,25-11.2c2.5-1.5,4.8,0,7,1.3c12.1,7.3,24.4,14.4,36.4,21.8 c3.4,2.1,6.2,2.2,9.7,0.2c52.3-30.2,104.7-60.4,157.1-90.4c3.3-1.9,4.7-4.3,4.7-8c-0.1-60.7-0.1-121.3,0-182c0-3.8-1.5-6.1-4.7-8 c-52.4-30.1-104.7-60.4-157-90.6c-3.4-2-6.3-1.9-9.7,0.1c-52,30.1-104.1,60.1-156.2,90.1c-3.9,2.3-5.6,4.9-5.6,9.5 c0.1,59.8,0.1,119.7,0,179.5c0,4.3,1.3,7,5.2,9.2c13.2,7.5,26.2,15.3,39.3,22.9c6.6,3.9,13.6,6.3,21.4,5.7 c11.7-1,19.6-9.4,19.8-21.1c0.2-10.2,0-20.3,0-30.5c0-49.8,0-99.6,0-149.5c0-7.6,0.7-8.3,8.3-8.3c4.7,0,9.3,0,14,0 c6.4,0,7.6,1.2,7.7,7.5c0,16.8,0,33.7,0,50.5c0,42.7,0,85.3,0,128c0,8.5-0.8,17-3.7,25.1c-6.3,17.1-20.7,26.8-40,28 c-16,1-30.3-3.7-43.8-11.3c-12.5-7-24.7-14.5-37.2-21.4c-13.5-7.4-19.7-18.6-19.6-33.9C1751.8,758.3,1751.7,727.9,1751.7,697.6z" class="st12"/><path d="M1991.5,611.2c14.1,0,27.9,1.2,41.3,5.8c23,7.9,36.3,25.2,38.1,49.3c0.3,4.2-1.7,6.4-5.7,6.5 c-6.3,0.2-12.7,0.1-19,0c-2.8,0-4.7-1.3-5.5-4.2c-0.3-1.1-0.6-2.3-0.9-3.4c-3.5-12.7-11.4-20.9-24.5-23.5 c-16.4-3.2-32.8-3.6-49,0.4c-11.3,2.8-16.8,9.2-17.2,18.7c-0.3,7.8,1.9,11.3,9.2,14.1c8.8,3.4,18,4.6,27.2,6.1 c17.6,2.8,35.4,4.3,52.6,9c6.6,1.8,13,4,19.1,7.3c12.7,6.9,19.2,17.6,19.9,31.9c1.5,27.6-11.5,46.6-38.3,54.7 c-29.8,8.9-59.9,8.7-89.5-1c-22.9-7.5-36.2-23.5-37.9-48.1c-0.5-7.5,0.8-9,8.1-9c5.2,0,10.3,0.2,15.5-0.1c4.4-0.2,6.4,1.9,7,6 c0,0.3,0.1,0.7,0.1,1c2.1,14.1,10.3,23,24.1,26c19.6,4.3,39.4,4.6,59,0.2c13.4-3,19.6-10.6,20.1-22c0.3-7.1-2.8-11.8-9-14.6 c-8.9-4.1-18.4-5.6-28-7.1c-17.6-2.7-35.5-3.1-52.8-7.9c-2.9-0.8-5.8-1.6-8.6-2.6c-16.5-5.9-27.8-16.3-29.7-34.6 c-2-19.7,4.4-35.8,21.5-46.7c13.3-8.5,28.3-11.1,43.8-12.1C1985.5,611,1988.5,611.2,1991.5,611.2z" class="st12"/><path d="M1470.1,699.9c0,5.7-0.1,11.3,0,17c0.1,3.1-1.1,4.9-3.7,6.4c-9.9,5.5-19.7,11.1-29.4,16.9 c-2.8,1.7-5.1,1.5-7.9-0.1c-9.6-5.6-19.3-11.2-29-16.6c-2.8-1.6-4.1-3.5-4-6.8c0.1-11.1,0.1-22.3,0-33.5c0-3,1.1-4.9,3.7-6.4 c10-5.7,19.9-11.5,29.7-17.4c2.6-1.6,4.9-1.4,7.4,0.1c9.7,5.8,19.5,11.5,29.3,17.1c2.8,1.6,3.9,3.6,3.8,6.9 C1469.9,688.9,1470.1,694.4,1470.1,699.9z" class="st12"/><path d="M2200.4,504.5c0-4.5-0.2-9,0.1-13.5c0.2-3.1-1-4.1-4-3.9c-2.3,0.2-4.7,0-7,0c-1.6,0-2.4-0.5-2.4-2.3 c0.1-1.6,0.5-2.5,2.2-2.5c9.3,0,18.6,0,27.9,0c1.6,0,2.4,0.7,2.5,2.4c0.1,1.7-0.7,2.5-2.3,2.4c-0.3,0-0.7,0-1,0 c-3.3,0.1-7.9-1-9.6,0.7c-2.3,2.4-0.7,7-0.8,10.6c-0.1,7-0.1,13.9,0,20.9c0,1.8-0.1,3.3-2.5,3.3c-2.4,0.1-3.2-1-3.1-3.3 C2200.4,514.5,2200.4,509.5,2200.4,504.5L2200.4,504.5z" class="st12"/><path d="M216.9,699.9c0-31.8,0.2-63.6-0.1-95.5c-0.1-10.8,4-18.2,13.5-23.6c55.3-31.6,110.6-63.5,165.8-95.4 c8.7-5,16.7-5.1,25.4-0.1c55.6,32.2,111.3,64.2,167,96.2c8.4,4.8,12.3,11.8,12.3,21.3c0,64.6,0,129.3,0,193.9 c0,9.6-4.1,16.4-12.4,21.2c-55.8,32.1-111.6,64.3-167.3,96.6c-8.3,4.8-16.2,4.8-24.5,0C340.8,882.3,285,850.1,229.1,818 c-8.5-4.9-12.4-11.8-12.4-21.6C217,764.2,216.9,732.1,216.9,699.9z" class="st12"/></g><g><path d="M29.1,575.6c14-13.5,28.1-26.9,42.1-40.5c77.2-75,154.4-150.1,231.5-225.2c2.6-2.5,5.1-3.6,8.8-3.5 c34,0.4,68,0.5,102,0.9c4.7,0.1,7.3-1.2,9.8-5.4c16.8-29.2,33.9-58.1,50.7-87.2c1.7-2.9,3.7-4.3,6.8-5.1 c122.7-31.8,245.4-63.6,368.1-95.5c1.6-0.4,3.2-0.8,5.2-1.3c0.7,2,1.4,3.8,1.9,5.6c32.8,119.3,65.7,238.7,98.6,358 c1,3.5,0.5,6.2-1.3,9.3c-17.4,28.8-34.5,57.7-52,86.5c-2.1,3.5-1.9,6,0.1,9.4c17.3,28.6,34.4,57.4,51.7,86.1c1.9,3.2,2.5,6,1.4,9.8 c-32.9,119-65.7,238-98.6,357c-0.5,1.7-1.1,3.4-1.8,5.7c-10.3-2.7-20.5-5.3-30.5-7.9c-114.3-29.9-228.5-59.8-342.8-89.7 c-3.1-0.8-5.1-2.2-6.8-5.1c-17.1-29.5-34.4-59-51.5-88.5c-1.8-3.2-3.8-4.3-7.4-4.2c-34.5,0.4-69,0.6-103.5,1c-3.6,0-6.1-1-8.8-3.5 c-89.1-86.7-178.2-173.4-267.4-260c-2-2-4.2-3.7-6.3-5.5C29.1,576.3,29.1,575.9,29.1,575.6z M799.8,296.4c-1.2,1.7-2,2.8-2.6,3.9 c-54,90.7-107.9,181.4-161.9,272.1c-1.6,2.6-1.6,4.5,0,7.2c54,90.7,107.9,181.4,161.8,272.1c0.7,1.2,1.5,2.2,2.6,3.8 c0.6-1.8,1-2.9,1.3-4c25.8-90,51.6-180,77.2-270.1c0.9-3.3,0.9-7.3,0-10.5c-22.3-78.5-44.8-157-67.3-235.6 C807.3,322.5,803.6,309.8,799.8,296.4z M719.2,901c-1.2-2.2-1.9-3.5-2.6-4.8c-53.7-90.3-107.4-180.6-161-270.9 c-1.7-2.9-3.5-4.2-7-4.2c-107.5,0.1-215,0.1-322.4,0.1c-1.5,0-3,0.2-5.3,0.4c1.7,1.8,2.7,2.9,3.7,3.9 c67.3,66.8,134.6,133.5,202,200.2c1.9,1.9,4.6,3.2,7.2,3.9c86,21.6,172,43.2,258.1,64.7C700.7,896.5,709.5,898.7,719.2,901z M222.2,530.3c-0.4-0.2-0.8-0.4-1.3-0.6c1.4,0.1,2.9,0.2,4.3,0.2c107.5,0,214.9,0,322.4,0.1c3.4,0,5.3-1,7.1-4 c53.5-90.2,107.1-180.3,160.7-270.5c0.9-1.5,1.7-3,3-5.2c-2.1,0.4-3.3,0.6-4.4,0.9c-92.9,23.3-185.9,46.6-278.8,70 c-3.6,0.9-7.4,3-10.1,5.6C378,373.2,330.8,419.6,284,466.3C263,487.2,242.7,508.9,222.2,530.3z" class="st13"/><path d="M2271.2,886.8c0-25.3,0-50.7,0-77c2,0,3.9,0,5.8,0c14.3-0.3,28.8,0.4,42.9-1.3c25.5-3,39.4-19.5,40.4-45.2 c0.8-19.6-4.2-38.1-10.8-56.1c-21.3-58.1-43-116.1-64.8-174c-16.5-44.1-33.3-88.1-50-132.1c-0.6-1.7-1.3-3.4-2.1-5.6 c1.9-0.2,3.3-0.4,4.7-0.4c29.3,0,58.7,0,88-0.1c2.7,0,4.5,0.3,5.6,3.4c21,58.6,42.4,117,63,175.7c7.4,21.2,12.7,43.1,19,64.6 c0.5,1.6,1.1,3.2,1.6,4.8c0.5,0,0.9,0,1.4,0c0.4-1.1,1.1-2.1,1.3-3.2c12-59.2,33.6-115.6,51.4-173.1c6.9-22.4,14.3-44.7,21.5-67 c0.8-2.7,1.5-4.6,5.2-4.6c30.2,0.2,60.3,0.1,90.5,0.1c0.8,0,1.6,0.2,2.7,0.3c-0.3,1.3-0.4,2.4-0.7,3.5 c-44.6,129.6-89.2,259.3-133.9,388.8c-7.2,21-16.2,41.2-29.5,59.3c-16.4,22.3-38.6,35.3-65.7,37.4c-28.7,2.2-57.6,1.6-86.4,2.2 C2272.1,887.4,2271.8,887.1,2271.2,886.8z" class="st13"/><path d="M1512.6,395.4c29.3,0,58.5,0,88.4,0c0,16.7,0,33.2,0,49.7c0.4,0.2,0.9,0.3,1.3,0.5c1.2-1.6,2.4-3.3,3.6-4.9 c17.5-25.1,39.8-44.1,70.2-51.2c44.5-10.4,85.9-4.7,121.2,26.6c24.1,21.4,36.3,49.3,40.7,80.8c1.5,10.7,1.9,21.6,1.9,32.4 c0.2,76.8,0.1,153.6,0.1,230.5c0,2,0,4,0,6.3c-30.2,0-59.9,0-90.5,0c0-2,0-4.1,0-6.1c0-72.8,0.1-145.6-0.1-218.5 c0-8.1-0.7-16.4-2.8-24.2c-7.1-26.9-30.9-44.4-60.1-46.8c-49.3-4-79.5,31.4-83.3,74.4c-0.5,5.1-0.5,10.3-0.5,15.5 c0,66.2,0,132.3,0,198.5c0,2.1,0,4.2,0,6.5c-30.3,0-60,0-90,0C1512.6,642.1,1512.6,518.9,1512.6,395.4z" class="st13"/><path d="M1142,395.4c30.2,0,60,0,90.2,0c0,2.2,0,4.2,0,6.1c0,73.8-0.1,147.6,0.1,221.5c0,8.7,0.9,17.8,3.2,26.2 c6.7,24.6,23.9,38,48.6,42.4c13.8,2.4,27.6,2.3,41-2.2c26.4-8.8,41-28.2,46.8-54.5c2.4-11,3.7-22.4,3.7-33.6 c0.3-66.3,0.2-132.7,0.2-199c0-2.1,0-4.3,0-6.7c30.3,0,60,0,90,0c0,123.5,0,246.9,0,370.6c-28.7,0-57.3,0-86.5,0 c0-14.3,0-28.7,0-43c-0.5-0.3-0.9-0.5-1.4-0.7c-1.4,1.4-2.9,2.6-4,4.2c-11.7,15.3-25.1,28.5-42.4,37.3 c-21.9,11.1-45.4,13.7-69.5,12.6c-24.7-1.1-48.1-7-68.8-21.2c-25.7-17.6-40.5-42.5-46.7-72.4c-2.8-13.6-4.2-27.7-4.2-41.6 c-0.4-80.1-0.2-160.3-0.2-240.5C1142,399,1142,397.3,1142,395.4z" class="st13"/><path d="M2205.7,460.7c-19.2,0-38,0-57.4,0c-0.1,2-0.3,3.7-0.3,5.5c0,63,0,126,0,189c0,4.3,0.3,8.7,1,12.9 c2.7,14.9,12.7,23.7,27.8,24.6c5,0.3,10,0.2,15,0.2s10,0,15.4,0c0,23.9,0,47.5,0,71.4c-1.1,0.2-2.4,0.6-3.7,0.6 c-25.1,1.3-50.3,3.4-75.2-1.4c-26.7-5.1-49-17.1-61.8-42.5c-7.3-14.5-9.1-30.1-9.1-46.1c0-69.3,0-138.6,0-208c0-2.1,0-4.3,0-7 c-17.2,0-34,0-50.9,0c0-21.8,0-42.9,0-64.6c16.8,0,33.5,0,50.9,0c0-38.7,0-76.7,0-115.1c30.4,0,60.1,0,90.5,0 c0,38.5,0,76.9,0,115.7c19.6,0,38.5,0,57.8,0C2205.7,417.6,2205.7,438.8,2205.7,460.7z" class="st13"/><path d="M1978.8,395.5c0,123.5,0,246.4,0,369.7c-30,0-59.7,0-89.9,0c0-123.1,0-246.1,0-369.7 C1918.8,395.5,1948.6,395.5,1978.8,395.5z" class="st13"/><path d="M1978.7,353.8c-29.8,0-59.5,0-89.7,0c0-24.5,0-49,0-73.7c30,0,59.7,0,89.7,0 C1978.7,304.7,1978.7,329.1,1978.7,353.8z" class="st13"/></g><g class="st0"><path d="M1603.9,568.3c4.8-17.1,9.8-34.2,14.4-51.3c1.2-4.4,3-6.4,7.8-5.9c4.1,0.5,8.3,0.1,13,0.1 c-2.9,9.4-5.6,18.3-8.4,27.1c-5.6,17.8-11.3,35.5-16.8,53.3c-1,3.4-2.5,4.7-6.2,4.7c-13.2-0.1-13.2,0-17.1-12.7 c-4.1-13.2-8.2-26.4-12.3-39.5c-0.4-1.4-1-2.8-1.8-5.2c-1.4,4-2.4,7.1-3.4,10.1c-4.5,14.3-9,28.5-13.2,42.9c-1,3.3-2.3,4.4-5.8,4.4 c-13.4-0.1-13.4,0.1-17.5-12.9c-7-22.4-14.1-44.7-21.1-67.1c-0.4-1.4-0.8-2.9-1.4-5c6,0,11.6-0.2,17.1,0.2c1.1,0.1,2.4,2.4,2.9,3.9 c4.7,16.1,9.2,32.3,13.8,48.5c0.4,1.6,0.9,3.2,1.8,6c1.1-2.9,1.8-4.7,2.4-6.6c4.9-15.9,9.8-31.8,14.4-47.7c1-3.3,2.5-4.3,5.9-4.3 c13,0.1,12.9,0,16.6,12.6c4.1,13.7,8.2,27.4,12.4,41.1c0.4,1.2,0.9,2.4,1.4,3.5C1603.1,568.3,1603.5,568.3,1603.9,568.3z" class="st14"/><path d="M1858.9,523.2c0-4.2,0-6.8,0-9.4c0-10.7,0.2-21.3-0.1-32c-0.1-4,1.3-5.3,5.2-5c4.1,0.3,8.2,0.1,12.7,0.1 c0,39.8,0,79.1,0,118.8c-5.6,0-11.3,0-17.5,0c-0.2-3.5-0.4-7.1-0.6-11.1c-19.4,20.8-46.8,14.7-59.7,1.3c-15.4-16.1-17.1-43.7-3-61 c7.9-9.6,18-15.1,30.5-15.8C1839,508.3,1849.5,512.5,1858.9,523.2z M1831.9,526c-15.6-0.1-27.5,11.5-27.6,26.8 c-0.1,16.4,11.3,28.3,27.2,28.3c15.5,0,27.5-11.8,27.4-27.1C1858.7,537.9,1847.4,526.1,1831.9,526z" class="st14"/><path d="M1419.6,595.8c-5.8,0-11.4,0-17.6,0c-0.2-3.4-0.3-6.9-0.6-11.9c-9.9,11.9-22,15.5-35.6,14 c-10.5-1.2-19.2-6.3-26-14.4c-15.3-18.2-14.2-45.7,2.4-62.4c16.2-16.2,38.9-16,59.1,1.2c0.2-3.8,0.4-7.2,0.6-10.8 c5.9,0,11.6,0,17.6,0C1419.6,539.7,1419.6,567.6,1419.6,595.8z M1401.6,554.3c0.1-16.2-11.2-28.1-26.7-28.2 c-15.9-0.1-27.7,11.5-27.8,27.2c0,16.1,11.3,27.9,27,28C1389.8,581.2,1401.5,569.8,1401.6,554.3z" class="st14"/><path d="M1711.3,595.9c-6.4,0-11.9,0-17.7,0c0-28.1,0-56,0-84.3c5.7,0,11.4,0,17.6,0c0,2.9,0,5.7,0,9.3 c1.3-0.9,2-1.3,2.5-1.8c10.1-10.4,24.2-13.3,37.6-7.8c10.9,4.4,17.8,13,18.4,24.2c1.1,19.9,0.3,39.9,0.3,60.2c-5.2,0-10.9,0-17.4,0 c0-2,0-4,0-5.9c0-15.2,0.1-30.3-0.2-45.5c-0.3-16-12.8-20.9-25.8-17.7c-10.1,2.5-15.2,10.6-15.3,23c-0.1,13.5,0,27,0,40.5 C1711.3,591.9,1711.3,593.7,1711.3,595.9z" class="st14"/><path d="M1962.1,567.6c4.9,2.9,9.9,5.8,14.9,8.7c-8.4,17.1-29.2,25.6-49.7,20.6c-20.3-4.9-33.3-23-33-45.9 c0.3-19.8,14.7-36.7,35.1-41.1c19.6-4.2,39.9,4.6,47.3,20.8c-4.8,2.8-9.7,5.6-15,8.7c-5-8.9-12.8-13-22.6-13 c-7.8,0-14.6,2.8-20,8.6c-9.9,10.6-8.8,29.3,2.3,39.2C1930.3,582.4,1950.2,584.7,1962.1,567.6z" class="st14"/><path d="M2064,579c6.5-3.6,11.4-6.4,16.3-9.1c7.2,11,16,14.3,27,10.5c3.7-1.3,6.7-3.2,7-7.5s-2.3-7-5.9-8.4 c-5.3-2.1-10.7-3.5-16.1-5.4c-3.8-1.3-7.6-2.5-11.2-4.3c-14.3-7.2-17.2-25.7-6-37c14.1-14.3,43.6-10.9,54.2,6.1 c0.4,0.7,0.7,1.4,1.2,2.6c-4.9,2.8-9.7,5.4-14.7,8.2c-5.1-8.2-12.3-10.9-21.2-8.8c-3.9,0.9-7.1,2.9-7.7,7.4c-0.6,4.7,2.2,7.3,6,8.7 c7.6,2.8,15.5,5,23.1,7.9c13.5,5.1,16.7,13.7,16.6,24c-0.1,10.4-7.9,19.5-19.5,22.6c-13,3.4-25.9,2.9-37.3-5.2 C2071.6,588.1,2068.4,583.6,2064,579z" class="st14"/><path d="M2001.2,569.9c7.8,11.1,16.9,14.4,27.7,10.3c3.4-1.3,6.3-3.2,6.4-7.4c0.2-4.1-2-6.8-5.5-8.2 c-5.6-2.2-11.4-3.6-17-5.7c-4.7-1.7-9.5-3.3-13.6-6c-11.9-7.8-13.1-24.9-2.9-35.2c14.8-14.9,44.9-10.6,55.4,8.7 c-4.8,2.7-9.6,5.4-14.7,8.3c-5-8-12-10.8-20.7-9c-4.2,0.9-7.5,2.9-8.2,7.5s2.2,7.2,6,8.7c5.3,2,10.8,3.5,16.1,5.3 c3.3,1.1,6.6,2.3,9.8,3.8c16.8,8.1,18.9,29,4.2,40.6c-13.3,10.4-46.4,10.2-57.3-11.7c-0.1-0.3-0.2-0.6-0.4-1.6 C1991.1,575.6,1996,572.9,2001.2,569.9z" class="st14"/><path d="M1299.1,482.7c0,8.6,0.2,16.3-0.1,23.9c-0.1,3.5,1,4.7,4.5,4.6c5.3-0.3,10.6-0.1,16.3-0.1 c0,5.8,0,11.2,0,17.3c-6.9,0-13.6,0-20.6,0c0,14.9-0.2,29,0.1,43.1c0.1,5.6,3.4,8,9.8,8.5c3.5,0.2,6.9,0,10.7,0 c0,5.4,0,10.3,0,15.8c-10,1.9-20.1,2.1-29.3-3.2c-7.1-4.2-9.3-11.5-9.4-19.4c-0.2-13.3-0.3-26.6,0-40c0.1-4.1-1.3-5.3-5.1-5 c-3.4,0.3-6.9,0-10.6,0c0-5.9,0-11.2,0-17c5,0,9.8,0,15.6,0c0-6.6,0.2-12.7-0.1-18.8c-0.2-3.5,0.9-5.1,4.3-5.9 C1289.7,485.7,1293.9,484.2,1299.1,482.7z" class="st14"/><path d="M1499.4,595.9c-6,0-11.6,0-17.9,0c0-1.8,0-3.5,0-5.1c0-38,0.1-75.9-0.1-113.9c0-4.5,1.3-5.9,5.6-5.5 c3.9,0.4,7.9,0.1,12.3,0.1C1499.4,513.1,1499.4,554.2,1499.4,595.9z" class="st14"/><path d="M1459.7,511.5c0,28.3,0,56,0,84.2c-5.9,0-11.6,0-17.6,0c0-28,0-55.9,0-84.2 C1447.9,511.5,1453.6,511.5,1459.7,511.5z" class="st14"/><path d="M1653.6,511.4c5.8,0,11.3,0,17.4,0c0.1,1.7,0.4,3.3,0.4,4.9c0,24.8-0.1,49.6,0.1,74.3c0,4.5-1.3,5.9-5.7,5.5 c-3.9-0.4-7.9-0.1-12.2-0.1C1653.6,567.8,1653.6,539.9,1653.6,511.4z" class="st14"/><path d="M1651,486c0-6.3,5.2-11.4,11.4-11.4c6.3,0,11.8,5.6,11.6,11.9c-0.2,6-5.8,11.3-11.8,11.2 C1656,497.5,1651,492.3,1651,486z" class="st14"/><path d="M1462.2,486.3c0,6.2-5.3,11.4-11.5,11.4c-6.3,0-11.7-5.6-11.5-11.9c0.2-6,5.8-11.3,11.8-11.2 C1457.2,474.7,1462.2,480,1462.2,486.3z" class="st14"/></g><g class="st0"><path d="M1007.3,516.9c8.5-31.9,28.9-47.9,59.1-49.6c24-1.4,44.4,6.2,61,23.8c4.8,5.1,9.7,10.1,15.1,14.5 c13.4,10.8,31.1,11.4,45.3,1.6c5-3.4,9.1-7.7,13.3-13c-0.1,3.3-1.2,5.6-1.9,7.9c-6.4,18.5-17.3,33.2-36.6,39.1 c-29.3,9-56.3,4.8-79.1-17.3c-5.3-5.2-10.4-10.7-16-15.5c-15.8-13.6-35.4-13.3-51.1,0.4c-2.3,2-4.3,4.3-6.5,6.5 C1009.1,516,1008.7,517.2,1007.3,516.9z" class="st15"/><path d="M1136.5,571.9c-1.2,5.5-2.8,10-4.7,14.4c-10.4,23.9-28.8,35.9-54.6,37.1c-14.5,0.7-28.5-1-41.5-8.2 c-8.3-4.6-15.2-10.9-21.9-17.6c-5.3-5.3-10.2-10.8-16.5-14.9c-14.3-9.4-32.5-7.6-46.3,4.5c-2.1,1.9-4,4-6,6c-0.7,0.7-1.2,1.9-3,1.8 c1.2-3.4,2.2-6.7,3.4-9.8c9.5-24.1,27.2-37.2,53-39.4c20-1.7,38.4,2.2,54.4,15c6.6,5.3,12.2,11.6,18.3,17.4 c5.9,5.7,12.2,11,20.5,13c16.6,4,29.7-2.3,40.7-14.3c0.7-0.7,1.3-1.5,1.9-2.2C1134.8,573.9,1135.3,573.3,1136.5,571.9z" class="st16"/></g><g class="st0"><path d="M1164.2,547.8c5.9,5.1,9.9,11.4,12.2,18.8c0.3,1.1,0.8,1.9,1.8,2.6c8.6,6.9,12.6,15.9,11.8,26.8 c-1,13.7-12.1,25.4-25.6,27.2c-1.8,0.3-3.6,0.4-5.5,0.4c-7,0-14.1,0-21.1,0c-0.5,0-0.9,0-1.4-0.1c0-6.2,0-12.4,0-18.7 c7.7,0,15.4,0,23.1,0c2.4,0,4.5-0.6,6.5-1.9c4.2-2.6,6.2-7.7,5-12.5s-5.4-8.4-10.3-8.8c-0.8-0.1-1.1-0.3-1.1-1.2 c0.1-3.4-0.4-6.7-1.7-9.9c-1.5-3.8-4-6.9-7-9.6C1155.4,556.6,1159.8,552.2,1164.2,547.8z" class="st17"/><path d="M1094.7,617.5c-6.3-4.7-10.3-10.9-11.6-18.7c-2.1-12.4,2.1-22.5,12-30.2c0.3-0.2,0.5-0.5,0.8-0.7 c0.2-0.1,0.5-0.2,0.7-0.3c5-3.2,10.5-4.8,16.4-4.8c2.1,0,4.2,0.3,6.3,0.5c0.4,0.1,0.8,0.3,1.2,0.4c6.5,1.6,11.8,5.1,16.1,10.3 c0.5,0.6,0.6,1-0.1,1.6c-4.1,4.1-8.2,8.1-12.2,12.2c-0.5,0.5-0.7,0.6-1.1-0.1c-2.7-4.9-8.2-7.2-13.7-5.6c-6.7,2-10.1,9.9-7,16.1 c1.3,2.5,3.3,4.3,5.7,5.6c-2,1.9-3.9,3.9-5.8,5.8C1099.8,612.3,1097.3,614.9,1094.7,617.5z" class="st18"/><path d="M1119.2,563.4c-2.1-0.2-4.1-0.5-6.3-0.5c-6,0-11.4,1.6-16.4,4.8c-0.2,0.1-0.5,0.2-0.7,0.3 c1.3-4.9,3.5-9.4,6.5-13.4c7.2-9.7,16.7-15.5,28.6-17c12.3-1.5,23.3,1.8,32.8,9.8c0.2,0.1,0.3,0.3,0.4,0.4 c-4.4,4.4-8.8,8.8-13.2,13.2c-0.1,0-0.2-0.1-0.3-0.1c-4.9-3.8-10.4-5.4-16.5-4.9C1128.3,556.6,1123.3,559.1,1119.2,563.4z" class="st19"/><path d="M1094.7,617.5c2.5-2.6,5.1-5.2,7.6-7.7c1.9-1.9,3.9-3.9,5.8-5.8c2.4,1,5,1,7.5,0.9c6.9,0,13.7,0,20.6,0 c0,6.2,0,12.4,0,18.7c-3.2,0-6.3,0-9.5,0.1c-4.8,0-9.6,0.1-14.3,0C1105.9,623.5,1100,621.5,1094.7,617.5z" class="st20"/></g><g class="st0"><path d="M1262,577.3c4,0,8.1,0,12.2,0c1,0,1.4,0.2,1.6,1.3c2.2,17.5-9.1,28.9-23.2,30.4c-13.4,1.4-23.5-3.9-30.2-15.3 c-6.8-11.7-3.7-26.9,6.8-35.8c11.3-9.6,27.7-9.7,38.5-0.1c0.9,0.8,1.1,1.2,0.1,2.1c-1.3,1.1-2.5,2.4-3.7,3.7 c-0.7,0.8-1.1,0.8-2,0.1c-7.6-6.3-18-6.6-25.9-0.8c-7.3,5.3-10.3,15-7.4,23.9c2.7,8.5,10.7,14.3,19.7,14.4c7,0,12.8-2.4,16.8-8.4 c1.2-1.8,1.8-4,2.2-6.1c0.2-1.1-0.1-1.3-1.1-1.3c-5.4,0-10.8,0-16.3,0.1c-1.3,0-1.7-0.4-1.6-1.7c0.1-1.7,0.1-3.4,0-5.1 c0-1.1,0.4-1.4,1.4-1.4C1253.9,577.3,1257.9,577.3,1262,577.3z" class="st21"/><path d="M1389.3,575.5c0.3-2.9,0.3-2.9,3.2-2.9c1.6,0,3.6-0.7,4.6,0.3c0.9,0.9,0.3,2.9,0.3,4.4c0,9.9,0,19.8,0,29.7 c0,2.9-0.4,5.8-1.4,8.5c-2.4,6.2-7.2,9.5-13.6,10.4c-8.2,1.1-15.2-2.5-19-9.4c-0.6-1.2-0.6-1.8,0.8-2.3c1.5-0.5,3-1.2,4.5-1.9 c0.9-0.4,1.4-0.3,1.9,0.7c2.5,4.5,6.8,6.4,11.6,5.3c4.4-1,7-4.4,7.3-9.7c0.1-1.1,0-2.3,0-3.4c-0.2,0-0.4,0-0.4,0 c-4.9,5.6-14.8,4.9-20.6,0.1c-10.7-8.8-9.3-25.2,2.8-31.9c5.1-2.8,12.9-3,17.6,1.7C1388.8,575.3,1389,575.3,1389.3,575.5z M1389.9,590.4c-0.1-0.8,0-1.5-0.2-2.3c-0.8-4.3-2.9-7.5-7.3-8.8c-3.8-1.2-7.8,0.2-10.5,3.6c-3.4,4.2-3.4,10.7,0,14.9 c3.8,4.8,10.6,5.3,14.8,1C1389,596.5,1390,593.6,1389.9,590.4z" class="st21"/><path d="M1638.4,603.3c-1.9,2.3-3.9,4-6.5,4.9c-7.3,2.5-14.6,0-19-6.7c-5.8-8.7-3.5-21.2,4.9-27.1 c6.2-4.4,14.9-3.3,19.9,2.4c0.1,0.2,0.2,0.4,0.3,0.5c0.7-0.2,0.5-0.6,0.5-0.9c0-6.1-0.1-12.1-0.2-18.2c0-1.2,0.4-1.5,1.5-1.4 c1.6,0.1,3.7-0.7,4.8,0.3c1.1,1,0.3,3.1,0.3,4.7c0,14.8,0,29.7,0.1,44.5c0,1.4-0.3,1.9-1.7,1.7c-1.5-0.2-3.3,0.6-4.3-0.3 C1637.9,606.9,1638.8,605.1,1638.4,603.3z M1616.3,590.9c-0.1,0.7,0.2,1.9,0.4,3.1c0.9,4.5,4.6,8.3,8.9,9c4.5,0.8,9-1.3,11.2-5.4 c2.3-4.4,2.4-9,0.3-13.4c-2.8-6-10.2-8.1-15.5-4.4C1617.8,582.3,1616.4,586,1616.3,590.9z" class="st21"/><path d="M1338.9,571.5c10.7,0,18.9,8.1,18.9,18.7c0,10.9-8.1,19.1-18.9,19.1s-19-8.1-19-19 C1319.9,579.5,1328,571.5,1338.9,571.5z M1328.3,590.3c0,5.5,3.3,10.1,8.1,11.2c5.6,1.2,10.8-1.9,12.5-7.4 c1.8-5.9-0.9-12.2-6.1-14.3C1335.6,576.8,1328.3,582.1,1328.3,590.3z" class="st21"/><path d="M1297.6,571.5c10.8,0,19,8.1,19,18.8c0,10.8-8.2,19-19,19c-10.7,0-18.9-8.3-18.9-18.9 C1278.6,579.6,1286.8,571.5,1297.6,571.5z M1308.2,590.5c0.1-5.2-2.8-9.6-7.4-11c-5.5-1.7-11.2,1.2-13.1,6.8 c-2.1,6.1,0.8,12.8,6.4,14.9C1301,603.6,1308,598.4,1308.2,590.5z" class="st21"/><path d="M1433,571.5c7,0,12.8,4.1,15.8,11.1c1.3,3.1,1.3,3.1-1.8,4.4c-6.9,2.8-13.8,5.7-20.8,8.5 c-1.4,0.6-1.2,1.1-0.5,2.1c3.9,5.5,11.7,5.7,16.3,0.4c1-1.2,1.6-1.3,2.8-0.4c1.2,1,2.6,1.8,3.9,2.7c0.7,0.4,0.8,0.8,0.3,1.5 c-4.3,6.1-12.6,8.9-20.5,6.9c-7.2-1.9-12.7-8.6-13.3-16c-0.6-7.5,1.5-13.7,7.8-18.2C1426.1,572.3,1429.4,571.4,1433,571.5z M1433.8,578.8c-5.4,0-10.3,4.8-10.3,9.8c0,0.8,0.1,1.1,1,0.7c4.9-2.1,9.8-4.1,14.7-6.1c1-0.4,1-0.9,0.4-1.6 C1438,579.6,1435.8,579,1433.8,578.8z" class="st21"/><path d="M1466.9,582.2c-0.3-18.9,18.6-31.7,36.9-24.4c3,1.2,5.6,3.2,7.8,5.6c0.6,0.6,0.6,1-0.1,1.6 c-1.1,0.9-2.1,1.9-3.1,3c-0.6,0.6-0.9,0.7-1.5,0c-5.5-5.9-12.4-7-19.7-4.8c-7.2,2.2-11.7,7.3-13.1,14.8c-1.2,6.4-0.4,12.6,3.9,17.8 c7.4,9,21.1,9.7,29.4,1.5c0.3-0.3,0.7-0.7,1-1c0.5-0.6,0.9-0.6,1.4,0c0.9,1,1.9,2,2.9,2.9c1,0.8,0.8,1.4,0,2.3 c-4,4-8.7,6.6-14.3,7.6c-11.2,2-22.2-2.3-28.3-12.7C1467.8,591.8,1466.8,587.2,1466.9,582.2z" class="st21"/><path d="M1567.7,590.5c0,9.2-5.4,16.5-13.7,18.2c-13.3,2.8-23.2-7.1-22.3-19.8c0.6-9,6.7-14.8,12.9-16.4 C1557,569.3,1567.7,577.7,1567.7,590.5z M1538.5,590.4c0,0.7,0,1.3,0,2c0.3,4.7,3.7,8.9,8,10.3c4.3,1.3,9-0.1,11.9-3.7 c3.6-4.4,3.7-12,0.3-16.5c-3.7-4.9-10.5-5.9-15.3-2.4C1539.9,582.6,1538.4,586.2,1538.5,590.4z" class="st21"/><path d="M1597.7,603.1c-1.9,2.5-3.8,4-6.2,5.1c-8.4,3.6-17.2-1.5-18.2-10.5c-0.7-7-0.2-14-0.3-21 c-0.1-3.7,0-3.7,3.7-3.7c2.9,0,2.9,0,2.9,2.9c0,6.4,0,12.8,0.1,19.2c0.1,4.2,2.2,6.8,5.7,7.7c4.1,1.1,7.8-0.3,10-3.7 c1.5-2.3,2-4.9,2-7.7c0-5.6,0-11.3,0-16.9c0-1.3,0.3-1.6,1.6-1.5c1.3,0.1,2.6,0.1,3.9,0c0.8,0,1.2,0.2,1.2,1.1 c0,10.9,0,21.9,0,32.8c0,0.8-0.2,1.2-1.1,1.1c-1.4-0.1-2.7-0.1-4.1,0c-1.1,0.1-1.3-0.4-1.3-1.4 C1597.8,605.7,1597.7,604.7,1597.7,603.1z" class="st21"/><path d="M1402.9,580.2c0-8.6,0-17.3,0-25.9c0-1.4,0.4-1.8,1.7-1.7c1.6,0.1,3.3,0.1,4.9,0c1.4-0.1,1.8,0.3,1.8,1.7 c-0.1,9.5,0,18.9,0,28.4c0,7.8,0,15.7,0,23.5c0,1.6-0.5,2-1.9,1.8c-1.6-0.1-3.3-0.1-4.9,0c-1.2,0.1-1.6-0.3-1.6-1.5 C1403,597.7,1402.9,589,1402.9,580.2z" class="st21"/><path d="M1519.5,582.5c0-8,0-16.1,0-24.1c0-1.3,0.4-1.6,1.6-1.5c1.6,0.2,3.7-0.7,4.8,0.3c1.1,1,0.4,3.2,0.4,4.9 c0,14.7,0,29.3,0,44c0,1.5-0.3,2.2-1.9,2s-3.6,0.7-4.6-0.4c-0.9-1-0.2-2.9-0.3-4.5C1519.5,596.3,1519.5,589.4,1519.5,582.5z" class="st21"/></g><g class="st0"><path d="M1333.8,603.8h-10.1l18.4-52.4h11.7l18.5,52.4h-10.1l-14-41.6h-0.4L1333.8,603.8z M1334.2,583.3h27.6v7.6 h-27.6V583.3L1334.2,583.3z" class="st14"/><path d="M1388.1,580.8v23h-9.3v-39.3h8.8v6.7h0.5c0.9-2.2,2.4-4,4.3-5.2c2-1.3,4.4-1.9,7.4-1.9c2.7,0,5.1,0.6,7.1,1.7 c2,1.2,3.6,2.8,4.7,5s1.7,4.9,1.7,8v25h-9.3v-23.6c0-2.6-0.7-4.7-2-6.2c-1.4-1.5-3.2-2.2-5.6-2.2c-1.6,0-3.1,0.4-4.3,1.1 c-1.3,0.7-2.2,1.7-2.9,3.1C1388.4,577.4,1388.1,578.9,1388.1,580.8z" class="st14"/><path d="M1439.8,619.2c-3.3,0-6.2-0.4-8.6-1.3c-2.4-0.9-4.3-2.1-5.8-3.5c-1.5-1.5-2.5-3.1-3-4.9l8.3-2 c0.4,0.7,0.9,1.4,1.6,2.2s1.7,1.4,2.9,1.9c1.2,0.5,2.8,0.8,4.6,0.8c2.6,0,4.8-0.6,6.5-1.9c1.7-1.3,2.6-3.3,2.6-6.1V597h-0.5 c-0.5,1-1.2,1.9-2.1,2.9s-2.1,1.8-3.6,2.5s-3.4,1-5.6,1c-3,0-5.8-0.7-8.2-2.1c-2.4-1.4-4.4-3.5-5.8-6.4c-1.4-2.8-2.2-6.4-2.2-10.7 s0.7-8,2.2-10.9c1.4-3,3.4-5.2,5.8-6.8c2.5-1.5,5.2-2.3,8.2-2.3c2.3,0,4.2,0.4,5.7,1.2s2.7,1.7,3.6,2.8s1.6,2.1,2,3.1h0.5v-6.5h9.1 v39.9c0,3.3-0.8,6-2.4,8.2s-3.8,3.8-6.6,4.9C1446.5,618.7,1443.3,619.2,1439.8,619.2z M1439.9,596c2,0,3.6-0.5,5-1.4 c1.4-1,2.4-2.3,3.2-4.1c0.7-1.8,1.1-3.9,1.1-6.4s-0.4-4.6-1.1-6.5s-1.8-3.3-3.1-4.3c-1.4-1-3.1-1.6-5-1.6c-2.1,0-3.8,0.5-5.2,1.6 s-2.4,2.5-3.1,4.4s-1.1,4-1.1,6.4s0.4,4.5,1.1,6.3s1.8,3.2,3.1,4.2C1436.1,595.5,1437.8,596,1439.9,596z" class="st14"/><path d="M1492.8,587.3v-22.8h9.3v39.3h-9v-7h-0.4c-0.9,2.2-2.3,4-4.4,5.4c-2,1.4-4.5,2.1-7.4,2.1 c-2.6,0-4.8-0.6-6.8-1.7c-2-1.1-3.5-2.8-4.6-5s-1.7-4.9-1.7-8v-25h9.3v23.6c0,2.5,0.7,4.5,2,5.9c1.4,1.5,3.2,2.2,5.4,2.2 c1.4,0,2.7-0.3,4-1s2.3-1.7,3.2-3C1492.4,591,1492.8,589.3,1492.8,587.3z" class="st14"/><path d="M1520.8,551.5v52.4h-9.3v-52.4H1520.8z" class="st14"/><path d="M1541.6,604.6c-2.5,0-4.7-0.5-6.7-1.3c-2-0.9-3.5-2.2-4.7-4s-1.7-3.9-1.7-6.5c0-2.2,0.4-4,1.2-5.5 c0.8-1.5,1.9-2.6,3.3-3.5s3-1.5,4.8-2c1.8-0.4,3.6-0.8,5.5-1c2.3-0.2,4.2-0.5,5.6-0.6c1.4-0.2,2.5-0.5,3.1-0.9c0.7-0.4,1-1.1,1-2 v-0.2c0-1.9-0.6-3.4-1.7-4.5s-2.8-1.6-4.9-1.6c-2.3,0-4.1,0.5-5.4,1.5s-2.2,2.2-2.7,3.5l-8.6-1.2c0.7-2.4,1.8-4.4,3.4-6 s3.5-2.8,5.8-3.6s4.8-1.2,7.5-1.2c1.9,0,3.8,0.2,5.7,0.7c1.9,0.5,3.6,1.2,5.1,2.2c1.6,1,2.8,2.4,3.8,4.1c1,1.7,1.4,3.9,1.4,6.5 v26.3h-8.9v-5.4h-0.3c-0.6,1.1-1.4,2.1-2.4,3c-1,1-2.3,1.7-3.8,2.3C1545.4,604.4,1543.6,604.6,1541.6,604.6z M1544,597.8 c1.9,0,3.5-0.4,4.8-1.1c1.4-0.7,2.4-1.7,3.2-2.9c0.7-1.2,1.1-2.6,1.1-4v-4.6c-0.3,0.2-0.8,0.5-1.5,0.7s-1.5,0.4-2.3,0.5 c-0.9,0.2-1.7,0.3-2.5,0.4s-1.6,0.2-2.2,0.3c-1.4,0.2-2.6,0.5-3.7,0.9s-2,1-2.6,1.8s-1,1.7-1,2.9c0,1.7,0.6,3,1.9,3.9 S1542.1,597.8,1544,597.8z" class="st14"/><path d="M1571.7,603.8v-39.3h9v6.5h0.4c0.7-2.3,1.9-4,3.7-5.3c1.8-1.2,3.8-1.9,6-1.9c0.5,0,1.1,0,1.7,0.1 c0.6,0,1.2,0.1,1.6,0.2v8.5c-0.4-0.1-1-0.3-1.8-0.4s-1.7-0.2-2.4-0.2c-1.7,0-3.2,0.4-4.5,1.1c-1.3,0.7-2.4,1.7-3.2,3 c-0.8,1.3-1.1,2.8-1.1,4.4v23.1h-9.4V603.8z" class="st14"/></g><g class="st0"><path d="M1628.2,523.4c10.9-0.5,21.7-1,32.5-1.6c3.9-0.2,3.1,2.7,3.1,4.8c0,21.2,0,42.3,0,63.5c0,1.3,0,2.7,0,5.3 c3.3-3.1,6-5.4,8.5-7.8c4.5-4.2,9-8.4,13.3-12.8c4.8-4.9,4.3-6.8-2.4-8.5c-0.9-0.2-1.9-0.4-3.1-0.7c0-1.5,0-2.9,0-4.6 c11.7,0,23.3,0,35.2,0c1.3,3.2,0.2,4.8-3,5.7c-10.6,2.9-19,9.3-27.2,16.3c8.6,12.5,16.7,24.8,25.4,36.8c1.7,2.3,4.9,4,7.8,4.8 c3.5,0.9,4.5,2.2,3.2,6c-10.1,0-20.4,0.1-30.7-0.2c-1.3,0-2.9-1.9-3.8-3.3c-6.2-9.5-12.2-19-18.3-28.6c-4,1.4-5.2,3.8-4.9,7.4 c0.2,2.8,0,5.7,0,8.5c0,7.8,0.1,7.7,7.6,10.6c1.4,0.5,2,2.8,3.7,5.2c-15.9,0-30.2,0-44.6,0c-1.4-3.5-0.4-5.2,3.4-5.4 c4.7-0.3,6.7-3.1,6.7-7.6c0-25.8,0.1-51.7-0.1-77.5c0-6.8-2.6-9.7-9.3-10.8C1627.7,528.6,1627.2,527,1628.2,523.4z" class="st14"/><path d="M1773.1,566.7c0-1.6,0-3.1,0-4.9c10.7-0.6,21.1-1.3,31.5-1.6c1,0,2.6,2,2.9,3.3c0.5,2.2,0.1,4.5,0.1,7.7 c2.6-2.1,4.5-3.7,6.3-5.2c7.3-6.4,16-8,25.3-6.6c10.8,1.7,17.3,10,17.5,22.2c0.2,11.5,0.2,23,0,34.5c-0.1,5,1.9,8.1,6.7,8.9 c3.4,0.6,4.1,2.2,3.1,5.6c-13.8,0-27.6,0-41.5,0c-0.8-2.9-0.9-5.1,2.9-5.3c3.7-0.2,5.4-2.5,5.4-5.9c0-12.5,0.3-25-0.3-37.5 c-0.3-8-4.6-11.6-11.1-11.3c-8.1,0.5-14.3,6.3-14.3,13.4c0,10.7,0.1,21.3-0.1,32c-0.1,4.8,1.4,7.9,6.3,9.3c1.5,0.4,2.4,2.7,3.6,4.1 c-0.4,0.4-0.8,0.8-1.1,1.2c-14.1,0-28.1,0-42.3,0c0-1.7,0-3.1,0-4.7c1.5-0.3,2.8-0.6,4.1-0.8c4.1-0.5,6.3-2.8,6.3-7 c0.1-13.7,0.2-27.3,0-41C1784.4,570.1,1779.3,567.7,1773.1,566.7z" class="st14"/><path d="M1531.1,566.5c0-1.4,0-2.8,0-4.7c10.6-0.6,21.1-1.3,31.5-1.6c1,0,2.7,1.9,3,3.2c0.5,2.2,0.1,4.5,0.1,7.8 c2.7-2.2,4.7-3.9,6.6-5.5c7.4-6.3,16.1-7.8,25.3-6.2c10.5,1.8,16.8,10,17.1,22c0.2,11.3,0.3,22.7,0,34c-0.1,5.4,1.7,8.7,7.1,9.5 c3.8,0.6,3.4,2.8,2.6,5.6c-13.8,0-27.6,0-41.6,0c0-1.7,0-3.1,0-4.5c8.6-2.6,8.6-2.6,8.6-11.8c0-9,0-18,0-27c0-0.8,0-1.7,0-2.5 c-0.4-5.5-0.6-11.6-7-13.7c-6.5-2.1-12.1,0.6-16.6,5.5c-1.2,1.3-2.1,3.5-2.1,5.3c-0.2,11.7,0,23.3-0.1,35c0,4.3,1.6,7.2,5.8,8 c3.5,0.6,3.8,2.6,2.9,5.7c-14,0-28,0-42.3,0c0-1.6,0-3,0-4.6c1.4-0.3,2.7-0.6,4-0.8c4.4-0.5,6.4-3.1,6.4-7.4c0-13.3,0.1-26.6,0-40 C1542.5,571.4,1540,569.2,1531.1,566.5z" class="st14"/><path d="M1388.1,536c0-1.9,0-3.3,0-5c17.7,0,35.1,0,53.1,0c0.1,1.6,0.1,3.1,0.2,5c-2.3,0.4-4.2,0.8-6.2,1.1 c-6.3,1.3-7.5,2.6-7.5,9c0,17.1,0,34.3,0,51.5c0,20.4-12.5,33.9-32.8,35.5c-7.6,0.6-15,0.3-22-3.2c-9.4-4.7-13.9-13.6-12.2-24 c1-5.9,5.1-10.2,10.6-11.1c6.5-1.1,11.9,1.1,14.7,6c2.8,4.9,2.1,10.2-2.2,15.2c-2,2.4-4.3,4.5-6.4,6.8c3.9,4.8,10.1,5.3,16.2,1.4 c5-3.2,7.6-8.1,8.1-13.7c0.7-7.9,0.8-16,0.8-23.9c0.1-12.3,0-24.6,0-37c0-9.3-1.2-10.7-10.4-12.7 C1390.9,536.7,1389.7,536.4,1388.1,536z" class="st14"/><path d="M1476.2,593.2c-1.8,12.1,3.2,23.7,11.6,27.6c11.1,5.1,20.8,2,32.1-10.4c1.5,1.1,3.2,2.1,5.1,3.5 c-7.1,11.3-17.1,17.7-30.1,18.9c-5.7,0.5-11.7,0.1-17.3-1.2c-18.2-4.1-28.9-19.2-27.5-38c1.4-18.9,14.9-32.9,33.4-34.4 c4.8-0.4,9.7-0.4,14.4,0.4c17.6,2.8,26.6,15.1,24.6,33.7C1507.2,593.2,1491.7,593.2,1476.2,593.2z M1498.7,586.9 c-0.8-5.7-1.3-10.6-2.4-15.4c-0.9-3.8-3.3-6.5-7.5-6.9c-4.3-0.4-7.4,1.6-9.5,5.2c-3,5.3-3.8,11.1-3.3,17.2 C1483.4,586.9,1490.5,586.9,1498.7,586.9z" class="st14"/><path d="M1884.2,627.8c-3.4,1.9-5.7,3.3-8,4.6c-0.5-0.4-0.9-0.8-1.4-1.1c0-8.4,0-16.8,0-25.6c2.7-1.3,4.4-0.2,6,3 c5.4,10.6,12.8,18.7,26,18.4c6.3-0.2,9.9-2.8,10.8-7.6c1-5.3-1.1-8.9-7.5-11.3c-6.2-2.3-12.7-3.9-18.9-6.3 c-11.5-4.4-17.2-14.6-14.5-25.7c2-8.3,8.2-12.7,15.8-15.2c10-3.3,20-2.5,30,0.4c1.4,0.4,2.8,0.9,3,1c3-1.7,5.2-2.9,8.5-4.7 c0.4,9.3,0.8,16.9,1.1,24.6c-3.3,1.5-4.8,0.5-6.3-2.4c-4.3-8.4-10.4-14.8-20.7-14.8c-6,0-9.9,2.7-10.7,7c-0.9,4.7,1.3,8.2,7.2,10.4 c7.1,2.7,14.7,4.5,21.6,7.6c11.1,5.1,15.3,15.5,11.5,26.5c-2.7,7.7-8.8,11.9-16.3,14.3C1908.2,635.1,1895.5,633.5,1884.2,627.8z" class="st14"/><path d="M1721.3,566.5c0-1.6,0-2.9,0-4c0.5-0.3,0.8-0.5,1.1-0.5c10.1-0.6,20.3-1.1,30.4-1.9c3.5-0.3,4.2,1.3,4.1,4.4 c-0.1,16.6-0.1,33.3-0.1,49.9c0,7.3,0.8,8.4,7.7,10.7c2.9,1,2.9,1,2.6,5.4c-14.5,0-29,0-43.8,0c-1.2-3-0.9-4.8,3-5.3 c6-0.9,7.3-2.6,7.3-8.6c0.1-11,0-22,0-33C1733.7,570.9,1733.3,570.4,1721.3,566.5z" class="st14"/><path d="M1757.1,534.8c-0.1,7.1-6.2,12.7-13.9,12.6c-7.7,0-13.8-5.7-13.8-12.8c0-7.3,6.3-13,14.3-12.9 C1751.3,521.8,1757.1,527.5,1757.1,534.8z" class="st14"/></g><g class="st0"><path d="M545.8,993.4c21.4,0.4,33.4-9.7,32.4-26.7c-0.8-14.3-14.2-25.4-28.1-23.5c-16.5,2.3-24.5,15.8-20.8,35.9 c-3.5-0.1-5-2.9-6.9-4.8c-48.4-49.2-77.2-107.9-84.8-176.7c-14.1-128.4,55.9-250.4,173.8-303.2c109.2-48.9,237.1-27.1,324.2,55.3 c8.8,8.4,7.5,11,16.1-1.8c8.9-13.3,16.1-27.6,23-41.8c3.7,0.2,3.4,3.2,4,5.1c19.8,60.2,37.6,120.9,46.4,183.8 c8.7,61.7,6.5,122.8-18.2,180.8c-43.2,101.5-119.7,163.6-228.6,182c-83.2,14-159.3-6.8-226.9-57.8c-1.6-1.2-3.1-2.5-4.6-3.8 C546.5,995.7,546.4,994.9,545.8,993.4z M620.5,965.5c2.4,2,4.8,1.2,6.9,0.9c23.3-3,46.6-2.1,69.9-1.6c32.3,0.6,64.6,2.5,97,1.5 c30-1,59.8-3.7,89-11.7c44.3-12.2,79.8-36,103.1-76.5c8.5-14.8,15.1-30.4,19.7-46.9c12-42.8,12.3-86.2,7.3-129.9 c-6.1-53.9-20-106-37-157.3c-0.8-2.4-1-5.1-4-7c-6,8.9-10.7,18.5-17.4,26.8c-45,56.4-103.2,90.3-174.1,102.8 c-24.3,4.3-49.1,4.6-73.7,6c-22.3,1.3-44.6,3.6-66,10.4c-47,14.9-83.6,42.6-103.8,88.6c-16.7,38-18.6,76.8-1.2,115.3 c6.9,15.2,17.5,27.4,31.8,36.3c5.8,3.6,11.4,4.5,18,3.1c36.1-7.9,72-16.6,107.8-25.9c63.8-16.5,120.3-46.5,169.1-90.8 c30.6-27.8,56.3-59.5,74.7-96.8c2.9-5.8,3.7-12.9,9.8-16.8c0.3-0.2,0.3-1.3,0-1.8c-0.3-0.4-1.1-0.8-1.6-0.7 c-0.4,0.1-1.1,0.8-1.1,1.2c0.6,13.7-4.7,26.2-9.9,38.2c-42.3,97.5-113,164.9-214.1,199.4c-29.6,10.1-59.7,18.9-89.5,28.5 C627.7,962.1,623.7,962.7,620.5,965.5z" class="st22"/><path d="M2567.5,869.3c-3.2,1.1-4.3,3.2-5.8,4.9c-43,50.1-109.6,49.6-153.8,24.3c-27.1-15.5-46.4-37.9-57.6-66.8 c-17.1-44.1-17.5-88.8,0.2-132.6c17.7-43.8,50.1-71.8,96.9-80.8c44-8.5,81.7,3.8,111.6,37.9c2.6,2.9,4.5,6.5,8.1,8.5 c3.4-1.6,2.4-4.6,2.5-7c0.3-5.3-0.3-10.7,1-15.9c3.5-14.6,17-25,32.3-25c15.3,0.1,28.3,10.5,31.6,25.5c0.9,4.3,1.2,8.6,1.2,12.9 c0,64.6,0.1,129.3-0.1,193.9c0,19.7-1.9,39.3-7.6,58.3c-11.7,39.1-36.5,65.8-75.2,79.3c-20.3,7.1-41.4,9.8-62.8,10.6 c-43.5,1.6-84.7-7.3-123.7-26.7c-11.3-5.6-17.1-16.3-15.6-27.6c1.4-11.4,10.2-21,21.5-23.6c7.5-1.8,14.5-0.1,21.2,3.5 c13.8,7.5,28.4,13.2,43.8,16.6c24,5.3,48.1,7,72.3,1.3c33.1-7.8,54-30.8,58.6-64.2C2568.2,874.3,2568.7,872,2567.5,869.3z M2571,770.4c0.1-23.9-4-41.4-13.1-56.1c-17.6-28.5-43.2-43.6-76.8-41c-33.7,2.6-56.7,21.7-68.9,52.9c-10.2,26.1-10.1,53,0,79.1 c11.3,29.4,32.5,47.6,64.2,51.8c31.1,4.1,56.3-7.2,75.5-31.5C2565.5,808.3,2571,787.9,2571,770.4z" class="st22"/><path d="M1505,666.8c2.5-2.9,4.3-4.9,6-6.9c38-46.9,93.2-52.2,138.1-34.1c37.8,15.2,62.9,43.1,75.9,81.4 c13.8,40.4,13.8,81.4-1.3,121.5c-17.1,45.3-49.3,74.8-97.2,84.6c-43.6,8.9-81.8-2.4-112.8-35.2c-2.5-2.7-5-5.3-7.6-7.9 c-0.2-0.2-0.6-0.2-1.5-0.5c-2.4,3-1.5,6.8-1.5,10.2c-0.1,26.3,0,52.6-0.1,79c0,3.7,0,7.3-0.3,11c-1.6,17.6-15,30-32.5,30.3 c-17.3,0.2-31.1-12.4-32.8-29.9c-0.4-4-0.3-8-0.3-12c0-99.3,0-198.5,0-297.8c0-5,0-10,0.7-15c2.2-16,15.5-27.6,31.6-27.8 c16.4-0.3,30.5,11.6,32.9,27.7c0.6,3.9,0.5,8,0.7,12C1503.2,659.9,1502.6,662.9,1505,666.8z M1501.6,766c0,25.7,7.6,47.5,22.5,64.6 c36.4,41.7,102.4,36.8,129.5-10.7c20.1-35.3,20.1-72.4-0.5-107.6c-26.2-44.8-86.7-51.9-123.9-15.7 C1509.7,715.4,1501.6,739.1,1501.6,766z" class="st22"/><path d="M2120.9,660.6c4.1-1.3,5.1-3.5,6.6-5.3c23.4-28.6,54.3-39.4,90.4-37.5c26.6,1.4,50.2,10.1,68.5,30.3 c16.3,18.1,23.6,39.9,25.7,63.7c0.8,9.3,0.7,18.6,0.8,28c0.1,44.3,0,88.6,0,132.9c0,3.7,0.1,7.3-0.1,11 c-1,18.2-13.6,30.8-31.2,31.3c-18.4,0.5-32.1-11.2-34.2-29.3c-0.4-4-0.4-8-0.4-12c0-40,0-80-0.1-120c0-9.6-0.2-19.3-2.2-28.8 c-6.4-30.6-28.3-49.6-64-47.2c-32.4,2.2-54,23-58.7,55.2c-1,6.9-1.5,13.9-1.5,20.9c0.1,41.3,0,82.6,0,123.9c0,5,0.2,10-1.4,14.8 c-4.7,14.1-17.4,22.9-33,22.3c-14.8-0.5-26.6-10.2-30.2-24.6c-1.1-4.3-1.2-8.5-1.2-12.9c0-74,0-147.9,0-221.9 c0-4.4,0.2-8.6,1.3-12.9c4-16.3,18.1-26.3,35-24.7c16,1.5,28.4,14,29.5,30.1C2120.6,652,2120.7,655.9,2120.9,660.6z" class="st22"/><path d="M1304.5,915.2c-39.4-0.4-75.4-11.9-108.1-33.9c-13.1-8.8-16.8-24.9-8.8-37.6c7.7-12.2,23.8-16.1,37-8 c16.9,10.3,34.3,19.2,53.7,23.8c15.7,3.7,31.6,5.1,47.5,1.4c6.6-1.5,12.6-4.3,17.6-9c11.9-11.3,11.2-29.1-1.5-39.4 c-6.6-5.3-14.2-8.7-22.1-11.4c-12.9-4.3-26-8.4-39.1-12.3c-14-4.3-27.7-9.3-40.9-15.9c-59.3-29.2-49.9-104.7-10.7-133.5 c22.9-16.8,48.7-22.8,76.3-21.9c28.4,0.9,55.2,8.4,80.6,21c4.5,2.2,8.9,4.6,12.4,8.3c8.8,9.1,10.3,22.6,3.8,33.2 c-6.4,10.4-19.6,15.2-31.4,11.2c-4.1-1.4-7.9-3.5-11.9-5.3c-17.6-8.1-35.7-14.8-55.4-15.9c-8.4-0.5-16.7-0.1-24.7,2.6 c-4.8,1.6-9.2,3.9-12.9,7.4c-10.5,10-10.5,25.5,0.1,35.4c5.5,5.1,12,8.3,18.8,11.2c13.2,5.6,26.9,9.7,40.6,14.1 c17.5,5.6,34.7,11.8,50.4,21.6c18.3,11.4,31.8,26.6,35.2,48.6c5,32.4-4.6,70.9-44.5,91.3C1349.3,910.9,1328.8,915.2,1304.5,915.2z" class="st22"/><path d="M1826.7,658.4c3.2-4.2,5.3-7.5,7.8-10.4c16.6-18.4,37.3-28.9,62-30.5c17.9-1.2,31.2,9.6,33.6,26 c2.8,19-6.3,33-24.4,37.8c-5.5,1.5-11.1,2.5-16.3,4.4c-34.7,13-53.3,39.3-61.1,74.4c-2.1,9.5-2.5,19.1-2.5,28.8 c0,29.3,0,58.6,0,87.9c0,4.7-0.2,9.3-1.4,13.9c-4.2,16.1-19.2,26-36.6,24.1c-15.3-1.7-27-14.4-27.9-30.4c-0.2-3.3-0.1-6.7-0.1-10 c0-71.9,0-143.9,0-215.8c0-3.7-0.1-7.3,0.2-11c1.2-16.3,13.2-28.4,29.5-30.1c15.7-1.6,30.8,8.7,34.7,24.1 C1825.4,646.6,1825.7,651.9,1826.7,658.4z" class="st22"/><path d="M1955.7,765.6c0-36.7,0-73.3,0-110c0-5-0.2-10,1.3-14.9c4.3-14,16.9-23.3,31.5-23.2c15,0.2,27.8,10,31.7,24.4 c1.2,4.5,1.5,9.2,1.5,13.9c0,74,0,148-0.1,222c0,3.6-0.2,7.3-0.9,10.9c-3.4,17.3-17.7,27.7-35.8,26.2c-16.3-1.3-28.8-14.3-29-31.3 c-0.4-30-0.1-60-0.2-90C1955.7,784.3,1955.7,774.9,1955.7,765.6z" class="st22"/><path d="M1988.5,571.1c-18.5,0-32.9-14.2-33-32.7c-0.1-18.4,14.3-33.2,32.5-33.4c18.4-0.3,33.9,15.1,33.8,33.4 C2021.6,556.5,2006.8,571.1,1988.5,571.1z" class="st22"/><path d="M2676.1,651.8c0.1-18.7,14.8-33.4,33.6-33.4c18.7,0,33.7,14.7,33.9,33.3c0.2,18.7-15.6,34.5-34.3,34.1 C2690.7,685.5,2676,670.5,2676.1,651.8z M2709.2,623.4c-15.8,0.3-28.4,13.3-28.2,29.1c0.3,15.8,13.1,28.4,29,28.2 c15.8-0.2,28.3-13.1,28.1-29C2738,635.9,2724.9,623.1,2709.2,623.4z" class="st22"/><path d="M2723.5,670.4c-4.1,1.7-5.6-0.6-7.1-2.8c-2.1-3-4.1-6.1-6.1-9.1c-1.3-1.9-3.2-2.2-5.3-1.9 c-2.7,0.4-2.6,2.5-2.7,4.5c-0.2,2.6-0.3,5.3-0.6,7.9c-0.1,1-1.2,1.7-2.2,1.5c-0.9-0.1-2-0.4-2.2-1.6c-0.2-1-0.5-1.9-0.5-2.9 c0-9.3,0-18.6,0-27.9c0-3.7,1.6-5.6,5.4-5.4c4.3,0.2,8.7-0.4,12.9,0.4c9.9,1.9,13.6,12.8,6.2,19.6c-4.2,3.8-4.7,6.3-1.3,10.4 C2721.5,665.1,2723.5,667.1,2723.5,670.4z M2709.3,651.1c6.5,0,10.3-2.6,10-6.9c-0.3-4.3-4.1-6.8-10.5-6.7c-5.8,0.1-6.7,1-6.6,7.1 C2702.3,650.5,2702.9,651,2709.3,651.1z" class="st22"/></g></svg>